<?xml version="1.0" encoding="UTF-8"?>
<svg version="1.1" xmlns="http://www.w3.org/2000/svg" width="225" height="225">
<path d="M0 0 C74.25 0 148.5 0 225 0 C225 74.25 225 148.5 225 225 C150.75 225 76.5 225 0 225 C0 150.75 0 76.5 0 0 Z " fill="#FEFEFE" transform="translate(0,0)"/>
<path d="M0 0 C0.65901094 -0.00438225 1.31802187 -0.00876451 1.99700284 -0.01327956 C4.21555438 -0.02668381 6.43406617 -0.03285005 8.65264893 -0.03897095 C10.23924948 -0.04687067 11.82584822 -0.05513954 13.41244507 -0.06375122 C18.63214396 -0.0899875 23.85185094 -0.10528096 29.07159424 -0.11953735 C30.86750545 -0.12489647 32.6634166 -0.13027398 34.4593277 -0.13566971 C41.92942484 -0.15730124 49.3995198 -0.1760382 56.86964035 -0.1872921 C67.57977184 -0.20353244 78.28954059 -0.23670901 88.99953532 -0.29369295 C96.52742036 -0.33238195 104.05520834 -0.35192358 111.5831902 -0.35721266 C116.08053487 -0.36086772 120.57749278 -0.37290489 125.07472992 -0.4053154 C129.30687435 -0.43537772 133.53839766 -0.44171466 137.77062607 -0.42993164 C139.3226363 -0.42971075 140.8746752 -0.43802916 142.42658615 -0.45558548 C155.61893171 -0.59668385 155.61893171 -0.59668385 159.55725098 2.56536865 C162.57180337 6.29458355 162.77670509 8.05708418 162.79016113 12.78959656 C162.79587128 13.98834412 162.80158142 15.18709167 162.8074646 16.42216492 C162.80871001 17.75762929 162.8098351 19.09309378 162.81085205 20.42855835 C162.81547942 21.82959118 162.82050397 23.23062274 162.82589722 24.63165283 C162.83903188 28.44373153 162.84546836 32.25579261 162.84990788 36.06789041 C162.85283716 38.44892569 162.85694171 40.82995614 162.86141205 43.210989 C162.87509039 50.65886517 162.88475514 58.10673032 162.88861394 65.55461818 C162.89309432 74.15534442 162.91063979 82.75591171 162.93961453 91.35658962 C162.96122608 98.00209165 162.97131795 104.64754895 162.97265506 111.29308575 C162.97370356 115.26324041 162.97962069 119.23324572 162.99747467 123.20336342 C163.01394612 126.93883577 163.0161155 130.67404637 163.00733566 134.40954208 C163.00619737 136.43273062 163.01992228 138.45591042 163.03408813 140.47904968 C163.02573441 142.28986023 163.02573441 142.28986023 163.01721191 144.13725281 C163.01867847 145.18457738 163.02014503 146.23190195 163.02165604 147.31096363 C162.46436934 151.57064085 160.77469993 154.20958455 157.51226807 156.9480896 C153.55468418 158.61516907 150.0986867 158.52857082 145.84893799 158.4468689 C145.01256302 158.44262405 144.17618805 158.43837921 143.31446838 158.43400574 C140.65505158 158.41727379 137.99640523 158.37963241 135.33721924 158.34140015 C133.52928751 158.32634619 131.72134385 158.31265903 129.91339111 158.30038452 C125.49187235 158.26738831 121.07092622 158.21564443 116.64971924 158.15390015 C116.64971924 157.16390015 116.64971924 156.17390015 116.64971924 155.15390015 C117.74961182 155.13931763 118.84950439 155.12473511 119.98272705 155.10971069 C124.06817947 155.05168544 128.15308315 154.97445308 132.23809814 154.89144897 C134.00526007 154.85821946 135.77252763 154.83018132 137.53985596 154.8074646 C140.08214275 154.77388183 142.62346332 154.72156564 145.16534424 154.6656189 C146.34837128 154.65603401 146.34837128 154.65603401 147.55529785 154.64625549 C151.9184462 154.52961964 154.52046784 154.26303006 157.64971924 151.15390015 C158.2542948 148.85945789 158.2542948 148.85945789 158.16870117 146.23747253 C158.18261398 145.22365005 158.19652679 144.20982758 158.21086121 143.1652832 C158.20331566 141.49832901 158.20331566 141.49832901 158.19561768 139.79769897 C158.21112419 138.04139915 158.21112419 138.04139915 158.22694397 136.24961853 C158.2514029 133.03899977 158.25820791 129.82892092 158.25722408 126.61822724 C158.26035017 123.26289865 158.28596191 119.90774418 158.3092041 116.55250549 C158.34979126 110.1989832 158.37011108 103.8455636 158.383178 97.49193162 C158.40059459 89.54907809 158.44501334 81.60640554 158.48956299 73.66366577 C158.5689205 59.49374871 158.60737594 45.32408352 158.64971924 31.15390015 C135.21971924 31.15390015 111.78971924 31.15390015 87.64971924 31.15390015 C85.99971924 41.38390015 84.34971924 51.61390015 82.64971924 62.15390015 C80.21221924 74.34140015 80.21221924 74.34140015 78.97003174 80.36483765 C77.14730475 89.47847258 75.69972635 98.65681475 74.2013855 107.82806396 C72.61468998 117.52839091 70.97394852 127.19963453 68.94244385 136.81918335 C67.65475059 142.92103572 66.67963706 148.9743932 65.64971924 155.15390015 C74.22971924 155.15390015 82.80971924 155.15390015 91.64971924 155.15390015 C91.31971924 156.14390015 90.98971924 157.13390015 90.64971924 158.15390015 C78.1062137 158.26977609 65.5628356 158.35860688 53.01890373 158.41296101 C47.19415245 158.43904903 41.3697675 158.47443349 35.54522705 158.53109741 C29.92366055 158.58544414 24.3024463 158.61532666 18.68063736 158.62828636 C16.5364032 158.63752135 14.39218821 158.65555529 12.2481041 158.68255043 C9.24336923 158.71887533 6.24008775 158.72384395 3.23516846 158.7215271 C1.90699348 158.74849167 1.90699348 158.74849167 0.55198669 158.77600098 C-3.68531862 158.74067392 -6.49828658 158.48501374 -9.88687134 155.80592346 C-13.39545401 152.02870195 -13.47766152 149.37309752 -13.50418091 144.40467834 C-13.51278137 143.20600128 -13.52138184 142.00732422 -13.53024292 140.77232361 C-13.53450287 139.4553801 -13.53876282 138.13843658 -13.54315186 136.78158569 C-13.55105463 135.38202715 -13.55932369 133.98247064 -13.56793213 132.58291626 C-13.59412917 127.98550354 -13.60945616 123.38808181 -13.62371826 118.7906189 C-13.62907865 117.20737006 -13.63445616 115.62412129 -13.63985062 114.04087257 C-13.66147479 107.45516467 -13.68021169 100.8694592 -13.69147301 94.28372478 C-13.70771473 84.8478646 -13.74090281 75.412416 -13.79787385 65.97671098 C-13.83657539 59.34051815 -13.85610585 52.70443541 -13.86139357 46.0681327 C-13.86504641 42.10510187 -13.87706004 38.14251027 -13.90949631 34.17960167 C-13.93958169 30.45055548 -13.94588766 26.72221418 -13.93411255 22.99307251 C-13.9337868 20.976002 -13.95824866 18.95897497 -13.98348999 16.94206238 C-13.91537664 7.05779227 -13.91537664 7.05779227 -10.93881226 3.35636902 C-7.03341152 0.03343338 -5.07783437 0.02387767 0 0 Z " fill="#F9749D" transform="translate(34.35028076171875,29.846099853515625)"/>
<path d="M0 0 C23.43 0 46.86 0 71 0 C71.20081834 29.82821773 71.20081834 29.82821773 71.25126934 44.53966141 C71.2789992 52.50282911 71.31422811 60.46573555 71.37719727 68.42871094 C71.42702125 74.73237292 71.45928825 81.03583798 71.47044247 87.3396914 C71.47696341 90.67801905 71.49491101 94.0153373 71.52865028 97.35356903 C71.56481839 101.07948044 71.56995017 104.80421543 71.56762695 108.53027344 C71.58560333 109.63798096 71.60357971 110.74568848 71.62210083 111.88696289 C71.57172095 119.32812645 71.57172095 119.32812645 68.71228027 122.68847656 C64.95141097 124.50704535 61.50213937 124.49823925 57.41796875 124.390625 C56.19670036 124.38213531 56.19670036 124.38213531 54.95075989 124.37347412 C52.36239647 124.35116774 49.7754416 124.30098445 47.1875 124.25 C45.42775444 124.22992747 43.66798707 124.21167802 41.90820312 124.1953125 C37.60492995 124.15132207 33.3027034 124.08233627 29 124 C28.67 124.66 28.34 125.32 28 126 C24.03299825 127.14488837 20.10806808 127.16536601 16 127.1875 C14.80375 127.20167969 13.6075 127.21585937 12.375 127.23046875 C9 127 9 127 6.67504883 126.01147461 C3.59830694 124.84811405 1.10733775 124.6829755 -2.17578125 124.5859375 C-3.33271484 124.54726562 -4.48964844 124.50859375 -5.68164062 124.46875 C-6.87982422 124.4378125 -8.07800781 124.406875 -9.3125 124.375 C-10.53001953 124.33632812 -11.74753906 124.29765625 -13.00195312 124.2578125 C-16.00115228 124.16371998 -19.00034823 124.07807791 -22 124 C-21.5133132 116.7801738 -20.73770965 109.81638479 -19.1875 102.75 C-17.66683402 95.48091275 -16.31812587 88.20491048 -15.125 80.875 C-13.46938771 70.73647365 -11.72400423 60.61611149 -9.9375 50.5 C-9.81352844 49.79582947 -9.68955688 49.09165894 -9.56182861 48.3661499 C-7.98524955 39.41476857 -6.35292756 30.47541652 -4.66723633 21.54394531 C-4.13178656 18.69996842 -3.60407715 15.85497608 -3.0859375 13.0078125 C-2.85132812 11.72648437 -2.61671875 10.44515625 -2.375 9.125 C-2.25382812 8.45082031 -2.13265625 7.77664062 -2.0078125 7.08203125 C-1.11222718 2.22445437 -1.11222718 2.22445437 0 0 Z " fill="#6CC8F6" transform="translate(122,61)"/>
<path d="M0 0 C0.65901094 -0.00438225 1.31802187 -0.00876451 1.99700284 -0.01327956 C4.21555438 -0.02668381 6.43406617 -0.03285005 8.65264893 -0.03897095 C10.23924948 -0.04687067 11.82584822 -0.05513954 13.41244507 -0.06375122 C18.63214396 -0.0899875 23.85185094 -0.10528096 29.07159424 -0.11953735 C30.86750545 -0.12489647 32.6634166 -0.13027398 34.4593277 -0.13566971 C41.92942484 -0.15730124 49.3995198 -0.1760382 56.86964035 -0.1872921 C67.57977184 -0.20353244 78.28954059 -0.23670901 88.99953532 -0.29369295 C96.52742036 -0.33238195 104.05520834 -0.35192358 111.5831902 -0.35721266 C116.08053487 -0.36086772 120.57749278 -0.37290489 125.07472992 -0.4053154 C129.30687435 -0.43537772 133.53839766 -0.44171466 137.77062607 -0.42993164 C139.3226363 -0.42971075 140.8746752 -0.43802916 142.42658615 -0.45558548 C155.61893171 -0.59668385 155.61893171 -0.59668385 159.55725098 2.56536865 C162.57180337 6.29458355 162.77670509 8.05708418 162.79016113 12.78959656 C162.79587128 13.98834412 162.80158142 15.18709167 162.8074646 16.42216492 C162.80871001 17.75762929 162.8098351 19.09309378 162.81085205 20.42855835 C162.81547942 21.82959118 162.82050397 23.23062274 162.82589722 24.63165283 C162.83903188 28.44373153 162.84546836 32.25579261 162.84990788 36.06789041 C162.85283716 38.44892569 162.85694171 40.82995614 162.86141205 43.210989 C162.87509039 50.65886517 162.88475514 58.10673032 162.88861394 65.55461818 C162.89309432 74.15534442 162.91063979 82.75591171 162.93961453 91.35658962 C162.96122608 98.00209165 162.97131795 104.64754895 162.97265506 111.29308575 C162.97370356 115.26324041 162.97962069 119.23324572 162.99747467 123.20336342 C163.01394612 126.93883577 163.0161155 130.67404637 163.00733566 134.40954208 C163.00619737 136.43273062 163.01992228 138.45591042 163.03408813 140.47904968 C163.02573441 142.28986023 163.02573441 142.28986023 163.01721191 144.13725281 C163.01867847 145.18457738 163.02014503 146.23190195 163.02165604 147.31096363 C162.46436934 151.57064085 160.77469993 154.20958455 157.51226807 156.9480896 C153.55468418 158.61516907 150.0986867 158.52857082 145.84893799 158.4468689 C145.01256302 158.44262405 144.17618805 158.43837921 143.31446838 158.43400574 C140.65505158 158.41727379 137.99640523 158.37963241 135.33721924 158.34140015 C133.52928751 158.32634619 131.72134385 158.31265903 129.91339111 158.30038452 C125.49187235 158.26738831 121.07092622 158.21564443 116.64971924 158.15390015 C116.64971924 157.16390015 116.64971924 156.17390015 116.64971924 155.15390015 C117.74961182 155.13931763 118.84950439 155.12473511 119.98272705 155.10971069 C124.06817947 155.05168544 128.15308315 154.97445308 132.23809814 154.89144897 C134.00526007 154.85821946 135.77252763 154.83018132 137.53985596 154.8074646 C140.08214275 154.77388183 142.62346332 154.72156564 145.16534424 154.6656189 C146.34837128 154.65603401 146.34837128 154.65603401 147.55529785 154.64625549 C151.9184462 154.52961964 154.52046784 154.26303006 157.64971924 151.15390015 C158.2542948 148.85945789 158.2542948 148.85945789 158.16870117 146.23747253 C158.18261398 145.22365005 158.19652679 144.20982758 158.21086121 143.1652832 C158.20331566 141.49832901 158.20331566 141.49832901 158.19561768 139.79769897 C158.21112419 138.04139915 158.21112419 138.04139915 158.22694397 136.24961853 C158.2514029 133.03899977 158.25820791 129.82892092 158.25722408 126.61822724 C158.26035017 123.26289865 158.28596191 119.90774418 158.3092041 116.55250549 C158.34979126 110.1989832 158.37011108 103.8455636 158.383178 97.49193162 C158.40059459 89.54907809 158.44501334 81.60640554 158.48956299 73.66366577 C158.5689205 59.49374871 158.60737594 45.32408352 158.64971924 31.15390015 C135.21971924 31.15390015 111.78971924 31.15390015 87.64971924 31.15390015 C85.99971924 41.38390015 84.34971924 51.61390015 82.64971924 62.15390015 C80.21221924 74.34140015 80.21221924 74.34140015 78.97003174 80.36483765 C77.14730475 89.47847258 75.69972635 98.65681475 74.2013855 107.82806396 C72.61468998 117.52839091 70.97394852 127.19963453 68.94244385 136.81918335 C67.65475059 142.92103572 66.67963706 148.9743932 65.64971924 155.15390015 C74.22971924 155.15390015 82.80971924 155.15390015 91.64971924 155.15390015 C91.31971924 156.14390015 90.98971924 157.13390015 90.64971924 158.15390015 C78.1062137 158.26977609 65.5628356 158.35860688 53.01890373 158.41296101 C47.19415245 158.43904903 41.3697675 158.47443349 35.54522705 158.53109741 C29.92366055 158.58544414 24.3024463 158.61532666 18.68063736 158.62828636 C16.5364032 158.63752135 14.39218821 158.65555529 12.2481041 158.68255043 C9.24336923 158.71887533 6.24008775 158.72384395 3.23516846 158.7215271 C1.90699348 158.74849167 1.90699348 158.74849167 0.55198669 158.77600098 C-3.68531862 158.74067392 -6.49828658 158.48501374 -9.88687134 155.80592346 C-13.39545401 152.02870195 -13.47766152 149.37309752 -13.50418091 144.40467834 C-13.51278137 143.20600128 -13.52138184 142.00732422 -13.53024292 140.77232361 C-13.53450287 139.4553801 -13.53876282 138.13843658 -13.54315186 136.78158569 C-13.55105463 135.38202715 -13.55932369 133.98247064 -13.56793213 132.58291626 C-13.59412917 127.98550354 -13.60945616 123.38808181 -13.62371826 118.7906189 C-13.62907865 117.20737006 -13.63445616 115.62412129 -13.63985062 114.04087257 C-13.66147479 107.45516467 -13.68021169 100.8694592 -13.69147301 94.28372478 C-13.70771473 84.8478646 -13.74090281 75.412416 -13.79787385 65.97671098 C-13.83657539 59.34051815 -13.85610585 52.70443541 -13.86139357 46.0681327 C-13.86504641 42.10510187 -13.87706004 38.14251027 -13.90949631 34.17960167 C-13.93958169 30.45055548 -13.94588766 26.72221418 -13.93411255 22.99307251 C-13.9337868 20.976002 -13.95824866 18.95897497 -13.98348999 16.94206238 C-13.91537664 7.05779227 -13.91537664 7.05779227 -10.93881226 3.35636902 C-7.03341152 0.03343338 -5.07783437 0.02387767 0 0 Z M-9.35028076 31.15390015 C-9.47040467 53.42370784 -9.47040467 53.42370784 -9.55129623 75.69356155 C-9.57347997 83.65667483 -9.60166315 91.61962089 -9.65203857 99.58261108 C-9.69189776 105.88627241 -9.71771146 112.1898077 -9.72663474 118.49359155 C-9.73185128 121.83178657 -9.74621037 125.16933554 -9.77320099 128.50746918 C-9.80213452 132.23325703 -9.80624081 135.95829191 -9.80438232 139.68417358 C-9.81876343 140.7918811 -9.83314453 141.89958862 -9.84796143 143.04086304 C-9.84246277 144.05606018 -9.83696411 145.07125732 -9.83129883 146.11721802 C-9.834986 146.99845211 -9.83867317 147.8796862 -9.84247208 148.78762436 C-9.18240345 151.96099287 -7.85616095 153.16301734 -5.35028076 155.15390015 C-2.2468431 155.73246928 -2.2468431 155.73246928 1.25421143 155.60800171 C2.23532143 155.60887787 2.23532143 155.60887787 3.23625183 155.60977173 C5.39024618 155.60699313 7.5428428 155.57591562 9.69659424 155.54452515 C11.19302616 155.53706186 12.68946788 155.53136934 14.18591309 155.52737427 C18.11856214 155.51212454 22.05061731 155.47284927 25.98303223 155.42855835 C29.99814826 155.38759088 34.01336055 155.36936015 38.02862549 155.34921265 C45.9025955 155.30635363 53.77608343 155.23811118 61.64971924 155.15390015 C65.39692301 136.86662524 68.80573373 118.52987583 72.08721924 100.15390015 C72.93076175 95.44220671 73.77597678 90.73081283 74.62096596 86.01937866 C74.97488892 84.04538335 75.32844181 82.0713217 75.68199158 80.09725952 C77.0013733 72.73759115 78.33591422 65.38104283 79.69659424 58.02890015 C79.84246475 57.23846313 79.98833527 56.44802612 80.1386261 55.63363647 C80.77909435 52.16413646 81.42339624 48.69550579 82.07525635 45.2281189 C82.28932129 44.06925171 82.50338623 42.91038452 82.72393799 41.71640015 C82.90529297 40.74831421 83.08664795 39.78022827 83.27349854 38.7828064 C83.76777415 35.77158639 83.76777415 35.77158639 83.64971924 31.15390015 C52.95971924 31.15390015 22.26971924 31.15390015 -9.35028076 31.15390015 Z " fill="#0286EB" transform="translate(34.35028076171875,29.846099853515625)"/>
<path d="M0 0 C0.65901094 -0.00438225 1.31802187 -0.00876451 1.99700284 -0.01327956 C4.21555438 -0.02668381 6.43406617 -0.03285005 8.65264893 -0.03897095 C10.23924948 -0.04687067 11.82584822 -0.05513954 13.41244507 -0.06375122 C18.63214396 -0.0899875 23.85185094 -0.10528096 29.07159424 -0.11953735 C30.86750545 -0.12489647 32.6634166 -0.13027398 34.4593277 -0.13566971 C41.92942484 -0.15730124 49.3995198 -0.1760382 56.86964035 -0.1872921 C67.57977184 -0.20353244 78.28954059 -0.23670901 88.99953532 -0.29369295 C96.52742036 -0.33238195 104.05520834 -0.35192358 111.5831902 -0.35721266 C116.08053487 -0.36086772 120.57749278 -0.37290489 125.07472992 -0.4053154 C129.30687435 -0.43537772 133.53839766 -0.44171466 137.77062607 -0.42993164 C139.3226363 -0.42971075 140.8746752 -0.43802916 142.42658615 -0.45558548 C155.61893171 -0.59668385 155.61893171 -0.59668385 159.55725098 2.56536865 C162.57180337 6.29458355 162.77670509 8.05708418 162.79016113 12.78959656 C162.79587128 13.98834412 162.80158142 15.18709167 162.8074646 16.42216492 C162.80871001 17.75762929 162.8098351 19.09309378 162.81085205 20.42855835 C162.81547942 21.82959118 162.82050397 23.23062274 162.82589722 24.63165283 C162.83903188 28.44373153 162.84546836 32.25579261 162.84990788 36.06789041 C162.85283716 38.44892569 162.85694171 40.82995614 162.86141205 43.210989 C162.87509039 50.65886517 162.88475514 58.10673032 162.88861394 65.55461818 C162.89309432 74.15534442 162.91063979 82.75591171 162.93961453 91.35658962 C162.96122608 98.00209165 162.97131795 104.64754895 162.97265506 111.29308575 C162.97370356 115.26324041 162.97962069 119.23324572 162.99747467 123.20336342 C163.01394612 126.93883577 163.0161155 130.67404637 163.00733566 134.40954208 C163.00619737 136.43273062 163.01992228 138.45591042 163.03408813 140.47904968 C163.02573441 142.28986023 163.02573441 142.28986023 163.01721191 144.13725281 C163.01867847 145.18457738 163.02014503 146.23190195 163.02165604 147.31096363 C162.46436934 151.57064085 160.77469993 154.20958455 157.51226807 156.9480896 C153.55468418 158.61516907 150.0986867 158.52857082 145.84893799 158.4468689 C145.01256302 158.44262405 144.17618805 158.43837921 143.31446838 158.43400574 C140.65505158 158.41727379 137.99640523 158.37963241 135.33721924 158.34140015 C133.52928751 158.32634619 131.72134385 158.31265903 129.91339111 158.30038452 C125.49187235 158.26738831 121.07092622 158.21564443 116.64971924 158.15390015 C116.64971924 157.16390015 116.64971924 156.17390015 116.64971924 155.15390015 C117.74961182 155.13931763 118.84950439 155.12473511 119.98272705 155.10971069 C124.06817947 155.05168544 128.15308315 154.97445308 132.23809814 154.89144897 C134.00526007 154.85821946 135.77252763 154.83018132 137.53985596 154.8074646 C140.08214275 154.77388183 142.62346332 154.72156564 145.16534424 154.6656189 C146.34837128 154.65603401 146.34837128 154.65603401 147.55529785 154.64625549 C151.9184462 154.52961964 154.52046784 154.26303006 157.64971924 151.15390015 C158.2542948 148.85945789 158.2542948 148.85945789 158.16870117 146.23747253 C158.18261398 145.22365005 158.19652679 144.20982758 158.21086121 143.1652832 C158.20331566 141.49832901 158.20331566 141.49832901 158.19561768 139.79769897 C158.21112419 138.04139915 158.21112419 138.04139915 158.22694397 136.24961853 C158.2514029 133.03899977 158.25820791 129.82892092 158.25722408 126.61822724 C158.26035017 123.26289865 158.28596191 119.90774418 158.3092041 116.55250549 C158.34979126 110.1989832 158.37011108 103.8455636 158.383178 97.49193162 C158.40059459 89.54907809 158.44501334 81.60640554 158.48956299 73.66366577 C158.5689205 59.49374871 158.60737594 45.32408352 158.64971924 31.15390015 C135.21971924 31.15390015 111.78971924 31.15390015 87.64971924 31.15390015 C85.99971924 41.38390015 84.34971924 51.61390015 82.64971924 62.15390015 C80.21221924 74.34140015 80.21221924 74.34140015 78.97003174 80.36483765 C77.14730475 89.47847258 75.69972635 98.65681475 74.2013855 107.82806396 C72.61468998 117.52839091 70.97394852 127.19963453 68.94244385 136.81918335 C67.65475059 142.92103572 66.67963706 148.9743932 65.64971924 155.15390015 C74.22971924 155.15390015 82.80971924 155.15390015 91.64971924 155.15390015 C91.31971924 156.14390015 90.98971924 157.13390015 90.64971924 158.15390015 C78.1062137 158.26977609 65.5628356 158.35860688 53.01890373 158.41296101 C47.19415245 158.43904903 41.3697675 158.47443349 35.54522705 158.53109741 C29.92366055 158.58544414 24.3024463 158.61532666 18.68063736 158.62828636 C16.5364032 158.63752135 14.39218821 158.65555529 12.2481041 158.68255043 C9.24336923 158.71887533 6.24008775 158.72384395 3.23516846 158.7215271 C1.90699348 158.74849167 1.90699348 158.74849167 0.55198669 158.77600098 C-3.68531862 158.74067392 -6.49828658 158.48501374 -9.88687134 155.80592346 C-13.39545401 152.02870195 -13.47766152 149.37309752 -13.50418091 144.40467834 C-13.51278137 143.20600128 -13.52138184 142.00732422 -13.53024292 140.77232361 C-13.53450287 139.4553801 -13.53876282 138.13843658 -13.54315186 136.78158569 C-13.55105463 135.38202715 -13.55932369 133.98247064 -13.56793213 132.58291626 C-13.59412917 127.98550354 -13.60945616 123.38808181 -13.62371826 118.7906189 C-13.62907865 117.20737006 -13.63445616 115.62412129 -13.63985062 114.04087257 C-13.66147479 107.45516467 -13.68021169 100.8694592 -13.69147301 94.28372478 C-13.70771473 84.8478646 -13.74090281 75.412416 -13.79787385 65.97671098 C-13.83657539 59.34051815 -13.85610585 52.70443541 -13.86139357 46.0681327 C-13.86504641 42.10510187 -13.87706004 38.14251027 -13.90949631 34.17960167 C-13.93958169 30.45055548 -13.94588766 26.72221418 -13.93411255 22.99307251 C-13.9337868 20.976002 -13.95824866 18.95897497 -13.98348999 16.94206238 C-13.91537664 7.05779227 -13.91537664 7.05779227 -10.93881226 3.35636902 C-7.03341152 0.03343338 -5.07783437 0.02387767 0 0 Z M-10.35028076 9.15390015 C-10.35028076 15.42390015 -10.35028076 21.69390015 -10.35028076 28.15390015 C45.74971924 28.15390015 101.84971924 28.15390015 159.64971924 28.15390015 C161.62792022 10.559464 161.62792022 10.559464 155.64971924 4.15390015 C152.85217667 2.75512886 150.53756886 3.01175014 147.40660095 2.99327087 C146.75913511 2.98818305 146.11166926 2.98309523 145.44458324 2.97785324 C143.26516135 2.96210019 141.08577268 2.95359626 138.90631104 2.94515991 C137.34764392 2.93562383 135.78897894 2.92573278 134.23031616 2.91551208 C129.10321574 2.88410151 123.97609895 2.86385893 118.84893799 2.8453064 C117.9771806 2.84200907 117.10542321 2.83871175 116.20724893 2.83531451 C107.9886609 2.80453512 99.77006927 2.7778225 91.55144024 2.76089573 C81.03191456 2.73897747 70.51289857 2.6969838 59.99357671 2.62745816 C52.60074088 2.58025187 45.20804275 2.55596678 37.81506091 2.54869884 C33.39759153 2.54373779 28.98069635 2.52861464 24.56339073 2.48895454 C20.40750374 2.45213336 16.25251994 2.44366309 12.0965004 2.45696068 C10.57147041 2.45690665 9.04640086 2.44657933 7.52152061 2.42520905 C5.43785074 2.39756939 3.3574848 2.40700951 1.27378845 2.42564392 C-0.47418266 2.41929601 -0.47418266 2.41929601 -2.25746632 2.41281986 C-6.27681995 3.05001749 -6.27681995 3.05001749 -10.35028076 9.15390015 Z M-9.35028076 31.15390015 C-9.47040467 53.42370784 -9.47040467 53.42370784 -9.55129623 75.69356155 C-9.57347997 83.65667483 -9.60166315 91.61962089 -9.65203857 99.58261108 C-9.69189776 105.88627241 -9.71771146 112.1898077 -9.72663474 118.49359155 C-9.73185128 121.83178657 -9.74621037 125.16933554 -9.77320099 128.50746918 C-9.80213452 132.23325703 -9.80624081 135.95829191 -9.80438232 139.68417358 C-9.81876343 140.7918811 -9.83314453 141.89958862 -9.84796143 143.04086304 C-9.84246277 144.05606018 -9.83696411 145.07125732 -9.83129883 146.11721802 C-9.834986 146.99845211 -9.83867317 147.8796862 -9.84247208 148.78762436 C-9.18240345 151.96099287 -7.85616095 153.16301734 -5.35028076 155.15390015 C-2.2468431 155.73246928 -2.2468431 155.73246928 1.25421143 155.60800171 C2.23532143 155.60887787 2.23532143 155.60887787 3.23625183 155.60977173 C5.39024618 155.60699313 7.5428428 155.57591562 9.69659424 155.54452515 C11.19302616 155.53706186 12.68946788 155.53136934 14.18591309 155.52737427 C18.11856214 155.51212454 22.05061731 155.47284927 25.98303223 155.42855835 C29.99814826 155.38759088 34.01336055 155.36936015 38.02862549 155.34921265 C45.9025955 155.30635363 53.77608343 155.23811118 61.64971924 155.15390015 C65.39692301 136.86662524 68.80573373 118.52987583 72.08721924 100.15390015 C72.93076175 95.44220671 73.77597678 90.73081283 74.62096596 86.01937866 C74.97488892 84.04538335 75.32844181 82.0713217 75.68199158 80.09725952 C77.0013733 72.73759115 78.33591422 65.38104283 79.69659424 58.02890015 C79.84246475 57.23846313 79.98833527 56.44802612 80.1386261 55.63363647 C80.77909435 52.16413646 81.42339624 48.69550579 82.07525635 45.2281189 C82.28932129 44.06925171 82.50338623 42.91038452 82.72393799 41.71640015 C82.90529297 40.74831421 83.08664795 39.78022827 83.27349854 38.7828064 C83.76777415 35.77158639 83.76777415 35.77158639 83.64971924 31.15390015 C52.95971924 31.15390015 22.26971924 31.15390015 -9.35028076 31.15390015 Z " fill="#382B5E" transform="translate(34.35028076171875,29.846099853515625)"/>
<path d="M0 0 C3.84412862 1.45811775 5.28161277 3.29568764 7 7 C7.37473011 9.80332184 7.37473011 9.80332184 7.3742218 12.92053223 C7.38123611 14.10657547 7.38825043 15.29261871 7.39547729 16.51460266 C7.38783356 17.80722519 7.38018982 19.09984772 7.37231445 20.43164062 C7.37474373 21.81341323 7.37846438 23.19518407 7.38337708 24.57695007 C7.39277116 28.32283216 7.38337324 32.06845228 7.37004495 35.81431389 C7.35871566 39.73709011 7.3628391 43.65985372 7.36479187 47.5826416 C7.36567438 54.16988395 7.35460351 60.75702329 7.33618164 67.34423828 C7.31501466 74.95655253 7.3115044 82.56871592 7.3177436 90.18105364 C7.32344132 97.50827047 7.31778679 104.83543425 7.30657005 112.16264343 C7.30192947 115.27895592 7.30104788 118.3952359 7.3031559 121.5115509 C7.30504168 125.18220497 7.2969127 128.85270583 7.2810955 132.52332497 C7.27483979 134.51067261 7.2783566 136.4980435 7.28216553 138.48539734 C7.27508072 139.67144058 7.26799591 140.85748383 7.26069641 142.07946777 C7.25761711 143.62248692 7.25761711 143.62248692 7.25447559 145.19667816 C6.91418616 148.94533158 5.95958425 151.83181048 3.5625 154.75 C0.19480855 157.44415316 -3.30913893 157.13437369 -7.43257141 157.15390015 C-8.08835322 157.1582824 -8.74413503 157.16266465 -9.41978902 157.1671797 C-11.621415 157.18055469 -13.82300097 157.18674358 -16.0246582 157.19287109 C-17.60155416 157.200773 -19.17844832 157.209042 -20.75534058 157.21765137 C-25.9371366 157.2438581 -31.11894065 157.25917621 -36.30078125 157.2734375 C-38.08462212 157.27879746 -39.86846293 157.28417497 -41.6523037 157.28956985 C-49.07182903 157.3111953 -56.4913522 157.32993259 -63.91090107 157.34119225 C-74.54487625 157.3574363 -85.17848633 157.39062884 -95.81232387 157.44759309 C-103.28927407 157.48628155 -110.76612657 157.50582355 -118.24317425 157.51111281 C-122.70920607 157.51476737 -127.17484837 157.52679969 -131.64077187 157.55921555 C-135.84256213 157.58927765 -140.0437268 157.59561491 -144.24560165 157.58383179 C-145.78632501 157.5836109 -147.32707724 157.59192836 -148.86770058 157.60948563 C-161.96034927 157.75055204 -161.96034927 157.75055204 -165.96330261 154.58853149 C-168 152 -168 152 -168 150 C-166.21261162 149.9845388 -166.21261162 149.9845388 -164.38911438 149.96876526 C-153.16220223 149.87103002 -141.93534548 149.76829573 -130.70852375 149.66066074 C-124.93664251 149.60548479 -119.16475616 149.55207326 -113.39282227 149.50268555 C-107.82312321 149.45496349 -102.25348508 149.40261777 -96.68385887 149.34705925 C-94.55840763 149.32667124 -92.43293971 149.30795234 -90.30745888 149.29092598 C-87.33162023 149.26680332 -84.35589607 149.23675943 -81.38012695 149.20532227 C-80.06058517 149.19668907 -80.06058517 149.19668907 -78.71438599 149.18788147 C-74.65486524 149.13910128 -70.98294635 148.85588063 -67 148 C-66.67 148.33 -66.34 148.66 -66 149 C-63.75183935 149.10004903 -61.50038093 149.12966884 -59.25 149.125 C-58.01765625 149.12757813 -56.7853125 149.13015625 -55.515625 149.1328125 C-52.52894924 149.01998253 -49.91111651 148.59300521 -47 148 C-46.67 148.33 -46.34 148.66 -46 149 C-43.24682214 149.12594243 -40.52012577 149.18867916 -37.765625 149.203125 C-36.52036041 149.21167511 -36.52036041 149.21167511 -35.24993896 149.22039795 C-33.48792806 149.22986468 -31.72589932 149.23638854 -29.96386719 149.24023438 C-27.27507241 149.24990978 -24.58705168 149.28090409 -21.8984375 149.3125 C-20.18750454 149.31903288 -18.47656611 149.32428223 -16.765625 149.328125 C-15.96336487 149.3404718 -15.16110474 149.3528186 -14.33453369 149.36553955 C-9.75592871 149.34739223 -6.6641364 149.05086299 -3 146 C-0.8888871 142.69579069 -0.74208145 140.00603397 -0.7215271 136.12811279 C-0.71036362 134.92780426 -0.69920013 133.72749573 -0.68769836 132.49081421 C-0.68445808 130.52067856 -0.68445808 130.52067856 -0.68115234 128.51074219 C-0.67185237 127.11114931 -0.66168359 125.71156197 -0.65071106 124.3119812 C-0.6234047 120.51483026 -0.6082598 116.71771644 -0.59528303 112.92049313 C-0.57965526 108.9512856 -0.55286391 104.98215389 -0.5272522 101.01300049 C-0.48045813 93.49789395 -0.44371707 85.98277315 -0.41057932 78.46759534 C-0.37236237 69.91139122 -0.32295109 61.35526324 -0.27259517 52.79912329 C-0.16926598 35.19947124 -0.08000879 17.59977273 0 0 Z " fill="#E6E7E8" transform="translate(197,38)"/>
<path d="M0 0 C1.08539063 -0.02449219 2.17078125 -0.04898438 3.2890625 -0.07421875 C9.57240998 -0.09726281 13.53573757 0.05099108 18.25 4.375 C20.71328846 8.0699327 20.94466527 11.08584582 20.25 15.375 C19.13342737 17.68096521 17.86597667 19.35502917 16.25 21.375 C17.054375 21.99375 17.85875 22.6125 18.6875 23.25 C21.25888041 25.38236424 22.12074225 26.10976544 22.453125 29.36328125 C22.62081632 37.67797565 22.62081632 37.67797565 19.25 41.375 C12.93830928 44.94586064 7.06847248 44.7941872 -0.0625 44.6875 C-1.15884766 44.69072266 -2.25519531 44.69394531 -3.38476562 44.69726562 C-11.48268634 44.64231366 -11.48268634 44.64231366 -13.75 42.375 C-13.95006302 39.38537897 -14.02972923 36.4903765 -14.015625 33.5 C-14.01753845 32.61973145 -14.0194519 31.73946289 -14.02142334 30.83251953 C-14.02278552 28.96972366 -14.01908682 27.10691831 -14.01074219 25.24414062 C-14.00004307 22.38650264 -14.01063632 19.52949334 -14.0234375 16.671875 C-14.02211591 14.86458194 -14.01955353 13.05728927 -14.015625 11.25 C-14.01967346 10.39164551 -14.02372192 9.53329102 -14.02789307 8.64892578 C-13.94649714 -1.60540105 -8.62220541 0.01009626 0 0 Z " fill="#FAFDFE" transform="translate(147.75,92.625)"/>
<path d="M0 0 C3.76714784 0.91881655 5.43498493 3.56557288 7.5625 6.625 C8.79474219 9.0905094 9.88142631 11.45239041 10.89453125 14 C11.1760051 14.68755371 11.45747894 15.37510742 11.7474823 16.08349609 C12.33500812 17.52678985 12.91708451 18.97231302 13.49389648 20.41992188 C14.37513829 22.62534608 15.27900285 24.82049866 16.18554688 27.015625 C16.75658398 28.42652735 17.32629163 29.83796865 17.89453125 31.25 C18.29754204 32.22525635 18.29754204 32.22525635 18.70869446 33.22021484 C20.25527294 37.15328293 21.02490633 40.40259172 20.5625 44.625 C18.5625 46.625 18.5625 46.625 16.1875 46.75 C12.56364556 45.19691952 11.86003263 43.01606909 10.26171875 39.53515625 C9.5625 37.625 9.5625 37.625 9.5625 35.625 C3.2925 35.625 -2.9775 35.625 -9.4375 35.625 C-9.9325 38.1 -9.9325 38.1 -10.4375 40.625 C-11.39144836 42.64737052 -12.38285351 44.6532696 -13.4375 46.625 C-15.4175 46.295 -17.3975 45.965 -19.4375 45.625 C-21.11461271 40.70139411 -19.44794326 37.001194 -17.61328125 32.40234375 C-17.31060837 31.61984756 -17.00793549 30.83735138 -16.6960907 30.03114319 C-16.05400906 28.3805569 -15.40556773 26.73243232 -14.7512207 25.08666992 C-13.75458989 22.57407155 -12.78323109 20.0527457 -11.81445312 17.52929688 C-11.18638656 15.92389516 -10.55687656 14.31905725 -9.92578125 12.71484375 C-9.63705643 11.96371811 -9.3483316 11.21259247 -9.05085754 10.43870544 C-7.14952185 5.71043226 -5.33392262 1.36767247 0 0 Z " fill="#FEF9FB" transform="translate(66.4375,91.375)"/>
<path d="M0 0 C0.33 0 0.66 0 1 0 C1.07007519 18.55850512 1.12298087 37.1169834 1.15543652 55.67559338 C1.17090666 64.29264434 1.19199898 72.90961312 1.22631836 81.52661133 C1.25621623 89.03702309 1.27557393 96.54737532 1.28226548 104.05784494 C1.2861771 108.03474916 1.29537291 112.01148309 1.31719017 115.98833275 C1.3375615 119.73197029 1.34383254 123.47536747 1.33932304 127.21905518 C1.34054111 129.24704555 1.35667986 131.27500978 1.3732605 133.30293274 C1.36913651 134.51303009 1.36501251 135.72312744 1.36076355 136.96989441 C1.36352893 138.01981662 1.36629431 139.06973883 1.36914349 140.15147686 C0.81650361 144.41596351 -0.87202773 147.05317325 -4.13745117 149.79418945 C-8.09503506 151.46126893 -11.55103253 151.37467067 -15.80078125 151.29296875 C-16.63715622 151.28872391 -17.47353119 151.28447906 -18.33525085 151.28010559 C-20.99466765 151.26337364 -23.653314 151.22573226 -26.3125 151.1875 C-28.12043173 151.17244604 -29.92837539 151.15875888 -31.73632812 151.14648438 C-36.15784689 151.11348816 -40.57879302 151.06174428 -45 151 C-45 150.01 -45 149.02 -45 148 C-43.90010742 147.98541748 -42.80021484 147.97083496 -41.66699219 147.95581055 C-37.58153977 147.8977853 -33.49663609 147.82055294 -29.41162109 147.73754883 C-27.64445917 147.70431931 -25.87719161 147.67628118 -24.10986328 147.65356445 C-21.56757649 147.61998169 -19.02625592 147.56766549 -16.484375 147.51171875 C-15.30134796 147.50213387 -15.30134796 147.50213387 -14.09442139 147.49235535 C-9.73127304 147.37571949 -7.1292514 147.10912991 -4 144 C-3.39542444 141.70555774 -3.39542444 141.70555774 -3.48101807 139.08357239 C-3.46014885 137.56283867 -3.46014885 137.56283867 -3.43885803 136.01138306 C-3.44640358 134.34442886 -3.44640358 134.34442886 -3.45410156 132.64379883 C-3.43859505 130.88749901 -3.43859505 130.88749901 -3.42277527 129.09571838 C-3.39831634 125.88509962 -3.39151133 122.67502077 -3.39249516 119.4643271 C-3.38936907 116.1089985 -3.36375733 112.75384404 -3.34051514 109.39860535 C-3.29992798 103.04508305 -3.27960815 96.69166346 -3.26654124 90.33803147 C-3.24912464 82.39517794 -3.2047059 74.45250539 -3.16015625 66.50976562 C-3.08079874 52.33984857 -3.04234329 38.17018337 -3 24 C-26.43 24 -49.86 24 -74 24 C-74 23.67 -74 23.34 -74 23 C-73.11494781 22.99191315 -72.22989563 22.98382629 -71.31802368 22.97549438 C-62.98918189 22.8976485 -54.66050394 22.81038849 -46.33187294 22.71247292 C-42.04973229 22.66246419 -37.76761686 22.61613478 -33.48535156 22.578125 C-29.35499783 22.5413297 -25.22485282 22.4949859 -21.09467697 22.44193649 C-19.516612 22.42336181 -17.93850223 22.40826528 -16.36037064 22.39665604 C-14.15490457 22.37984573 -11.94991977 22.35082465 -9.74462891 22.31884766 C-8.48776276 22.30552399 -7.23089661 22.29220032 -5.9359436 22.2784729 C-2.87825895 22.30304447 -2.87825895 22.30304447 -1 20 C-0.63047951 17.87139338 -0.63047951 17.87139338 -0.5859375 15.4296875 C-0.54726562 14.53378906 -0.50859375 13.63789062 -0.46875 12.71484375 C-0.4378125 11.77769531 -0.406875 10.84054688 -0.375 9.875 C-0.33632812 8.93011719 -0.29765625 7.98523437 -0.2578125 7.01171875 C-0.16338654 4.67467625 -0.07781606 2.33764499 0 0 Z " fill="#3F3769" transform="translate(196,37)"/>
<path d="M0 0 C0.33 0 0.66 0 1 0 C1.00238835 0.6156825 1.00477671 1.23136499 1.00723743 1.86570454 C1.06634196 16.83816918 1.14186257 31.81045294 1.23571491 46.78273487 C1.28070405 54.02319192 1.32011139 61.26359944 1.34643555 68.50415039 C1.36939053 74.81412031 1.40276023 81.1239339 1.44870156 87.4337799 C1.47266787 90.77564334 1.49137415 94.11735163 1.49761391 97.45929909 C1.50719124 101.18770201 1.53517478 104.91553488 1.56762695 108.64379883 C1.56619186 109.75510162 1.56475677 110.86640442 1.5632782 112.01138306 C1.57581635 113.02520554 1.58835449 114.03902802 1.60127258 115.08357239 C1.60588155 115.96572827 1.61049051 116.84788416 1.61523914 117.75677204 C2.08287673 120.48318688 2.7901601 121.3757116 5 123 C8.00800854 123.47545104 8.00800854 123.47545104 11.4909668 123.43237305 C12.1448941 123.4425647 12.79882141 123.45275635 13.4725647 123.46325684 C15.63153611 123.49342337 17.79006414 123.50265781 19.94921875 123.51171875 C21.44710265 123.52856283 22.94497239 123.54671271 24.44282532 123.56611633 C28.38338802 123.61365237 32.32389332 123.64343814 36.26464844 123.66955566 C40.28657367 123.6993432 44.30830104 123.74587966 48.33007812 123.79101562 C56.21995496 123.87708963 64.10984974 123.94441641 72 124 C72.1204921 123.20173294 72.24098419 122.40346588 72.36512756 121.58100891 C73.51717702 114.01186165 74.74882919 106.46129964 76.05859375 98.91796875 C76.24841324 97.82011551 76.43823273 96.72226227 76.63380432 95.59114075 C77.03237604 93.28778995 77.43154711 90.98454278 77.83129883 88.68139648 C78.43420046 85.20651721 79.0346176 81.73121516 79.63476562 78.25585938 C80.57736732 72.8048068 81.53047749 67.35567831 82.49041748 61.90765381 C82.96183613 59.21776124 83.42335787 56.5263456 83.88330078 53.83447266 C84.14166876 52.3648061 84.40057186 50.89523345 84.66015625 49.42578125 C84.87422119 48.18868408 85.08828613 46.95158691 85.30883789 45.67700195 C85.53692139 44.79359131 85.76500488 43.91018066 86 43 C86.66 42.67 87.32 42.34 88 42 C91.33480602 48.66961204 88.03596963 58.02250346 86.66421509 64.96554565 C86.10056807 67.8189957 85.55305256 70.67546504 85.00495911 73.53193665 C84.72852341 74.97258271 84.45133386 76.41308432 84.17338562 77.85343933 C82.98287861 84.03619986 81.87653363 90.23170547 80.8125 96.4375 C80.65587891 97.34902832 80.49925781 98.26055664 80.33789062 99.19970703 C80.03747118 100.95076887 79.73748664 102.70190539 79.43798828 104.453125 C78.72193586 108.61692593 77.98643676 112.77726399 77.25 116.9375 C76.8375 119.268125 76.425 121.59875 76 124 C84.58 124 93.16 124 102 124 C101.505 125.485 101.505 125.485 101 127 C88.43922351 127.1158215 75.87857394 127.20467903 63.31737232 127.25906086 C57.48474588 127.28516077 51.65248462 127.32056691 45.82006836 127.37719727 C40.19202266 127.43150164 34.56432834 127.46141756 28.93604088 127.47438622 C26.78818924 127.48362882 24.64035696 127.50167751 22.4926548 127.52865028 C19.4853209 127.56491891 16.47944104 127.56994616 13.47192383 127.56762695 C12.58287857 127.58560333 11.69383331 127.60357971 10.77784729 127.62210083 C6.72909477 127.58828939 4.48328763 127.28408512 0.93774414 125.19995117 C-2.02430648 120.30848115 -1.61238459 115.84389173 -1.47583008 110.2331543 C-1.46680664 109.04248856 -1.4577832 107.85182281 -1.44848633 106.62507629 C-1.41888853 103.36868968 -1.36696435 100.11358424 -1.3050406 96.85768104 C-1.2455677 93.45193315 -1.21472916 90.04592795 -1.18083191 86.6398468 C-1.11234147 80.19393421 -1.01816176 73.74866419 -0.91471261 67.3032282 C-0.79816702 59.96369404 -0.71031845 52.62390381 -0.62486041 45.28395212 C-0.44846759 30.18879946 -0.23610091 15.09434571 0 0 Z " fill="#4B2F64" transform="translate(24,61)"/>
<path d="M0 0 C0.97248041 -0.00807831 0.97248041 -0.00807831 1.96460688 -0.01631981 C4.14111689 -0.03064884 6.31702292 -0.02348389 8.49356079 -0.01637268 C10.05237824 -0.02207377 11.61119151 -0.02903701 13.16999817 -0.03717041 C17.40768435 -0.05514784 21.64516398 -0.05392466 25.88287687 -0.04822803 C29.41919344 -0.0451422 32.95546999 -0.05122199 36.49178088 -0.05726677 C44.83469305 -0.07132598 53.17750287 -0.06973966 61.52041626 -0.05836487 C70.1291012 -0.04688711 78.73747448 -0.0609503 87.34611833 -0.08776134 C94.73475318 -0.10991172 102.12329016 -0.11655708 109.51195586 -0.11068493 C113.92588676 -0.10731196 118.33961795 -0.10975266 122.75352097 -0.12693596 C126.90522047 -0.14239213 131.05645825 -0.1384646 135.20813942 -0.11963081 C136.73152007 -0.11594094 138.25493481 -0.11906504 139.77828407 -0.1295166 C141.8591517 -0.14270257 143.93848544 -0.13120312 146.01928711 -0.11352539 C147.76530999 -0.11321146 147.76530999 -0.11321146 149.54660606 -0.1128912 C153.2518781 0.48734828 154.93953065 1.84278728 157.6366272 4.38768005 C157.3066272 5.37768005 156.9766272 6.36768005 156.6366272 7.38768005 C155.6466272 6.72768005 154.6566272 6.06768005 153.6366272 5.38768005 C150.64849761 5.08430858 150.64849761 5.08430858 147.18386841 5.13371277 C146.5259699 5.13059279 145.86807139 5.12747281 145.19023657 5.12425828 C142.98152095 5.11626879 140.77307934 5.12260549 138.56436157 5.12889099 C136.98259825 5.12618155 135.4008362 5.12262088 133.81907654 5.11827087 C129.51957174 5.10913905 125.22016272 5.11269438 120.9206562 5.11902905 C116.42570865 5.12408493 111.93076941 5.11939874 107.43582153 5.11625671 C99.88669356 5.11261587 92.3376047 5.11741927 84.78848267 5.12693787 C76.05487544 5.13782265 67.32136159 5.13429715 58.58775663 5.12328506 C51.09555877 5.11421555 43.60338904 5.11292525 36.11118746 5.11816239 C31.63366445 5.12128395 27.15618536 5.12168635 22.67866516 5.11508942 C18.46963304 5.10932148 14.26072156 5.11330269 10.0517025 5.12487793 C8.50490711 5.12752748 6.9581016 5.12675441 5.4113102 5.1223526 C3.30386402 5.11690723 1.19680719 5.12371865 -0.91061401 5.13371277 C-2.09122154 5.13446682 -3.27182907 5.13522087 -4.48821259 5.13599777 C-7.56177114 5.17325761 -7.56177114 5.17325761 -10.3633728 7.38768005 C-9.25044071 0.9326739 -6.22229822 0.01299754 0 0 Z " fill="#ECECF0" transform="translate(35.363372802734375,32.61231994628906)"/>
<path d="M0 0 C0.65901094 -0.00438225 1.31802187 -0.00876451 1.99700284 -0.01327956 C4.21555438 -0.02668381 6.43406617 -0.03285005 8.65264893 -0.03897095 C10.23924948 -0.04687067 11.82584822 -0.05513954 13.41244507 -0.06375122 C18.63214396 -0.0899875 23.85185094 -0.10528096 29.07159424 -0.11953735 C30.86750545 -0.12489647 32.6634166 -0.13027398 34.4593277 -0.13566971 C41.92942484 -0.15730124 49.3995198 -0.1760382 56.86964035 -0.1872921 C67.57977184 -0.20353244 78.28954059 -0.23670901 88.99953532 -0.29369295 C96.52742036 -0.33238195 104.05520834 -0.35192358 111.5831902 -0.35721266 C116.08053487 -0.36086772 120.57749278 -0.37290489 125.07472992 -0.4053154 C129.30687435 -0.43537772 133.53839766 -0.44171466 137.77062607 -0.42993164 C139.3226363 -0.42971075 140.8746752 -0.43802916 142.42658615 -0.45558548 C155.62251247 -0.59672214 155.62251247 -0.59672214 159.61975098 2.69036865 C160.2896405 3.50333405 160.95953003 4.31629944 161.64971924 5.15390015 C160.98971924 6.14390015 160.32971924 7.13390015 159.64971924 8.15390015 C158.79868213 7.50409872 157.94764502 6.85429729 157.0708189 6.18480492 C153.25279682 3.91827075 151.3001134 3.65531335 146.91212463 3.65942383 C146.25982996 3.654595 145.60753528 3.64976617 144.9354741 3.64479101 C142.76339115 3.63357522 140.59250011 3.65079504 138.42047119 3.6680603 C136.85796796 3.6659131 135.29546629 3.66203341 133.73297119 3.65655518 C129.49963091 3.64687919 125.26671374 3.66214137 121.03342462 3.68246126 C116.6025646 3.70005019 112.17171728 3.69650688 107.74082947 3.69573975 C100.30373059 3.69761134 92.86679518 3.71495913 85.42974854 3.74227905 C76.82728542 3.77376301 68.22500107 3.78427398 59.62248451 3.78280795 C51.34751739 3.78158813 43.07260854 3.79178995 34.79765892 3.80839157 C31.27499118 3.81545835 27.75234406 3.81911821 24.22966957 3.82017899 C20.0854168 3.8221852 15.94131461 3.83437288 11.79711151 3.85451126 C10.27450927 3.86036151 8.7518897 3.86281194 7.22927666 3.86165619 C5.15481106 3.86067725 3.08076952 3.87196078 1.00636292 3.88647461 C-0.15559947 3.8898263 -1.31756186 3.89317799 -2.51473522 3.89663124 C-5.55391318 3.94497598 -5.55391318 3.94497598 -8.35028076 6.15390015 C-8.35028076 4.50390015 -8.35028076 2.85390015 -8.35028076 1.15390015 C-5.52625638 -0.25811205 -3.1595989 0.01485749 0 0 Z " fill="#2D1B59" transform="translate(34.35028076171875,29.846099853515625)"/>
<path d="M0 0 C2.43816585 -0.0809723 4.87364384 -0.14046972 7.3125 -0.1875 C8.34793945 -0.22520508 8.34793945 -0.22520508 9.40429688 -0.26367188 C14.50115853 -0.33753944 14.50115853 -0.33753944 16.95703125 1.32421875 C18.59458124 3.9553384 18.3771701 5.98263922 18 9 C16.95703125 10.67578125 16.95703125 10.67578125 15 12 C12.35003674 12.2172101 9.94923442 12.28351554 7.3125 12.1875 C6.2596582 12.16719727 6.2596582 12.16719727 5.18554688 12.14648438 C3.45670171 12.11120182 1.72825235 12.05739583 0 12 C0 8.04 0 4.08 0 0 Z " fill="#6DC9F7" transform="translate(143,118)"/>
<path d="M0 0 C2.29141286 -0.05384521 4.58318188 -0.09272087 6.875 -0.125 C8.78925781 -0.15980469 8.78925781 -0.15980469 10.7421875 -0.1953125 C14 0 14 0 16 2 C16.3125 5.5 16.3125 5.5 16 9 C12.36804504 11.42130331 10.61650652 11.21022785 6.3125 11.125 C5.13300781 11.10695313 3.95351562 11.08890625 2.73828125 11.0703125 C1.83464844 11.04710938 0.93101562 11.02390625 0 11 C0 7.37 0 3.74 0 0 Z " fill="#6EC9F7" transform="translate(143,100)"/>
<path d="M0 0 C3.16074764 1.58037382 3.54298175 4.76378948 4.625 7.9375 C4.85445312 8.58396484 5.08390625 9.23042969 5.3203125 9.89648438 C7 14.71058873 7 14.71058873 7 17 C2.71 17 -1.58 17 -6 17 C-4.31108451 11.12900806 -2.53630629 5.55571853 0 0 Z " fill="#FA79A1" transform="translate(66,103)"/>
<path d="M0 0 C0.99 0.33 1.98 0.66 3 1 C2.43877278 4.25511789 1.66879905 5.99840071 -1 8 C-5.36724556 9.22595583 -9.65725961 9.04289333 -14.14453125 8.87890625 C-14.91431808 8.85529526 -15.68410492 8.83168427 -16.47721863 8.80735779 C-18.92251905 8.73112309 -21.36747011 8.6469275 -23.8125 8.5625 C-25.47589468 8.50923899 -27.13930613 8.4564989 -28.80273438 8.40429688 C-32.86870849 8.2755628 -36.93438818 8.13969106 -41 8 C-41 7.67 -41 7.34 -41 7 C-29.12 7 -17.24 7 -5 7 C-5 6.34 -5 5.68 -5 5 C-3.37446717 3.29319053 -1.70884005 1.62339805 0 0 Z " fill="#3B2D62" transform="translate(193,179)"/>
<path d="M0 0 C2.79736328 -0.2487793 2.79736328 -0.2487793 6.3203125 -0.07421875 C8.20556641 0.00795898 8.20556641 0.00795898 10.12890625 0.09179688 C11.46095566 0.16503502 12.79298675 0.23860706 14.125 0.3125 C15.46477825 0.37575203 16.80462269 0.43761834 18.14453125 0.49804688 C21.4305942 0.65171169 24.71531242 0.81962333 28 1 C28 1.66 28 2.32 28 3 C18.1 3 8.2 3 -2 3 C-1.34 2.01 -0.68 1.02 0 0 Z " fill="#38255B" transform="translate(98,184)"/>
<path d="M0 0 C2.625 -0.1875 2.625 -0.1875 5 0 C6.125 2.3125 6.125 2.3125 7 5 C6.01 6.485 6.01 6.485 5 8 C2.375 8.1875 2.375 8.1875 0 8 C-1.125 5.6875 -1.125 5.6875 -2 3 C-1.34 2.01 -0.68 1.02 0 0 Z " fill="#ECD1E5" transform="translate(162,41)"/>
<path d="M0 0 C2.625 0.375 2.625 0.375 5 1 C5.625 3.375 5.625 3.375 6 6 C4 8 4 8 1.375 8.125 C0.59125 8.08375 -0.1925 8.0425 -1 8 C-1.625 5.125 -1.625 5.125 -2 2 C-1.34 1.34 -0.68 0.68 0 0 Z " fill="#CCF6FE" transform="translate(146,41)"/>
<path d="M0 0 C2.625 0.375 2.625 0.375 5 1 C5.625 3.375 5.625 3.375 6 6 C5.34 6.66 4.68 7.32 4 8 C1.375 7.625 1.375 7.625 -1 7 C-1.625 4.625 -1.625 4.625 -2 2 C-1.34 1.34 -0.68 0.68 0 0 Z " fill="#F3749E" transform="translate(179,41)"/>
<path d="M0 0 C5.28 0 10.56 0 16 0 C15.67 0.99 15.34 1.98 15 3 C10.38 3 5.76 3 1 3 C0.67 2.01 0.34 1.02 0 0 Z " fill="#34225B" transform="translate(130,185)"/>
<path d="M0 0 C1.32 0 2.64 0 4 0 C3.34 4.95 2.68 9.9 2 15 C0.68 14.34 -0.64 13.68 -2 13 C-1.34 8.71 -0.68 4.42 0 0 Z " fill="#413266" transform="translate(115,77)"/>
<path d="M0 0 C3.91402949 1.26941497 5.79072873 2.51167694 8 6 C7.34 6.66 6.68 7.32 6 8 C3 6.25 3 6.25 0 4 C0 2.68 0 1.36 0 0 Z " fill="#443668" transform="translate(188,30)"/>
<path d="M0 0 C0.33 0 0.66 0 1 0 C0.67 3.3 0.34 6.6 0 10 C-0.99 10.33 -1.98 10.66 -3 11 C-2.88590407 9.54077307 -2.75834456 8.08259402 -2.625 6.625 C-2.55539063 5.81289062 -2.48578125 5.00078125 -2.4140625 4.1640625 C-2 2 -2 2 0 0 Z " fill="#37275D" transform="translate(108,128)"/>
<path d="M0 0 C0.99 0.33 1.98 0.66 3 1 C2.67 3.64 2.34 6.28 2 9 C1.01 9.33 0.02 9.66 -1 10 C-0.67 6.7 -0.34 3.4 0 0 Z " fill="#36275D" transform="translate(117,68)"/>
<path d="M0 0 C-0.33 3.3 -0.66 6.6 -1 10 C-2.88343932 6.23312136 -3.22057835 4.97041037 -3 1 C-1 0 -1 0 0 0 Z " fill="#34255B" transform="translate(116,89)"/>
<path d="M0 0 C0.66 0.33 1.32 0.66 2 1 C2.40729228 3.32156597 2.74438677 5.6568787 3 8 C1.68 8 0.36 8 -1 8 C-0.67 5.36 -0.34 2.72 0 0 Z " fill="#473568" transform="translate(101,155)"/>
<path d="M0 0 C0.33 0 0.66 0 1 0 C0.67 3.3 0.34 6.6 0 10 C-2.08120514 5.83758971 -2.24191133 5.17733811 -1 1 C-0.67 0.67 -0.34 0.34 0 0 Z " fill="#35255B" transform="translate(104,150)"/>
<path d="M0 0 C0.99 0 1.98 0 3 0 C2.67 2.64 2.34 5.28 2 8 C1.34 7.67 0.68 7.34 0 7 C0 4.69 0 2.38 0 0 Z " fill="#34255B" transform="translate(109,113)"/>
<path d="M0 0 C0.99 0.33 1.98 0.66 3 1 C1.35 2.65 -0.3 4.3 -2 6 C-2 4.35 -2 2.7 -2 1 C-1.34 0.67 -0.68 0.34 0 0 Z " fill="#47396A" transform="translate(28,30)"/>
</svg>
