<?xml version="1.0" encoding="UTF-8"?>
<svg version="1.1" xmlns="http://www.w3.org/2000/svg" width="225" height="225">
<path d="M0 0 C74.25 0 148.5 0 225 0 C225 74.25 225 148.5 225 225 C150.75 225 76.5 225 0 225 C0 150.75 0 76.5 0 0 Z " fill="#FEFEFE" transform="translate(0,0)"/>
<path d="M0 0 C1.64379639 0.00749268 1.64379639 0.00749268 3.32080078 0.01513672 C22.80263203 0.43061922 39.5829291 8.77132882 53.09765625 22.80859375 C64.365616 36.03053495 70.86897942 53.38422814 70.25390625 70.8046875 C68.6206457 86.73318734 63.86387203 100.78689014 53.875 113.5 C58.23232883 118.82562413 62.95826398 123.6446153 67.91113281 128.41113281 C69.26872661 129.73793053 70.57648106 131.11533337 71.875 132.5 C71.875 133.16 71.875 133.82 71.875 134.5 C72.535 134.17 73.195 133.84 73.875 133.5 C76.046875 133.26171875 76.046875 133.26171875 78.625 133.1875 C79.46546875 133.15011719 80.3059375 133.11273438 81.171875 133.07421875 C88.66860788 134.25506251 94.04773064 141.37359578 99.125 146.5 C99.9396875 147.30695313 100.754375 148.11390625 101.59375 148.9453125 C102.37234375 149.72648438 103.1509375 150.50765625 103.953125 151.3125 C104.65856445 152.02019531 105.36400391 152.72789062 106.09082031 153.45703125 C109.92335362 157.84546019 110.2584449 161.4223419 110.125 167.09375 C109.67644283 171.4111128 107.98961492 173.52048992 104.8125 176.3125 C100.55513879 178.03356092 96.39301029 178.36283806 91.875 177.5 C85.87840556 174.29212138 81.37288138 169.29382862 76.625 164.5 C75.8103125 163.69304687 74.995625 162.88609375 74.15625 162.0546875 C73.37765625 161.27351562 72.5990625 160.49234375 71.796875 159.6875 C71.09143555 158.97980469 70.38599609 158.27210938 69.65917969 157.54296875 C66.51401192 153.94160533 65.60786248 151.24929236 65.6875 146.5 C65.69716797 145.2315625 65.69716797 145.2315625 65.70703125 143.9375 C65.875 141.5 65.875 141.5 66.62548828 139.61816406 C67.13555034 137.3552446 67.13555034 137.3552446 65.33618164 135.39355469 C64.57684326 134.66040039 63.81750488 133.92724609 63.03515625 133.171875 C62.21982422 132.37265625 61.40449219 131.5734375 60.56445312 130.75 C59.69755859 129.925 58.83066406 129.1 57.9375 128.25 C57.07447266 127.40953125 56.21144531 126.5690625 55.32226562 125.703125 C53.18389685 123.62382718 51.03475911 121.55703385 48.875 119.5 C48.28114502 119.89687012 47.68729004 120.29374023 47.07543945 120.70263672 C37.56575615 127.05145571 28.98514955 132.37438248 17.875 135.5 C17.25915039 135.67805176 16.64330078 135.85610352 16.00878906 136.03955078 C-0.83407344 140.63866331 -18.63741425 136.70055853 -33.7421875 128.59765625 C-50.69280955 118.0867047 -61.37610983 102.84664616 -66.49658203 83.52392578 C-67.55418892 78.4347576 -67.65668932 73.43381057 -67.625 68.25 C-67.61927979 67.15534424 -67.61355957 66.06068848 -67.60766602 64.93286133 C-67.20159614 46.43002078 -59.04689242 31.48990238 -46.125 18.5 C-45.53460938 17.87480469 -44.94421875 17.24960937 -44.3359375 16.60546875 C-40.14717467 12.51819577 -35.42657959 9.87774819 -30.25 7.25 C-29.60216553 6.9204834 -28.95433105 6.5909668 -28.28686523 6.25146484 C-18.9612802 1.72470662 -10.36343183 -0.062286 0 0 Z " fill="#FAFAFA" transform="translate(91.125,23.5)"/>
<path d="M0 0 C1.64379639 0.00749268 1.64379639 0.00749268 3.32080078 0.01513672 C22.80263203 0.43061922 39.5829291 8.77132882 53.09765625 22.80859375 C64.365616 36.03053495 70.86897942 53.38422814 70.25390625 70.8046875 C68.6206457 86.73318734 63.86387203 100.78689014 53.875 113.5 C58.23232883 118.82562413 62.95826398 123.6446153 67.91113281 128.41113281 C69.26872661 129.73793053 70.57648106 131.11533337 71.875 132.5 C71.875 133.16 71.875 133.82 71.875 134.5 C72.535 134.17 73.195 133.84 73.875 133.5 C76.046875 133.26171875 76.046875 133.26171875 78.625 133.1875 C79.46546875 133.15011719 80.3059375 133.11273438 81.171875 133.07421875 C88.66860788 134.25506251 94.04773064 141.37359578 99.125 146.5 C99.9396875 147.30695313 100.754375 148.11390625 101.59375 148.9453125 C102.37234375 149.72648438 103.1509375 150.50765625 103.953125 151.3125 C104.65856445 152.02019531 105.36400391 152.72789062 106.09082031 153.45703125 C109.92335362 157.84546019 110.2584449 161.4223419 110.125 167.09375 C109.67644283 171.4111128 107.98961492 173.52048992 104.8125 176.3125 C100.55513879 178.03356092 96.39301029 178.36283806 91.875 177.5 C85.87840556 174.29212138 81.37288138 169.29382862 76.625 164.5 C75.8103125 163.69304687 74.995625 162.88609375 74.15625 162.0546875 C73.37765625 161.27351562 72.5990625 160.49234375 71.796875 159.6875 C71.09143555 158.97980469 70.38599609 158.27210938 69.65917969 157.54296875 C66.51401192 153.94160533 65.60786248 151.24929236 65.6875 146.5 C65.69716797 145.2315625 65.69716797 145.2315625 65.70703125 143.9375 C65.875 141.5 65.875 141.5 66.62548828 139.61816406 C67.13555034 137.3552446 67.13555034 137.3552446 65.33618164 135.39355469 C64.57684326 134.66040039 63.81750488 133.92724609 63.03515625 133.171875 C62.21982422 132.37265625 61.40449219 131.5734375 60.56445312 130.75 C59.69755859 129.925 58.83066406 129.1 57.9375 128.25 C57.07447266 127.40953125 56.21144531 126.5690625 55.32226562 125.703125 C53.18389685 123.62382718 51.03475911 121.55703385 48.875 119.5 C48.28114502 119.89687012 47.68729004 120.29374023 47.07543945 120.70263672 C37.56575615 127.05145571 28.98514955 132.37438248 17.875 135.5 C17.25915039 135.67805176 16.64330078 135.85610352 16.00878906 136.03955078 C-0.83407344 140.63866331 -18.63741425 136.70055853 -33.7421875 128.59765625 C-50.69280955 118.0867047 -61.37610983 102.84664616 -66.49658203 83.52392578 C-67.55418892 78.4347576 -67.65668932 73.43381057 -67.625 68.25 C-67.61927979 67.15534424 -67.61355957 66.06068848 -67.60766602 64.93286133 C-67.20159614 46.43002078 -59.04689242 31.48990238 -46.125 18.5 C-45.53460938 17.87480469 -44.94421875 17.24960937 -44.3359375 16.60546875 C-40.14717467 12.51819577 -35.42657959 9.87774819 -30.25 7.25 C-29.60216553 6.9204834 -28.95433105 6.5909668 -28.28686523 6.25146484 C-18.9612802 1.72470662 -10.36343183 -0.062286 0 0 Z M-44.125 25.5 C-44.75148438 26.09167969 -45.37796875 26.68335937 -46.0234375 27.29296875 C-50.14202308 31.51405307 -52.78995028 36.28340419 -55.4375 41.5 C-55.77539551 42.16459229 -56.11329102 42.82918457 -56.46142578 43.51391602 C-62.76381367 56.49364398 -63.50415916 72.93653023 -59.4375 86.75 C-58.71377923 88.6849479 -57.94594826 90.60425764 -57.125 92.5 C-56.774375 93.36367187 -56.42375 94.22734375 -56.0625 95.1171875 C-48.82264222 111.25603714 -35.14476756 121.88199766 -19.125 128.5 C-3.46633576 133.73812967 12.39619002 132.37439015 27.42578125 125.9921875 C34.93421975 122.1982644 40.97551371 117.4641973 46.875 111.5 C47.42542969 110.98308594 47.97585937 110.46617187 48.54296875 109.93359375 C58.84681718 99.35350274 63.77751282 83.03488335 64.3125 68.6875 C63.8480685 50.55447887 56.47983959 34.59829101 43.33984375 22.0859375 C37.04931096 16.67336396 30.53196725 12.68529838 22.875 9.5 C22.07320313 9.1596875 21.27140625 8.819375 20.4453125 8.46875 C-2.75833207 0.46238063 -27.38557207 8.84685779 -44.125 25.5 Z " fill="#161616" transform="translate(91.125,23.5)"/>
<path d="M0 0 C0.89460938 -0.00128906 1.78921875 -0.00257812 2.7109375 -0.00390625 C3.65195313 -0.00003906 4.59296875 0.00382812 5.5625 0.0078125 C6.97402344 0.00201172 6.97402344 0.00201172 8.4140625 -0.00390625 C9.75597656 -0.00197266 9.75597656 -0.00197266 11.125 0 C11.95128906 0.00112793 12.77757813 0.00225586 13.62890625 0.00341797 C15.5625 0.1328125 15.5625 0.1328125 16.5625 1.1328125 C16.66690176 3.02435126 16.70104891 4.91980313 16.70776367 6.81420898 C16.71414352 8.02894394 16.72052338 9.24367889 16.72709656 10.495224 C16.72862513 11.83145101 16.72973914 13.16767856 16.73046875 14.50390625 C16.73367973 15.86532121 16.73704368 17.22673581 16.74055481 18.58815002 C16.74655216 21.44557495 16.7483941 24.30296961 16.74780273 27.16040039 C16.74770109 30.82705501 16.76135258 34.49351606 16.77857494 38.16012478 C16.78967819 40.97305701 16.79172246 43.78594221 16.79119301 46.59889412 C16.79237569 47.95092498 16.79681353 49.30295697 16.80452538 50.65496635 C16.81429073 52.54395951 16.81019195 54.43300911 16.80541992 56.32202148 C16.80684494 57.3982225 16.80826996 58.47442352 16.80973816 59.58323669 C16.5625 62.1328125 16.5625 62.1328125 14.5625 64.1328125 C12.60717773 64.37573242 12.60717773 64.37573242 10.24609375 64.36328125 C9.39982422 64.36134766 8.55355469 64.35941406 7.68164062 64.35742188 C6.79669922 64.34517578 5.91175781 64.33292969 5 64.3203125 C4.11119141 64.31966797 3.22238281 64.31902344 2.30664062 64.31835938 C-4.29728903 64.27302347 -4.29728903 64.27302347 -5.4375 63.1328125 C-5.53670863 61.20519433 -5.56549365 59.27391896 -5.56689453 57.34375 C-5.57004669 56.1057666 -5.57319885 54.8677832 -5.57644653 53.59228516 C-5.57465675 52.23079391 -5.5726058 50.86930299 -5.5703125 49.5078125 C-5.57098559 48.12158186 -5.57195566 46.73535133 -5.57321167 45.34912109 C-5.5746884 42.44041828 -5.5725349 39.53174613 -5.56787109 36.62304688 C-5.56217381 32.88684652 -5.56545294 29.15071798 -5.57144356 25.41452026 C-5.57504985 22.55101984 -5.57391027 19.68753657 -5.57131577 16.82403564 C-5.57064668 15.44606518 -5.57147426 14.06809318 -5.57379532 12.69012451 C-5.57632292 10.76737496 -5.57179024 8.84461998 -5.56689453 6.921875 C-5.56609894 5.82568848 -5.56530334 4.72950195 -5.56448364 3.60009766 C-5.34918985 -0.58304877 -3.74507193 0.00511223 0 0 Z " fill="#101010" transform="translate(112.4375,66.8671875)"/>
<path d="M0 0 C0.77915771 0.00410889 1.55831543 0.00821777 2.36108398 0.01245117 C3.20735352 0.01438477 4.05362305 0.01631836 4.92553711 0.01831055 C5.81047852 0.03055664 6.69541992 0.04280273 7.60717773 0.05541992 C8.49598633 0.05606445 9.38479492 0.05670898 10.30053711 0.05737305 C16.90446676 0.10270895 16.90446676 0.10270895 18.04467773 1.24291992 C18.14329372 2.86419416 18.1726654 4.4897436 18.17407227 6.11401367 C18.17722443 7.15178955 18.18037659 8.18956543 18.18362427 9.25878906 C18.18160004 10.38792725 18.17957581 11.51706543 18.17749023 12.68041992 C18.17892532 14.40603149 18.17892532 14.40603149 18.1803894 16.16650391 C18.18107142 18.60441136 18.17921564 21.04232062 18.17504883 23.48022461 C18.16970091 27.2266851 18.17499313 30.97302569 18.18139648 34.71948242 C18.18073571 37.08146186 18.17945455 39.44344121 18.17749023 41.80541992 C18.17951447 42.93455811 18.1815387 44.06369629 18.18362427 45.22705078 C18.18047211 46.26482666 18.17731995 47.30260254 18.17407227 48.37182617 C18.17327667 49.29036377 18.17248108 50.20890137 18.17166138 51.15527344 C18.04467773 53.24291992 18.04467773 53.24291992 17.04467773 54.24291992 C13.90644324 54.49258559 10.75418161 54.42813783 7.60717773 54.43041992 C6.72223633 54.44266602 5.83729492 54.45491211 4.92553711 54.4675293 C4.07926758 54.46946289 3.23299805 54.47139648 2.36108398 54.47338867 C1.58192627 54.47749756 0.80276855 54.48160645 0 54.48583984 C-1.95532227 54.24291992 -1.95532227 54.24291992 -3.95532227 52.24291992 C-4.20928955 50.11767578 -4.20928955 50.11767578 -4.21411133 47.45776367 C-4.22041565 46.46333252 -4.22671997 45.46890137 -4.23321533 44.44433594 C-4.22916687 43.36724365 -4.22511841 42.29015137 -4.22094727 41.18041992 C-4.22286072 40.07819092 -4.22477417 38.97596191 -4.22674561 37.84033203 C-4.22810839 35.50675224 -4.22440549 33.17316489 -4.21606445 30.83959961 C-4.20536647 27.25772145 -4.21595685 23.67634489 -4.22875977 20.09448242 C-4.22743819 17.83146048 -4.22487583 15.56843884 -4.22094727 13.30541992 C-4.22499573 12.22832764 -4.22904419 11.15123535 -4.23321533 10.04150391 C-4.22691101 9.04707275 -4.22060669 8.0526416 -4.21411133 7.02807617 C-4.21252014 6.15030518 -4.21092896 5.27253418 -4.20928955 4.36816406 C-3.86241999 1.46549691 -2.94056885 0.36532226 0 0 Z " fill="#141414" transform="translate(59.955322265625,76.757080078125)"/>
<path d="M0 0 C0.84175781 -0.00257812 1.68351562 -0.00515625 2.55078125 -0.0078125 C3.87142578 0.00378906 3.87142578 0.00378906 5.21875 0.015625 C6.09917969 0.00789063 6.97960937 0.00015625 7.88671875 -0.0078125 C8.72847656 -0.00523438 9.57023437 -0.00265625 10.4375 0 C11.59668945 0.00338379 11.59668945 0.00338379 12.77929688 0.00683594 C14.71875 0.265625 14.71875 0.265625 16.71875 2.265625 C16.91865227 5.11102642 16.99851976 7.85700284 16.984375 10.703125 C16.98628845 11.53900146 16.9882019 12.37487793 16.99017334 13.23608398 C16.99153536 15.00472311 16.98783776 16.77337223 16.97949219 18.54199219 C16.96879275 21.25478494 16.97938676 23.96691544 16.9921875 26.6796875 C16.99086591 28.3958348 16.98830352 30.11198169 16.984375 31.828125 C16.98842346 32.64273193 16.99247192 33.45733887 16.99664307 34.29663086 C16.94866928 40.03570572 16.94866928 40.03570572 14.71875 42.265625 C12.77929687 42.52441406 12.77929687 42.52441406 10.4375 42.53125 C9.59574219 42.53382813 8.75398438 42.53640625 7.88671875 42.5390625 C7.00628906 42.53132813 6.12585938 42.52359375 5.21875 42.515625 C4.33832031 42.52335937 3.45789063 42.53109375 2.55078125 42.5390625 C1.70902344 42.53648437 0.86726563 42.53390625 0 42.53125 C-0.77279297 42.52899414 -1.54558594 42.52673828 -2.34179688 42.52441406 C-4.28125 42.265625 -4.28125 42.265625 -6.28125 40.265625 C-6.48115227 37.42022358 -6.56101976 34.67424716 -6.546875 31.828125 C-6.54878845 30.99224854 -6.5507019 30.15637207 -6.55267334 29.29516602 C-6.55403536 27.52652689 -6.55033776 25.75787777 -6.54199219 23.98925781 C-6.53129275 21.27646506 -6.54188676 18.56433456 -6.5546875 15.8515625 C-6.55336591 14.1354152 -6.55080352 12.41926831 -6.546875 10.703125 C-6.55092346 9.88851807 -6.55497192 9.07391113 -6.55914307 8.23461914 C-6.51065439 2.43394817 -6.09731757 0.01779868 0 0 Z " fill="#3D3D3D" transform="translate(87.28125,88.734375)"/>
<path d="M0 0 C6.17862384 0.39438025 12.50242841 2.50242841 17 7 C16.60598115 13.17296201 14.43950205 18.36077898 12 24 C10.35 24 8.7 24 7 24 C6.06576355 20.98968256 5.95550089 20.13349732 7 17 C5.96359375 17.58910156 4.9271875 18.17820312 3.859375 18.78515625 C2.48993882 19.54491194 1.12012733 20.30399143 -0.25 21.0625 C-1.27287109 21.64741211 -1.27287109 21.64741211 -2.31640625 22.24414062 C-2.98027344 22.60830078 -3.64414063 22.97246094 -4.328125 23.34765625 C-4.9355957 23.68804932 -5.54306641 24.02844238 -6.16894531 24.37915039 C-8.50777322 25.17216897 -9.71476071 24.87015793 -12 24 C-13.91575875 22.05063145 -15.53106737 19.96045972 -17.21875 17.8125 C-19.26850643 15.72678293 -20.12071366 15.297979 -23 15 C-25.39787294 15.97940362 -25.39787294 15.97940362 -27.80859375 17.5625 C-28.72060547 18.11164062 -29.63261719 18.66078125 -30.57226562 19.2265625 C-32.4795984 20.40710658 -34.38585322 21.58939406 -36.29101562 22.7734375 C-37.20431641 23.32257813 -38.11761719 23.87171875 -39.05859375 24.4375 C-39.88673584 24.95183594 -40.71487793 25.46617188 -41.56811523 25.99609375 C-44.49409203 27.20396611 -46.01487964 26.89936105 -49 26 C-48.83691406 23.72192383 -48.83691406 23.72192383 -48 21 C-45.67089844 19.1472168 -45.67089844 19.1472168 -42.609375 17.44921875 C-40.95615234 16.52592773 -40.95615234 16.52592773 -39.26953125 15.58398438 C-38.10808594 14.95814453 -36.94664063 14.33230469 -35.75 13.6875 C-34.60402344 13.04232422 -33.45804688 12.39714844 -32.27734375 11.73242188 C-22.55272547 6.38331578 -22.55272547 6.38331578 -18 7 C-15.97265625 9.00390625 -15.97265625 9.00390625 -14.0625 11.5625 C-11.25702582 15.1869779 -11.25702582 15.1869779 -7.0625 16.375 C-3.56040276 14.80262981 -0.24405674 13.03427216 3.046875 11.05859375 C5 10 5 10 7 10 C7 9.34 7 8.68 7 8 C6.030625 7.690625 5.06125 7.38125 4.0625 7.0625 C1 6 1 6 0 5 C-0.04063832 3.33382885 -0.042721 1.66611905 0 0 Z " fill="#151515" transform="translate(104,41)"/>
<path d="M0 0 C2.72241211 1.81665039 2.72241211 1.81665039 5.27734375 4.34765625 C6.20224609 5.26353516 7.12714844 6.17941406 8.08007812 7.12304688 C8.54873291 7.60636475 9.0173877 8.08968262 9.50024414 8.58764648 C10.93428482 10.05920071 12.40189694 11.48961652 13.87695312 12.91992188 C14.79283203 13.84482422 15.70871094 14.76972656 16.65234375 15.72265625 C17.48757568 16.56578369 18.32280762 17.40891113 19.18334961 18.27758789 C21.50341858 21.75441749 21.45608857 23.89761445 21 28 C19.4375 30.4375 19.4375 30.4375 17 32 C12.89761445 32.45608857 10.75441749 32.50341858 7.27758789 30.18334961 C6.01289673 28.93050171 6.01289673 28.93050171 4.72265625 27.65234375 C3.79775391 26.73646484 2.87285156 25.82058594 1.91992188 24.87695312 C1.45126709 24.39363525 0.9826123 23.91031738 0.49975586 23.41235352 C-0.93428482 21.94079929 -2.40189694 20.51038348 -3.87695312 19.08007812 C-4.79283203 18.15517578 -5.70871094 17.23027344 -6.65234375 16.27734375 C-7.48757568 15.43421631 -8.32280762 14.59108887 -9.18334961 13.72241211 C-11.50341858 10.24558251 -11.45608857 8.10238555 -11 4 C-8.06719419 -0.57517707 -5.16549117 -0.51884672 0 0 Z " fill="#FBFBFB" transform="translate(174,163)"/>
<path d="M0 0 C2.97 0 5.94 0 9 0 C9 16.83 9 33.66 9 51 C6.03 51 3.06 51 0 51 C0 34.17 0 17.34 0 0 Z " fill="#FEFEFE" transform="translate(113,73)"/>
<path d="M0 0 C3.3 0 6.6 0 10 0 C10 13.86 10 27.72 10 42 C6.7 42 3.4 42 0 42 C0 28.14 0 14.28 0 0 Z " fill="#F1F1F1" transform="translate(62,83)"/>
<path d="M0 0 C0.33 0 0.66 0 1 0 C1.04628946 7.91885578 1.08185182 15.83765526 1.10362434 23.75661278 C1.11407274 27.4334935 1.12825102 31.11028183 1.15087891 34.78710938 C1.17256991 38.33379655 1.18456067 41.88039472 1.18975449 45.4271431 C1.193457 46.78197252 1.20068689 48.13679694 1.21146011 49.49158859 C1.22592448 51.38545757 1.22681649 53.27941564 1.22705078 55.17333984 C1.231492 56.25255707 1.23593323 57.33177429 1.24050903 58.44369507 C1 61 1 61 -1 63 C-2.95532227 63.24291992 -2.95532227 63.24291992 -5.31640625 63.23046875 C-6.16267578 63.22853516 -7.00894531 63.22660156 -7.88085938 63.22460938 C-9.20827148 63.20624023 -9.20827148 63.20624023 -10.5625 63.1875 C-11.45130859 63.18685547 -12.34011719 63.18621094 -13.25585938 63.18554688 C-19.85978903 63.14021097 -19.85978903 63.14021097 -21 62 C-21.31718286 56.96238984 -21.30677037 51.90038887 -20 47 C-19.67 47 -19.34 47 -19 47 C-18.814375 48.2065625 -18.814375 48.2065625 -18.625 49.4375 C-18.41875 50.283125 -18.2125 51.12875 -18 52 C-17.34 52.33 -16.68 52.66 -16 53 C-16 37.16 -16 21.32 -16 5 C-15.67 5 -15.34 5 -15 5 C-15 21.83 -15 38.66 -15 56 C-12.03 56 -9.06 56 -6 56 C-6 39.17 -6 22.34 -6 5 C-5.67 5 -5.34 5 -5 5 C-5 18.86 -5 32.72 -5 47 C-3.68 47 -2.36 47 -1 47 C-0.67 31.49 -0.34 15.98 0 0 Z " fill="#3A3A3A" transform="translate(128,68)"/>
<path d="M0 0 C1.27423828 -0.00193359 1.27423828 -0.00193359 2.57421875 -0.00390625 C3.91419922 0.00189453 3.91419922 0.00189453 5.28125 0.0078125 C6.17457031 0.00394531 7.06789063 0.00007813 7.98828125 -0.00390625 C8.83777344 -0.00261719 9.68726562 -0.00132813 10.5625 0 C11.34689453 0.00112793 12.13128906 0.00225586 12.93945312 0.00341797 C14.78125 0.1328125 14.78125 0.1328125 15.78125 1.1328125 C16.0356081 4.83404349 15.96648846 8.54888954 15.96875 12.2578125 C15.98099609 13.29164062 15.99324219 14.32546875 16.00585938 15.390625 C16.01667004 21.04100083 15.69171547 25.80163218 13.78125 31.1328125 C13.45125 31.1328125 13.12125 31.1328125 12.78125 31.1328125 C10.8642927 25.51024089 10.53235076 20.60911865 10.65625 14.6953125 C10.66527344 13.86837891 10.67429687 13.04144531 10.68359375 12.18945312 C10.70693488 10.17044542 10.74279712 8.15158894 10.78125 6.1328125 C7.15125 6.1328125 3.52125 6.1328125 -0.21875 6.1328125 C-0.21875 12.0728125 -0.21875 18.0128125 -0.21875 24.1328125 C-0.87875 24.4628125 -1.53875 24.7928125 -2.21875 25.1328125 C-3.35225534 27.14951077 -3.35225534 27.14951077 -4.21875 29.1328125 C-5.27134482 25.97502804 -5.34791606 23.72086371 -5.3515625 20.40625 C-5.35285156 19.2925 -5.35414062 18.17875 -5.35546875 17.03125 C-5.35160156 15.86851563 -5.34773438 14.70578125 -5.34375 13.5078125 C-5.34761719 12.33734375 -5.35148437 11.166875 -5.35546875 9.9609375 C-5.35417969 8.84976563 -5.35289063 7.73859375 -5.3515625 6.59375 C-5.35043457 5.57071777 -5.34930664 4.54768555 -5.34814453 3.49365234 C-5.12855786 -0.5127686 -3.58332795 0.00515269 0 0 Z " fill="#0D0D0D" transform="translate(87.21875,88.8671875)"/>
<path d="M0 0 C2.97 0 5.94 0 9 0 C9 9.57 9 19.14 9 29 C6.03 29 3.06 29 0 29 C0 19.43 0 9.86 0 0 Z " fill="#FCFCFC" transform="translate(88,95)"/>
<path d="M0 0 C2.125 0.375 2.125 0.375 4 1 C2.25 6.75 2.25 6.75 0 9 C-0.99 8.34 -1.98 7.68 -3 7 C-2.25 2.25 -2.25 2.25 0 0 Z " fill="#F0F0F0" transform="translate(147,112)"/>
<path d="M0 0 C0 1.65 0 3.3 0 5 C-0.33 4.34 -0.66 3.68 -1 3 C-1.66 3 -2.32 3 -3 3 C-3.33 4.65 -3.66 6.3 -4 8 C-4.99 8.33 -5.98 8.66 -7 9 C-6.4140625 2.84765625 -6.4140625 2.84765625 -6 1 C-4 0 -4 0 0 0 Z " fill="#F6F6F6" transform="translate(121,112)"/>
<path d="M0 0 C1.32 0.66 2.64 1.32 4 2 C4 4.31 4 6.62 4 9 C2.35 8.67 0.7 8.34 -1 8 C-1.04241723 5.66705225 -1.04092937 3.33297433 -1 1 C-0.67 0.67 -0.34 0.34 0 0 Z " fill="#262626" transform="translate(108,112)"/>
<path d="M0 0 C0.33 0 0.66 0 1 0 C1 3.63 1 7.26 1 11 C-0.32 10.34 -1.64 9.68 -3 9 C-2.34 9 -1.68 9 -1 9 C-1 8.01 -1 7.02 -1 6 C-1.66 5.67 -2.32 5.34 -3 5 C-2.03114628 3.31503702 -1.03013277 1.64821244 0 0 Z " fill="#2B2B2B" transform="translate(76,109)"/>
<path d="M0 0 C0.66 0 1.32 0 2 0 C2 2.97 2 5.94 2 9 C1.01 8.67 0.02 8.34 -1 8 C-1.625 5.6875 -1.625 5.6875 -2 3 C-1.34 2.01 -0.68 1.02 0 0 Z " fill="#F6F6F6" transform="translate(94,112)"/>
</svg>
