<?xml version="1.0" standalone="no"?>
<!DOCTYPE svg PUBLIC "-//W3C//DTD SVG 20010904//EN"
 "http://www.w3.org/TR/2001/REC-SVG-20010904/DTD/svg10.dtd">
<svg version="1.0" xmlns="http://www.w3.org/2000/svg"
 width="225.000000pt" height="225.000000pt" viewBox="0 0 225.000000 225.000000"
 preserveAspectRatio="xMidYMid meet">

<g transform="translate(0.000000,225.000000) scale(0.100000,-0.100000)"
fill="#000000" stroke="none">
<path d="M722 2241 c-25 -16 -8 -44 34 -58 77 -26 83 -112 10 -136 -43 -14
-80 17 -86 74 -4 36 -9 45 -27 47 -26 4 -46 -27 -41 -65 3 -25 -10 -34 -187
-134 l-189 -107 -27 20 c-17 13 -42 20 -73 20 -125 0 -181 -155 -85 -236 40
-34 112 -39 155 -11 19 13 26 9 84 -50 34 -34 61 -67 59 -72 -2 -5 -42 -71
-88 -145 -67 -108 -87 -134 -102 -131 -60 16 -143 -40 -155 -104 -9 -47 2 -79
40 -121 31 -33 39 -37 84 -37 l50 0 76 -122 c42 -68 76 -127 76 -132 0 -5 -28
-39 -63 -75 -60 -64 -63 -66 -97 -58 -106 25 -192 -65 -161 -168 24 -81 134
-121 200 -72 l27 20 188 -107 188 -106 2 -41 c6 -134 181 -181 248 -67 l20 33
108 0 108 0 20 -33 c39 -68 152 -91 152 -32 0 23 -17 35 -49 35 -23 0 -61 41
-61 67 0 34 33 66 69 66 41 0 62 -21 70 -70 5 -32 10 -38 34 -41 28 -3 29 -1
31 58 1 21 26 39 190 131 l190 107 26 -20 c57 -42 160 -15 190 50 l15 32 83 0
c45 0 82 -2 82 -5 0 -3 -5 -14 -12 -24 -15 -24 -4 -51 20 -51 25 0 102 83 102
110 0 27 -77 110 -102 110 -24 0 -35 -27 -20 -51 7 -10 12 -21 12 -24 0 -3
-38 -5 -85 -5 -67 0 -85 3 -85 14 0 49 -96 100 -159 85 -35 -8 -38 -7 -104 60
l-67 69 77 126 78 125 40 1 c48 0 100 30 123 70 17 29 18 30 102 30 65 0 81
-3 72 -12 -17 -17 -15 -55 4 -62 20 -8 114 82 114 109 0 27 -94 117 -114 109
-19 -7 -21 -45 -4 -62 9 -9 -7 -12 -72 -12 -84 0 -85 1 -102 30 -23 40 -75 70
-123 70 l-40 0 -80 131 c-44 72 -82 136 -84 141 -2 6 25 39 59 73 61 62 64 63
87 48 55 -36 154 -7 183 55 l15 32 83 0 c45 0 82 -2 82 -5 0 -3 -5 -14 -12
-24 -15 -24 -4 -51 20 -51 25 0 102 83 102 110 0 27 -77 110 -102 110 -24 0
-35 -27 -20 -51 7 -10 12 -21 12 -24 0 -3 -37 -5 -82 -5 l-83 0 -15 32 c-30
65 -133 92 -190 50 l-26 -20 -189 107 -189 106 -2 43 c-1 23 -9 54 -18 67 -54
82 -179 83 -227 0 l-21 -35 -108 0 -108 0 -21 34 c-31 50 -104 80 -139 57z
m558 -81 c42 -42 11 -113 -50 -113 -61 0 -91 67 -50 111 26 28 73 29 100 2z
m-176 -97 c5 -12 -11 -35 -56 -80 l-62 -63 -63 62 c-51 51 -60 65 -52 80 8 16
23 18 118 18 93 0 110 -2 115 -17z m-466 -65 c-8 -13 -50 -80 -93 -151 -57
-93 -83 -126 -94 -123 -9 3 -35 10 -58 15 -171 43 -172 41 65 175 103 58 189
106 191 106 2 0 -3 -10 -11 -22z m925 -108 c107 -60 147 -87 147 -101 0 -18
-5 -20 -122 -50 -24 -5 -50 -12 -59 -15 -13 -3 -39 32 -104 138 -49 79 -90
147 -93 153 -3 5 14 -2 39 -17 24 -14 110 -62 192 -108z m-682 -84 c-61 -62
-64 -63 -106 -58 -59 6 -93 -4 -124 -37 -24 -25 -30 -26 -69 -18 -53 10 -55 3
45 165 l76 122 41 0 c23 0 48 5 56 10 12 7 30 -5 80 -55 l65 -65 -64 -64z
m350 176 l46 -4 83 -134 c45 -74 81 -137 79 -139 -3 -2 -24 -8 -47 -13 -37 -9
-44 -8 -52 9 -19 35 -68 52 -132 46 l-58 -5 -56 64 c-64 72 -65 63 15 147 31
32 50 45 61 40 8 -3 36 -8 61 -11z m-1051 -162 c26 -26 26 -74 0 -100 -26 -26
-51 -25 -84 1 -35 28 -35 70 0 98 33 26 58 27 84 1z m1707 -2 c13 -12 23 -33
23 -47 0 -32 -37 -71 -67 -71 -30 0 -73 42 -73 70 0 28 43 70 71 70 13 0 33
-10 46 -22z m-782 -147 c-6 -20 -13 -21 -114 -21 -102 0 -109 1 -118 23 -10
19 -4 29 50 85 l62 62 63 -64 c52 -51 63 -68 57 -85z m-677 -7 c3 -2 -20 -43
-35 -63 -4 -6 -93 81 -93 90 0 6 119 -19 128 -27z m1212 -19 c-24 -25 -47 -45
-50 -45 -7 0 -43 60 -38 64 7 6 123 33 127 29 3 -2 -15 -24 -39 -48z m-845 20
c30 -30 31 -54 4 -89 -40 -50 -119 -21 -119 44 0 64 70 91 115 45z m479 4 c32
-25 34 -64 4 -96 -29 -31 -71 -30 -97 3 -27 35 -26 59 4 89 30 30 54 31 89 4z
m-668 -52 c2 -2 6 -17 9 -33 4 -26 -1 -34 -51 -73 l-56 -43 -34 33 c-19 18
-34 38 -34 44 0 6 13 32 29 57 l30 47 51 -14 c29 -8 54 -15 56 -18z m909 -22
l26 -45 -20 -29 c-41 -57 -45 -57 -110 -6 -57 45 -59 48 -49 76 8 22 19 31 51
39 23 6 47 12 52 14 15 5 21 -1 50 -49z m-410 -25 c5 -15 -8 -36 -52 -85 -32
-36 -61 -65 -64 -65 -10 0 -119 118 -119 128 0 38 11 42 120 42 100 0 109 -2
115 -20z m-421 -69 c9 -15 63 -21 97 -11 33 10 36 8 99 -55 l65 -65 -64 -64
c-57 -57 -67 -63 -88 -55 -13 5 -39 9 -58 9 -29 0 -43 10 -102 75 -37 42 -68
80 -68 86 0 10 94 89 107 89 4 0 9 -4 12 -9z m683 -32 c29 -23 53 -44 53 -46
0 -3 -32 -40 -71 -84 -67 -73 -75 -79 -111 -79 -22 0 -47 -4 -57 -9 -14 -8
-30 2 -81 54 l-64 64 54 58 c29 32 57 62 60 66 4 5 26 4 48 -3 32 -8 48 -7 74
4 18 8 35 15 37 15 2 1 28 -18 58 -40z m-940 -11 c13 -12 23 -25 23 -29 0 -7
-140 -126 -168 -143 -6 -4 16 38 50 93 33 56 64 101 66 101 3 0 16 -10 29 -22z
m1220 -78 c34 -55 60 -100 57 -100 -3 0 -45 33 -94 74 l-88 73 26 27 c15 14
29 26 32 26 3 0 33 -45 67 -100z m-1059 -91 l63 -66 -18 -32 -18 -31 -175 2
c-120 2 -175 6 -175 14 0 6 54 55 119 108 95 77 122 94 131 84 6 -7 39 -43 73
-79z m1025 -19 c58 -47 105 -89 103 -95 -2 -6 -71 -11 -177 -13 l-174 -2 -17
31 -18 31 72 78 c61 68 73 77 88 67 9 -7 65 -50 123 -97z m-559 -9 c85 -86 79
-95 -59 -99 -95 -2 -111 0 -123 15 -11 15 -4 25 50 80 34 35 65 63 68 63 3 0
32 -26 64 -59z m-274 -76 c52 -27 52 -93 0 -120 -48 -25 -100 7 -100 60 0 36
24 63 68 74 2 1 16 -6 32 -14z m-598 -12 c22 -20 23 -70 1 -95 -23 -26 -78
-24 -97 4 -34 49 -8 108 47 108 17 0 39 -7 49 -17z m1102 -5 c35 -49 7 -108
-50 -108 -36 0 -74 28 -74 56 0 19 19 56 34 66 24 16 75 8 90 -14z m610 0 c20
-29 20 -58 0 -86 -35 -50 -138 -1 -119 57 17 54 90 71 119 29z m-1269 -99 c6
-17 -7 -36 -66 -97 -41 -42 -75 -78 -76 -81 -2 -3 -160 121 -217 170 -26 22
14 29 179 29 168 0 174 -1 180 -21z m483 -4 c2 -13 -17 -40 -58 -80 l-60 -59
-64 63 c-54 54 -63 67 -55 83 9 17 21 18 122 16 103 -3 112 -5 115 -23z m608
10 c3 -9 -202 -180 -215 -180 -4 0 -39 35 -79 77 -58 61 -72 81 -67 98 6 20
12 20 182 18 107 -2 177 -7 179 -13z m-937 -79 l40 11 63 -64 63 -63 -65 -65
c-63 -63 -66 -65 -99 -55 -35 10 -77 5 -98 -13 -8 -6 -18 -6 -25 0 -7 5 -39
30 -70 55 l-58 46 75 80 c73 78 76 80 105 69 21 -8 41 -8 69 -1z m451 -6 c17
0 39 4 49 9 17 10 53 -21 140 -121 28 -32 26 -36 -53 -97 l-53 -41 -37 15
c-30 13 -45 13 -78 5 -22 -6 -44 -8 -48 -3 -3 4 -31 34 -60 66 l-54 58 64 64
c51 52 67 62 81 54 10 -5 32 -9 49 -9z m-867 -89 c37 -30 67 -57 67 -61 0 -4
-11 -17 -24 -29 -19 -18 -26 -20 -32 -9 -4 7 -30 48 -56 91 -54 86 -52 87 45
8z m1290 -22 l-56 -90 -23 22 c-14 13 -23 27 -22 31 4 11 140 126 150 127 4 1
-18 -40 -49 -90z m-600 -114 c44 -49 57 -70 52 -85 -6 -18 -15 -20 -115 -20
-109 0 -120 4 -120 42 0 10 109 128 119 128 3 0 32 -29 64 -65z m-484 -30 c45
-35 51 -43 46 -69 -7 -37 -4 -35 -64 -51 -57 -15 -53 -18 -111 78 l-23 38 34
35 c37 38 27 40 118 -31z m953 -66 c-42 -68 -40 -67 -114 -48 -27 7 -39 17
-46 38 -10 28 -8 31 61 85 l71 57 34 -34 34 -34 -40 -64z m-723 5 c27 -35 26
-59 -4 -89 -45 -46 -115 -19 -115 45 0 65 79 94 119 44z m478 4 c31 -29 30
-71 -3 -97 -35 -27 -59 -26 -89 4 -30 30 -31 54 -4 89 25 32 64 34 96 4z
m-874 -44 c15 -26 27 -47 25 -49 -10 -7 -168 -42 -173 -37 -5 5 103 128 115
131 3 0 18 -20 33 -45z m1322 -85 c-4 -6 -163 28 -174 37 -2 2 9 23 25 48 l29
46 62 -62 c34 -34 60 -65 58 -69z m-620 30 c6 -17 -5 -34 -56 -85 l-64 -64
-58 65 c-44 49 -57 70 -52 85 6 18 15 20 115 20 102 0 109 -1 115 -21z m-416
-69 c13 -7 49 -10 80 -8 l56 3 59 -63 60 -63 -64 -64 c-51 -52 -67 -62 -81
-54 -10 5 -35 9 -57 9 l-39 0 -76 123 c-100 161 -98 154 -45 165 38 8 45 6 63
-14 11 -12 31 -27 44 -34z m750 35 c2 -2 -34 -65 -80 -140 l-83 -135 -39 0
c-21 0 -46 -4 -56 -9 -14 -8 -30 2 -81 54 l-63 64 56 65 57 64 58 -5 c64 -6
113 11 132 46 8 17 15 18 52 9 23 -5 44 -11 47 -13z m-1259 -15 c39 -39 12
-120 -39 -120 -32 0 -71 39 -71 70 0 59 70 90 110 50z m1707 -2 c13 -12 23
-33 23 -47 0 -32 -37 -71 -67 -71 -30 0 -73 42 -73 70 0 28 43 70 71 70 13 0
33 -10 46 -22z m-1342 -125 c43 -71 86 -139 94 -153 9 -13 12 -22 6 -19 -5 4
-92 52 -192 109 -199 111 -217 130 -145 149 20 5 62 16 92 25 30 8 58 15 61
15 3 1 41 -56 84 -126z m1040 108 c170 -42 170 -44 -22 -151 -82 -46 -168 -94
-192 -108 -25 -15 -42 -22 -39 -17 3 6 44 74 93 153 65 106 91 141 104 138 9
-3 34 -9 56 -15z m-531 -240 c46 -47 57 -63 51 -80 -6 -20 -13 -21 -115 -21
-93 0 -110 3 -119 18 -8 14 1 28 52 80 34 34 64 62 67 62 3 0 32 -26 64 -59z
m-251 -93 c55 -65 -41 -148 -105 -91 -28 25 -23 78 9 103 32 25 69 20 96 -12z"/>
</g>
</svg>
