<?xml version="1.0" encoding="UTF-8"?>
<svg version="1.1" xmlns="http://www.w3.org/2000/svg" width="217" height="232">
<path d="M0 0 C71.61 0 143.22 0 217 0 C217 76.56 217 153.12 217 232 C145.39 232 73.78 232 0 232 C0 155.44 0 78.88 0 0 Z " fill="#FEFEFE" transform="translate(0,0)"/>
<path d="M0 0 C71.61 0 143.22 0 217 0 C217 4.95 217 9.9 217 15 C145.39 15 73.78 15 0 15 C0 10.05 0 5.1 0 0 Z " fill="#020202" transform="translate(0,217)"/>
<path d="M0 0 C4.14418615 -0.12442129 8.28735819 -0.21471744 12.43286133 -0.2746582 C13.84028075 -0.2996668 15.24757206 -0.33368615 16.65454102 -0.37719727 C18.68798538 -0.4384673 20.71970121 -0.46634226 22.75390625 -0.48828125 C23.97408447 -0.51446533 25.1942627 -0.54064941 26.45141602 -0.56762695 C31.04687178 0.16745627 34.18077556 1.15598805 37 5 C38.12352098 9.2459754 38.14757603 13.41380696 38.17578125 17.7890625 C38.19908005 19.04326996 38.22237885 20.29747742 38.24638367 21.58969116 C38.28183218 24.24596785 38.30127671 26.89723237 38.29711914 29.55322266 C38.29655093 32.2603396 38.34487748 34.95914395 38.44067383 37.66455078 C39.2177651 61.25986765 39.2177651 61.25986765 34.09375 67.03979492 C31.23032194 69.54491896 28.11957844 71.38171283 24.72897339 73.08532715 C22.30290112 74.36878382 20.33526036 76.04846951 18.2734375 77.84765625 C17.28537109 78.66073242 17.28537109 78.66073242 16.27734375 79.49023438 C14.96864089 80.57186251 13.66143186 81.65529983 12.35546875 82.74023438 C11.70964844 83.27068359 11.06382813 83.80113281 10.3984375 84.34765625 C9.83817871 84.81179932 9.27791992 85.27594238 8.70068359 85.75415039 C6.88354005 87.08531369 5.02164758 88.0155655 3 89 C2.99191315 87.92924728 2.98382629 86.85849457 2.97549438 85.7552948 C2.89808555 75.67556333 2.81035966 65.59596771 2.71247292 55.51641369 C2.66247883 50.33413062 2.61614908 45.15186824 2.578125 39.96948242 C2.54131151 34.97031024 2.49496233 29.97130991 2.44193649 24.97228432 C2.42337159 23.06289999 2.40827142 21.15347879 2.39665604 19.24403954 C2.37982942 16.5742156 2.35080327 13.90478707 2.31884766 11.23510742 C2.31668747 10.44172974 2.31452728 9.64835205 2.31230164 8.83093262 C2.25399096 5.02969227 2.15960333 3.239405 0 0 Z " fill="#040404" transform="translate(47,63)"/>
<path d="M0 0 C1.28583984 0.01611328 2.57167969 0.03222656 3.89648438 0.04882812 C5.23439241 0.09059169 6.57228305 0.13291625 7.91015625 0.17578125 C9.27534975 0.20089757 10.64058779 0.22370488 12.00585938 0.24414062 C15.32926923 0.30285811 18.65038388 0.3849471 21.97265625 0.48828125 C21.31265625 1.47828125 20.65265625 2.46828125 19.97265625 3.48828125 C19.75975486 6.14411229 19.66140253 8.69864384 19.65380859 11.35620117 C19.63874016 12.55654747 19.63874016 12.55654747 19.62336731 13.78114319 C19.59246889 16.4270048 19.57548178 19.07276492 19.55859375 21.71875 C19.53988745 23.55293149 19.52031444 25.38710433 19.49990845 27.2212677 C19.44852439 32.04957992 19.40893228 36.87792006 19.37176514 41.70635986 C19.33176479 46.63308657 19.28065436 51.5596965 19.23046875 56.48632812 C19.1336352 66.15356388 19.04925421 75.82086547 18.97265625 85.48828125 C13.91312278 85.71635193 11.31002916 85.20086223 7.3666687 82.10464478 C4.86912468 79.20873158 5.11288136 75.95122771 5.2890625 72.34375 C5.29896713 71.57396317 5.30887177 70.80417633 5.31907654 70.01106262 C5.35811475 67.56398982 5.44589345 65.12148575 5.53515625 62.67578125 C5.57028483 61.01243482 5.60222117 59.34901771 5.63085938 57.68554688 C5.70783905 53.61804436 5.82852903 49.55393589 5.97265625 45.48828125 C3.33265625 45.48828125 0.69265625 45.48828125 -2.02734375 45.48828125 C-2.02734375 54.72828125 -2.02734375 63.96828125 -2.02734375 73.48828125 C-14.02734375 64.48828125 -14.02734375 64.48828125 -14.5554657 61.92129517 C-14.56769669 60.89490936 -14.57992767 59.86852356 -14.5925293 58.81103516 C-14.61482101 57.64617584 -14.63711273 56.48131653 -14.66007996 55.28115845 C-14.66205132 53.39208267 -14.66205132 53.39208267 -14.6640625 51.46484375 C-14.67500443 50.17138031 -14.68594635 48.87791687 -14.69721985 47.54525757 C-14.71665456 44.80638731 -14.72007359 42.06802763 -14.71362305 39.32910156 C-14.70763083 35.82547999 -14.75182219 32.32451185 -14.80951214 28.82143593 C-14.8554675 25.47333357 -14.85048217 22.12576005 -14.8515625 18.77734375 C-14.87514328 17.52200836 -14.89872406 16.26667297 -14.92301941 14.97329712 C-14.8346975 6.61931557 -14.8346975 6.61931557 -12.66053772 3.57350159 C-8.73257115 0.45617408 -4.98944289 -0.11087651 0 0 Z " fill="#040404" transform="translate(148.02734375,62.51171875)"/>
<path d="M0 0 C1.24072266 -0.02384766 2.48144531 -0.04769531 3.75976562 -0.07226562 C4.95150391 -0.07033203 6.14324219 -0.06839844 7.37109375 -0.06640625 C8.46220459 -0.06713135 9.55331543 -0.06785645 10.67749023 -0.06860352 C13.5625 0.5625 13.5625 0.5625 15.92504883 2.90722656 C18.81523294 7.59391844 17.79910876 12.17965068 17.5625 17.5625 C12.9425 17.5625 8.3225 17.5625 3.5625 17.5625 C3.5625 16.2425 3.5625 14.9225 3.5625 13.5625 C1.2525 13.5625 -1.0575 13.5625 -3.4375 13.5625 C-3.4375 17.5225 -3.4375 21.4825 -3.4375 25.5625 C-2.60992187 25.80742188 -1.78234375 26.05234375 -0.9296875 26.3046875 C3.09538756 27.75443489 6.69477714 29.6348051 10.4375 31.6875 C11.12585938 32.06003906 11.81421875 32.43257812 12.5234375 32.81640625 C14.20544798 33.72749526 15.88430436 34.64440315 17.5625 35.5625 C18.68034724 43.4390236 19.81986336 51.82075212 17.5625 59.5625 C13.09807978 65.41140875 6.18691675 68.67312674 -0.4375 71.5625 C-1.87963416 70.5982578 -3.32160894 69.6337762 -4.76269531 68.66796875 C-6.22852706 67.70043433 -7.7180177 66.76893973 -9.2109375 65.84375 C-16.12676669 61.10858767 -16.12676669 61.10858767 -17.078125 56.375 C-17.0625 53.0625 -17.0625 53.0625 -16.4375 47.5625 C-12.1475 47.5625 -7.8575 47.5625 -3.4375 47.5625 C-2.7775 48.8825 -2.1175 50.2025 -1.4375 51.5625 C0.59567007 53.29675773 0.59567007 53.29675773 2.5625 54.5625 C3.87575007 50.16196028 4.22166359 46.89789961 2.5625 42.5625 C-0.40696448 40.63106513 -3.68690571 39.38962538 -6.9375 38 C-10.68051524 36.30408937 -13.71143428 34.67982632 -16.4375 31.5625 C-19.0260117 23.2264793 -19.27722531 10.17270334 -15.25610352 2.22851562 C-11.36102934 -1.33974671 -4.99284854 -0.04395568 0 0 Z " fill="#030303" transform="translate(108.4375,62.4375)"/>
<path d="M0 0 C2.64 0 5.28 0 8 0 C8.19832862 5.44412075 8.34318442 10.88612446 8.43945312 16.33300781 C8.47959284 18.18396644 8.53412078 20.03467282 8.60351562 21.88476562 C8.70100599 24.5514138 8.74601501 27.21470272 8.78125 29.8828125 C8.82254028 30.70492218 8.86383057 31.52703186 8.90637207 32.37405396 C8.90820312 34.73876953 8.90820312 34.73876953 8 39 C5.36 40.98 2.72 42.96 0 45 C0 30.15 0 15.3 0 0 Z " fill="#F6F6F6" transform="translate(62,77)"/>
<path d="M0 0 C2.64 0 5.28 0 8 0 C8 5.94 8 11.88 8 18 C5.36 18 2.72 18 0 18 C0 12.06 0 6.12 0 0 Z " fill="#F7F7F7" transform="translate(146,77)"/>
<path d="M0 0 C0.33 0 0.66 0 1 0 C1 28.71 1 57.42 1 87 C-0.98 85.68 -2.96 84.36 -5 83 C-5 82.67 -5 82.34 -5 82 C-3.35 82 -1.7 82 0 82 C0 54.94 0 27.88 0 0 Z " fill="#878787" transform="translate(167,66)"/>
<path d="M0 0 C1.051875 0 2.10375 0 3.1875 0 C6 0 6 0 8 1 C8 3.31 8 5.62 8 8 C7.01 8 6.02 8 5 8 C5 7.34 5 6.68 5 6 C0.38 6 -4.24 6 -9 6 C-9 4.35 -9 2.7 -9 1 C-5.56824147 -1.16073685 -3.8643546 -0.92008443 0 0 Z " fill="#BABABA" transform="translate(17,221)"/>
<path d="M0 0 C1.98 0 3.96 0 6 0 C6 2.31 6 4.62 6 7 C4.68 7.33 3.36 7.66 2 8 C1.67 9.98 1.34 11.96 1 14 C0.34 13.67 -0.32 13.34 -1 13 C-0.67 8.71 -0.34 4.42 0 0 Z " fill="#626262" transform="translate(112,105)"/>
<path d="M0 0 C0.86625 0.556875 0.86625 0.556875 1.75 1.125 C1.09 2.775 0.43 4.425 -0.25 6.125 C-2.23 6.125 -4.21 6.125 -6.25 6.125 C-6.25 4.475 -6.25 2.825 -6.25 1.125 C-2.80384615 -1.09038462 -2.80384615 -1.09038462 0 0 Z " fill="#B3B3B3" transform="translate(14.25,220.875)"/>
<path d="M0 0 C9.57 0 19.14 0 29 0 C29 0.33 29 0.66 29 1 C25.7 1 22.4 1 19 1 C19 1.99 19 2.98 19 4 C18.01 4 17.02 4 16 4 C16 3.34 16 2.68 16 2 C10.72 1.67 5.44 1.34 0 1 C0 0.67 0 0.34 0 0 Z " fill="#6C6C6C" transform="translate(141,63)"/>
<path d="M0 0 C8.91 0 17.82 0 27 0 C27 0.33 27 0.66 27 1 C23.04 1 19.08 1 15 1 C15 1.99 15 2.98 15 4 C14.01 4 13.02 4 12 4 C12 3.34 12 2.68 12 2 C8.04 1.67 4.08 1.34 0 1 C0 0.67 0 0.34 0 0 Z " fill="#6A6A6A" transform="translate(95,63)"/>
<path d="M0 0 C4.95 0 9.9 0 15 0 C15 0.66 15 1.32 15 2 C9.62374766 2.84888195 5.34629602 3.0024305 0 2 C0 1.34 0 0.68 0 0 Z " fill="#727272" transform="translate(194,225)"/>
<path d="M0 0 C3.3 0 6.6 0 10 0 C10 0.66 10 1.32 10 2 C6.78548731 3.60725635 3.56387464 3.05748185 0 3 C0 2.01 0 1.02 0 0 Z " fill="#3A3A3A" transform="translate(199,221)"/>
<path d="M0 0 C1.65 0 3.3 0 5 0 C5 1.65 5 3.3 5 5 C3.02 5 1.04 5 -1 5 C-0.67 3.35 -0.34 1.7 0 0 Z " fill="#DFDFDF" transform="translate(15,222)"/>
<path d="M0 0 C0 0.99 0 1.98 0 3 C-3.3 2.67 -6.6 2.34 -10 2 C-10 1.67 -10 1.34 -10 1 C-3.375 0 -3.375 0 0 0 Z " fill="#4A4A4A" transform="translate(198,221)"/>
</svg>
