<?xml version="1.0" encoding="UTF-8"?>
<svg version="1.1" xmlns="http://www.w3.org/2000/svg" width="200" height="200">
<path d="M0 0 C66 0 132 0 200 0 C200 66 200 132 200 200 C134 200 68 200 0 200 C0 134 0 68 0 0 Z " fill="#070707" transform="translate(0,0)"/>
<path d="M0 0 C66 0 132 0 200 0 C200 66 200 132 200 200 C134 200 68 200 0 200 C0 134 0 68 0 0 Z M70.86328125 40.546875 C63.44949842 50.64634489 58 63.24665888 58 76 C57.0713916 75.98952637 56.1427832 75.97905273 55.18603516 75.96826172 C51.7457431 75.93420796 48.30562973 75.90911507 44.86523438 75.89013672 C43.3752968 75.88006957 41.88537903 75.86641482 40.39550781 75.84912109 C38.25580972 75.82490347 36.11637247 75.81352436 33.9765625 75.8046875 C32.68830566 75.79421387 31.40004883 75.78374023 30.07275391 75.77294922 C26.89299194 75.67162336 26.89299194 75.67162336 25 78 C24.70978706 80.4590433 24.70978706 80.4590433 24.77636719 83.35400391 C24.77586365 84.47763336 24.77536011 85.60126282 24.77484131 86.75894165 C24.78211243 87.98575653 24.78938354 89.21257141 24.796875 90.4765625 C24.78901816 92.4223936 24.78112165 94.36822528 24.77118301 96.31404686 C24.74874813 101.09764523 24.74372333 105.88096681 24.77001953 110.66455078 C24.83834743 128.70091131 23.33311002 144.74404151 18 162 C17.55690764 163.50914916 17.11626805 165.01902183 16.67871094 166.52978516 C16.02588428 168.75720068 15.35735503 170.98015832 14.6640625 173.1953125 C13.93791335 176.26222478 13.74202198 178.85978479 14 182 C16.59354685 184.59354685 17.62861741 184.25115826 21.23828125 184.25396729 C22.34880859 184.25960693 23.45933594 184.26524658 24.60351562 184.27105713 C25.82748047 184.26700867 27.05144531 184.26296021 28.3125 184.25878906 C29.59705078 184.2622937 30.88160156 184.26579834 32.20507812 184.26940918 C35.73394524 184.27854611 39.26269573 184.27498361 42.79156494 184.26865101 C46.47953614 184.26359773 50.16749717 184.26828058 53.85546875 184.27142334 C60.04949746 184.27506496 66.24347852 184.27025879 72.4375 184.26074219 C79.60503457 184.24985724 86.77245537 184.25338268 93.93998718 184.264395 C100.08693925 184.27346233 106.23385701 184.27475588 112.3808136 184.26951766 C116.05516424 184.2663949 119.72946136 184.26599697 123.40380859 184.27259064 C127.49844127 184.27942486 131.5928769 184.26996042 135.6875 184.25878906 C137.52344727 184.26486176 137.52344727 184.26486176 139.39648438 184.27105713 C140.50701172 184.26541748 141.61753906 184.25977783 142.76171875 184.25396729 C144.215177 184.25283621 144.215177 184.25283621 145.69799805 184.25168228 C148.19570191 184.22167591 148.19570191 184.22167591 150 182 C150.44401697 173.82135649 147.49046449 165.37189562 145.4375 157.5625 C144.78725924 155.06460839 144.13997486 152.56594473 143.49609375 150.06640625 C143.20919678 148.97271729 142.9222998 147.87902832 142.62670898 146.75219727 C142 144 142 144 142 141 C145.82775311 139.14080563 147.9201702 138.79320233 152 140 C155.00693682 142.1284063 157.52803052 144.76858807 160.125 147.375 C160.85275635 148.10017822 161.5805127 148.82535645 162.33032227 149.57250977 C166.90213023 154.3297396 169.34090358 157.88433465 170.31640625 164.51171875 C171.66977267 169.43797251 175.75467739 173.32022825 180 176 C182.73245727 175.84475385 182.73245727 175.84475385 185 175 C186.13210475 172.86920862 186.13210475 172.86920862 186 170 C184.37572919 168.24186072 182.65880319 166.79043896 180.76171875 165.33203125 C178.78275703 162.71243004 178.74167211 161.5812556 178.37109375 158.39453125 C177.17063134 151.33218822 172.45134696 147.56878168 167.375 142.875 C166.4778125 142.01390625 165.580625 141.1528125 164.65625 140.265625 C162.45461181 138.15767354 160.2365647 136.07075152 158 134 C160.73340215 131.21979302 163.45151951 128.55515662 166.5 126.125 C170.05369617 123.13896208 172.44880164 119.86545205 175 116 C175.556875 116.309375 176.11375 116.61875 176.6875 116.9375 C179.17219278 118.0791156 181.27998821 118.71368297 184 119 C184.66 118.34 185.32 117.68 186 117 C185.79595261 113.80325755 185.53214642 111.69410403 183.5625 109.125 C182.05038276 107.80523176 182.05038276 107.80523176 180 108 C180.34933594 106.91460937 180.69867188 105.82921875 181.05859375 104.7109375 C181.51844415 103.26569339 181.97806755 101.82037703 182.4375 100.375 C182.66759766 99.66214844 182.89769531 98.94929688 183.13476562 98.21484375 C188.27649049 81.96997389 186.45699391 66.33823296 179.4375 50.875 C169.85574763 33.07689498 155.0079704 22.88742446 136 17 C111.53380664 10.59689285 86.53741966 21.86398973 70.86328125 40.546875 Z " fill="#FDFDFD" transform="translate(0,0)"/>
<path d="M0 0 C30.36 0 60.72 0 92 0 C92.165 9.425625 92.33 18.85125 92.5 28.5625 C92.57283203 31.52677979 92.64566406 34.49105957 92.72070312 37.54516602 C92.7440776 39.90638332 92.76446111 42.26763294 92.78125 44.62890625 C92.82217773 45.8454187 92.86310547 47.06193115 92.90527344 48.31530762 C92.91221761 56.76722787 92.91221761 56.76722787 90.23608398 60.38375854 C85.12798522 65 85.12798522 65 82 65 C81.67 52.13 81.34 39.26 81 26 C75.06 26 69.12 26 63 26 C62.67 41.51 62.34 57.02 62 73 C60 74 60 74 51 74 C51 63.77 51 53.54 51 43 C44.4 43 37.8 43 31 43 C31 51.58 31 60.16 31 69 C22.55247181 66.18415727 22.55247181 66.18415727 20 64 C19.54239939 61.28332853 19.41282104 59.19522255 19.51171875 56.48828125 C19.51879349 55.76005661 19.52586823 55.03183197 19.53315735 54.28153992 C19.56112919 51.95747763 19.6238635 49.6358327 19.6875 47.3125 C19.71257969 45.73636295 19.73539345 44.16018809 19.75585938 42.58398438 C19.80671517 38.72097798 19.904534 34.8631907 20 31 C13.73 31 7.46 31 1 31 C1 32.98 1 34.96 1 37 C-4.62222144 31.37777856 -3.26652734 20.47739445 -3.36328125 13.02734375 C-3 9 -3 9 0 0 Z " fill="#FDFDFD" transform="translate(69,62)"/>
<path d="M0 0 C1.02867187 0.33 2.05734375 0.66 3.1171875 1 C10.51485321 3.5968711 16.21151534 6.72972254 22 12 C23.03060547 12.89332031 23.03060547 12.89332031 24.08203125 13.8046875 C34.17556461 23.1069496 40.0796503 35.78295337 41.30859375 49.42578125 C41.59267915 63.64676196 38.01525835 77.76560113 29 89 C28.67 89 28.34 89 28 89 C27.67 70.52 27.34 52.04 27 33 C-3.69 32.67 -34.38 32.34 -66 32 C-61.86078109 19.58234328 -53.10417889 10.45347566 -41.6875 4.1796875 C-38.49621768 2.65053139 -35.29993413 1.2758592 -32 0 C-31.31550781 -0.26683594 -30.63101563 -0.53367187 -29.92578125 -0.80859375 C-20.69985768 -3.71045691 -9.12955043 -2.97097234 0 0 Z " fill="#FBFBFB" transform="translate(137,26)"/>
<path d="M0 0 C8.56297657 -0.06980773 17.12583231 -0.1229663 25.68902397 -0.15543652 C29.666158 -0.17102819 33.64309596 -0.19214604 37.62011719 -0.22631836 C41.4651085 -0.25914583 45.30991236 -0.27690176 49.15503311 -0.28463173 C50.61490958 -0.29013361 52.07477692 -0.30087635 53.5345726 -0.31719017 C60.95410032 -0.39673596 67.81479419 -0.3016258 74.87380981 2.25639343 C78.78562057 3.6244969 82.51746351 4.12573154 86.64453125 4.09765625 C87.48564453 4.09443359 88.32675781 4.09121094 89.19335938 4.08789062 C90.05767578 4.07951172 90.92199219 4.07113281 91.8125 4.0625 C93.13797852 4.05573242 93.13797852 4.05573242 94.49023438 4.04882812 C96.66018559 4.03709866 98.83010172 4.01916495 101 4 C102.73167988 9.067554 104.38608874 14.11374074 105.6875 19.3125 C105.93886719 20.29863281 106.19023437 21.28476563 106.44921875 22.30078125 C107 25 107 25 107 29 C69.38 29 31.76 29 -7 29 C-4.75 18.875 -4.75 18.875 -3.7109375 14.74609375 C-3.49179687 13.87275391 -3.27265625 12.99941406 -3.046875 12.09960938 C-2.82515625 11.22111328 -2.6034375 10.34261719 -2.375 9.4375 C-2.03082031 8.06754883 -2.03082031 8.06754883 -1.6796875 6.66992188 C-1.12088108 4.446338 -0.56096878 2.22303914 0 0 Z " fill="#F6F6F6" transform="translate(32,139)"/>
<path d="M0 0 C8.25 0 16.5 0 25 0 C25.556875 2.3925 26.11375 4.785 26.6875 7.25 C28.93866738 16.43532453 31.71350396 25.01679841 37.3125 32.75 C40.37368935 37.03253344 40.56516202 39.8193482 40 45 C40.66 45 41.32 45 42 45 C42 43.35 42 41.7 42 40 C42.50789063 40.38671875 43.01578125 40.7734375 43.5390625 41.171875 C46.80591668 43.6434276 50.06163502 46.08332079 53.5 48.3125 C54.325 48.869375 55.15 49.42625 56 50 C56 50.33 56 50.66 56 51 C37.52 51 19.04 51 0 51 C0 34.17 0 17.34 0 0 Z " fill="#F4F4F4" transform="translate(33,84)"/>
<path d="M0 0 C38.28 0 76.56 0 116 0 C116.495 2.97 116.495 2.97 117 6 C78.06 6 39.12 6 -1 6 C-0.67 4.02 -0.34 2.04 0 0 Z " fill="#F8F8F8" transform="translate(24,170)"/>
<path d="M0 0 C4.95 0 9.9 0 15 0 C15 12.87 15 25.74 15 39 C7 43 7 43 0 44 C0 29.48 0 14.96 0 0 Z " fill="#FBFBFB" transform="translate(134,90)"/>
<path d="M0 0 C4.95 0 9.9 0 15 0 C15 9.24 15 18.48 15 28 C6 28 6 28 0 26 C0 17.42 0 8.84 0 0 Z " fill="#FCFCFC" transform="translate(103,107)"/>
<path d="M0 0 C4.95 0 9.9 0 15 0 C15 9.24 15 18.48 15 28 C10.61724415 25.37034649 8.80753941 23.91492014 5.8125 20.0625 C5.13832031 19.20785156 4.46414062 18.35320312 3.76953125 17.47265625 C-0.53054452 11.4639411 -0.17489052 7.34540173 0 0 Z " fill="#F9F9F9" transform="translate(72,95)"/>
<path d="M0 0 C0.74886475 0.00523682 1.49772949 0.01047363 2.26928711 0.01586914 C3.07817383 0.0190918 3.88706055 0.02231445 4.72045898 0.02563477 C5.5705957 0.03401367 6.42073242 0.04239258 7.29663086 0.05102539 C8.15063477 0.05553711 9.00463867 0.06004883 9.88452148 0.06469727 C12.00108749 0.07652166 14.11761771 0.0944577 16.23413086 0.11352539 C15.90413086 1.10352539 15.57413086 2.09352539 15.23413086 3.11352539 C10.28413086 3.11352539 5.33413086 3.11352539 0.23413086 3.11352539 C0.56413086 17.96352539 0.89413086 32.81352539 1.23413086 48.11352539 C-0.08586914 48.11352539 -1.40586914 48.11352539 -2.76586914 48.11352539 C-2.79113859 41.43832199 -2.80870182 34.76313082 -2.82080078 28.08789062 C-2.82584239 25.81509948 -2.83267551 23.54231159 -2.84130859 21.26953125 C-2.85338175 18.01048988 -2.85909901 14.75149122 -2.86352539 11.49243164 C-2.86868668 10.4695253 -2.87384796 9.44661896 -2.87916565 8.39271545 C-2.87924118 7.45181564 -2.87931671 6.51091583 -2.87939453 5.54150391 C-2.88161514 4.70877457 -2.88383575 3.87604523 -2.88612366 3.01808167 C-2.72866234 0.52425479 -2.50149323 0.16081769 0 0 Z " fill="#545454" transform="translate(133.765869140625,86.886474609375)"/>
<path d="M0 0 C5.94 0 11.88 0 18 0 C18 0.66 18 1.32 18 2 C13.05 2 8.1 2 3 2 C3 10.58 3 19.16 3 28 C2.01 27.34 1.02 26.68 0 26 C-0.34057617 23.38623047 -0.34057617 23.38623047 -0.29296875 20.1171875 C-0.2784668 18.36728516 -0.2784668 18.36728516 -0.26367188 16.58203125 C-0.23853516 15.35871094 -0.21339844 14.13539062 -0.1875 12.875 C-0.17396484 11.64394531 -0.16042969 10.41289063 -0.14648438 9.14453125 C-0.1110383 6.09616918 -0.05723007 3.04803091 0 0 Z " fill="#5A5A5A" transform="translate(100,105)"/>
<path d="M0 0 C4.29 0 8.58 0 13 0 C13 1.32 13 2.64 13 4 C8.38 4 3.76 4 -1 4 C-0.67 2.68 -0.34 1.36 0 0 Z " fill="#141414" transform="translate(116,157)"/>
<path d="M0 0 C4.29 0 8.58 0 13 0 C13 1.32 13 2.64 13 4 C8.38 4 3.76 4 -1 4 C-0.67 2.68 -0.34 1.36 0 0 Z " fill="#141414" transform="translate(96,157)"/>
<path d="M0 0 C4.29 0 8.58 0 13 0 C13 1.32 13 2.64 13 4 C8.38 4 3.76 4 -1 4 C-0.67 2.68 -0.34 1.36 0 0 Z " fill="#131313" transform="translate(76,157)"/>
<path d="M0 0 C4.29 0 8.58 0 13 0 C13 1.32 13 2.64 13 4 C8.38 4 3.76 4 -1 4 C-0.67 2.68 -0.34 1.36 0 0 Z " fill="#131313" transform="translate(56,157)"/>
<path d="M0 0 C4.29 0 8.58 0 13 0 C13 1.32 13 2.64 13 4 C8.38 4 3.76 4 -1 4 C-0.67 2.68 -0.34 1.36 0 0 Z " fill="#131313" transform="translate(36,157)"/>
<path d="M0 0 C4.62 0 9.24 0 14 0 C14 1.32 14 2.64 14 4 C9.71 4 5.42 4 1 4 C0.67 2.68 0.34 1.36 0 0 Z " fill="#1A1A1A" transform="translate(94,148)"/>
<path d="M0 0 C4.29 0 8.58 0 13 0 C13 1.32 13 2.64 13 4 C8.71 4 4.42 4 0 4 C0 2.68 0 1.36 0 0 Z " fill="#191919" transform="translate(114,148)"/>
<path d="M0 0 C4.62 0 9.24 0 14 0 C13.67 1.32 13.34 2.64 13 4 C9.04 4 5.08 4 1 4 C0.67 2.68 0.34 1.36 0 0 Z " fill="#161616" transform="translate(75,148)"/>
<path d="M0 0 C4.62 0 9.24 0 14 0 C13.67 1.32 13.34 2.64 13 4 C9.04 4 5.08 4 1 4 C0.67 2.68 0.34 1.36 0 0 Z " fill="#151515" transform="translate(56,148)"/>
<path d="M0 0 C4.62 0 9.24 0 14 0 C13.67 1.32 13.34 2.64 13 4 C9.04 4 5.08 4 1 4 C0.67 2.68 0.34 1.36 0 0 Z " fill="#161616" transform="translate(37,148)"/>
</svg>
