<svg xmlns="http://www.w3.org/2000/svg" width="224" height="224" viewBox="0 0 224 224">
<g>
<path d="M 171.10 166.26 C162.52,169.16 147.33,169.52 138.17,167.04 C130.69,165.01 122.26,160.48 116.00,155.12 L 112.50 152.12 L 131.66 132.85 L 138.58 136.68 C144.78,140.10 146.23,140.50 152.50,140.47 C160.55,140.44 166.03,138.14 172.33,132.14 C178.08,126.68 180.26,121.72 180.79,112.86 C181.19,106.13 180.93,104.57 178.65,99.86 C177.22,96.91 175.48,93.71 174.78,92.75 C173.66,91.21 174.68,89.84 183.32,81.25 L 193.13 71.50 L 196.69 75.50 C201.23,80.60 207.68,93.91 208.99,100.89 C211.43,113.91 209.82,124.85 203.58,137.53 C196.82,151.25 185.28,161.47 171.10,166.26 ZM 50.03 130.53 C51.95,132.57 51.92,132.62 42.13,142.37 L 32.30 152.17 L 28.56 147.83 C17.48,135.00 13.08,114.00 17.85,96.79 C19.83,89.65 26.32,77.84 30.16,74.39 L 32.50 72.29 L 42.04 82.20 C50.02,90.49 51.34,92.30 50.13,93.30 C49.33,93.96 47.54,96.97 46.15,100.00 C41.63,109.83 43.36,123.43 50.03,130.53 Z" fill="rgb(230,114,12)"/>
<path d="M 192.92 71.71 L 183.32 81.25 C174.68,89.84 173.66,91.21 174.78,92.75 C175.09,93.18 175.61,94.05 176.21,95.14 C170.85,86.91 163.10,83.00 152.34,83.00 C143.80,83.00 139.32,84.62 132.67,90.11 C123.75,97.48 120.72,113.15 126.20,123.50 C128.95,128.69 132.31,132.63 136.62,135.59 L 131.66 132.85 L 112.68 151.95 C100.87,139.80 94.56,122.59 96.95,105.15 C98.90,91.01 103.48,81.62 113.12,71.97 C123.97,61.13 136.97,56.00 153.64,56.00 C169.97,56.00 181.79,60.72 192.92,71.71 ZM 45.21 102.35 C45.49,101.55 45.80,100.76 46.15,100.00 C47.54,96.97 49.33,93.96 50.13,93.30 C51.34,92.30 50.02,90.49 42.04,82.20 L 32.50 72.29 L 30.68 73.92 C31.47,73.06 32.30,72.23 33.16,71.42 C39.80,65.14 45.94,61.50 55.27,58.32 C61.82,56.09 63.68,55.89 75.00,56.27 C85.65,56.64 88.47,57.09 94.07,59.38 C97.69,60.85 102.15,63.31 103.98,64.84 L 107.32 67.63 L 101.73 77.57 C93.77,91.68 93.62,91.87 91.32,89.79 C84.38,83.51 68.92,81.94 59.65,86.57 C52.64,90.07 49.21,93.50 46.18,100.00 C45.82,100.78 45.50,101.56 45.21,102.35 ZM 50.03 130.53 C46.95,127.25 44.92,122.58 44.08,117.54 C45.92,126.69 52.23,134.94 61.82,139.31 C68.66,142.43 77.88,142.18 84.68,138.69 C87.53,137.23 90.14,135.58 90.49,135.02 C92.20,132.25 94.83,134.33 98.96,141.75 C101.33,146.01 104.14,150.76 105.20,152.30 C106.26,153.83 106.98,155.86 106.80,156.79 C106.30,159.41 96.78,164.57 88.14,166.90 C67.56,172.46 47.31,166.98 32.53,151.93 L 42.13 142.37 C51.92,132.62 51.95,132.57 50.03,130.53 ZM 197.82 146.91 C200.00,144.01 201.93,140.87 203.58,137.53 C206.13,132.35 207.90,127.46 208.95,122.60 C207.19,131.44 203.30,139.79 197.82,146.91 ZM 207.55 95.79 C205.90,91.08 203.24,85.45 200.58,81.03 C203.61,85.61 205.96,90.59 207.55,95.79 ZM 156.14 140.28 C159.10,139.83 162.01,139.04 164.07,138.00 C169.16,135.46 174.39,130.72 177.32,126.10 C176.08,128.19 174.45,130.14 172.33,132.14 C167.02,137.19 162.30,139.62 156.14,140.28 ZM 16.31 117.97 C17.05,124.70 18.89,131.32 21.71,137.22 C18.71,131.34 16.96,125.05 16.31,117.97 ZM 116.83 155.81 C122.99,160.86 131.02,165.10 138.17,167.04 C130.15,164.86 122.92,160.95 116.83,155.81 ZM 180.92 110.17 C180.86,107.43 180.52,104.78 179.87,102.59 C180.80,104.95 181.03,106.77 180.92,110.17 ZM 25.38 80.66 C23.39,83.86 21.38,87.69 19.86,91.24 C21.32,87.52 23.17,83.97 25.38,80.66 Z" fill="rgb(247,170,4)"/>
<path d="M 0.00 112.00 L 0.00 0.00 L 112.00 0.00 L 224.00 0.00 L 224.00 112.00 L 224.00 224.00 L 112.00 224.00 L 0.00 224.00 L 0.00 112.00 ZM 88.14 166.90 C96.78,164.57 106.30,159.41 106.80,156.79 C106.98,155.86 106.26,153.83 105.20,152.30 C104.14,150.76 101.33,146.01 98.96,141.75 C94.83,134.33 92.20,132.25 90.49,135.02 C90.14,135.58 87.53,137.23 84.68,138.69 C77.88,142.18 68.66,142.43 61.82,139.31 C46.21,132.19 39.29,114.81 46.18,100.00 C49.21,93.50 52.64,90.07 59.65,86.57 C68.92,81.94 84.38,83.51 91.32,89.79 C93.62,91.87 93.77,91.68 101.73,77.57 L 107.32 67.63 L 103.98 64.84 C102.15,63.31 97.69,60.85 94.07,59.38 C88.47,57.09 85.65,56.64 75.00,56.27 C63.68,55.89 61.82,56.09 55.27,58.32 C45.94,61.50 39.80,65.14 33.16,71.42 C22.32,81.66 15.99,96.46 16.01,111.48 C16.04,127.49 20.80,139.51 31.67,151.03 C46.51,166.76 67.15,172.57 88.14,166.90 ZM 171.10 166.26 C193.78,158.59 210.00,135.97 210.00,112.00 C210.00,97.20 203.93,82.72 193.24,72.03 C182.02,60.81 170.13,56.00 153.64,56.00 C136.97,56.00 123.97,61.13 113.12,71.97 C103.48,81.62 98.90,91.01 96.95,105.15 C93.16,132.72 111.14,159.71 138.17,167.04 C147.33,169.52 162.52,169.16 171.10,166.26 ZM 146.00 140.12 C136.80,137.10 130.68,131.96 126.20,123.50 C120.72,113.15 123.75,97.48 132.67,90.11 C139.32,84.62 143.80,83.00 152.34,83.00 C165.28,83.00 173.86,88.65 179.18,100.68 C181.85,106.72 181.39,118.46 178.25,124.50 C175.60,129.59 169.75,135.16 164.07,138.00 C159.32,140.39 150.08,141.47 146.00,140.12 Z" fill="rgb(254,254,253)"/>
</g>
</svg>