<?xml version="1.0" encoding="UTF-8"?>
<svg version="1.1" xmlns="http://www.w3.org/2000/svg" width="225" height="225">
<path d="M0 0 C74.25 0 148.5 0 225 0 C225 74.25 225 148.5 225 225 C150.75 225 76.5 225 0 225 C0 150.75 0 76.5 0 0 Z " fill="#FEFEFE" transform="translate(0,0)"/>
<path d="M0 0 C5.61 0 11.22 0 17 0 C17.061875 1.876875 17.12375 3.75375 17.1875 5.6875 C17.57021024 9.02468819 17.57021024 9.02468819 19 12 C23.07756377 14.64848527 27.30217291 15.85744205 32 17 C33.06347656 17.40992188 33.06347656 17.40992188 34.1484375 17.828125 C36.17004253 18.21214293 36.17004253 18.21214293 38.140625 16.56640625 C39.18476563 15.57447266 39.18476563 15.57447266 40.25 14.5625 C40.95640625 13.90378906 41.6628125 13.24507812 42.390625 12.56640625 C42.92171875 12.04949219 43.4528125 11.53257813 44 11 C48.18423892 14.50897269 52.19588166 18.08060535 56 22 C54.33248852 25.94139078 51.77289351 28.7892812 49 32 C49.28617187 32.70769531 49.57234375 33.41539063 49.8671875 34.14453125 C50.99181211 36.97936086 52.07087341 39.82574151 53.125 42.6875 C53.47820312 43.64011719 53.83140625 44.59273437 54.1953125 45.57421875 C55 48 55 48 55 50 C58.96 50 62.92 50 67 50 C67 55.61 67 61.22 67 67 C64.1846875 67.0928125 64.1846875 67.0928125 61.3125 67.1875 C57.97531181 67.57021024 57.97531181 67.57021024 55 69 C52.35151473 73.07756377 51.14255795 77.30217291 50 82 C49.72671875 82.70898438 49.4534375 83.41796875 49.171875 84.1484375 C48.78785707 86.17004253 48.78785707 86.17004253 50.43359375 88.140625 C51.09488281 88.83671875 51.75617188 89.5328125 52.4375 90.25 C53.09621094 90.95640625 53.75492187 91.6628125 54.43359375 92.390625 C54.95050781 92.92171875 55.46742188 93.4528125 56 94 C52.49102731 98.18423892 48.91939465 102.19588166 45 106 C41.05860922 104.33248852 38.2107188 101.77289351 35 99 C34.29230469 99.28617187 33.58460938 99.57234375 32.85546875 99.8671875 C30.02063914 100.99181211 27.17425849 102.07087341 24.3125 103.125 C23.35988281 103.47820312 22.40726562 103.83140625 21.42578125 104.1953125 C19 105 19 105 17 105 C17 108.96 17 112.92 17 117 C11.39 117 5.78 117 0 117 C-0.66 113.04 -1.32 109.08 -2 105 C-3.753125 104.38125 -5.50625 103.7625 -7.3125 103.125 C-10.59137621 101.96774957 -13.09091772 100.93938819 -16 99 C-19.44363192 99.32896484 -21.57538312 100.96738345 -24.25 103.0625 C-26.10625 104.5165625 -26.10625 104.5165625 -28 106 C-31.63 102.37 -35.26 98.74 -39 95 C-36.98127747 90.96255494 -34.91899872 88.37989325 -32 85 C-33.50362259 81.21283842 -35.05487001 77.44754813 -36.625 73.6875 C-37.29402344 72.08455078 -37.29402344 72.08455078 -37.9765625 70.44921875 C-38.31429687 69.64097656 -38.65203125 68.83273438 -39 68 C-42.63 67.67 -46.26 67.34 -50 67 C-50 61.39 -50 55.78 -50 50 C-48.123125 49.938125 -46.24625 49.87625 -44.3125 49.8125 C-40.97531181 49.42978976 -40.97531181 49.42978976 -38 48 C-35.35151473 43.92243623 -34.14255795 39.69782709 -33 35 C-32.72671875 34.29101562 -32.4534375 33.58203125 -32.171875 32.8515625 C-31.78785707 30.82995747 -31.78785707 30.82995747 -33.43359375 28.859375 C-34.09488281 28.16328125 -34.75617188 27.4671875 -35.4375 26.75 C-36.09621094 26.04359375 -36.75492188 25.3371875 -37.43359375 24.609375 C-37.95050781 24.07828125 -38.46742187 23.5471875 -39 23 C-35.49102731 18.81576108 -31.91939465 14.80411834 -28 11 C-24.05860922 12.66751148 -21.2107188 15.22710649 -18 18 C-14.21283842 16.49637741 -10.44754813 14.94512999 -6.6875 13.375 C-5.08455078 12.70597656 -5.08455078 12.70597656 -3.44921875 12.0234375 C-2.64097656 11.68570313 -1.83273438 11.34796875 -1 11 C-0.67 7.37 -0.34 3.74 0 0 Z " fill="#030303" transform="translate(104,54)"/>
<path d="M0 0 C0.63035156 0.4125 1.26070312 0.825 1.91015625 1.25 C2.93302734 1.86875 2.93302734 1.86875 3.9765625 2.5 C11.2966905 7.38934546 16.704782 14.70937614 18.91015625 23.25 C19.9277682 32.26215433 20.00072462 41.47097521 14.91015625 49.25 C14.49765625 49.93191406 14.08515625 50.61382812 13.66015625 51.31640625 C8.77081079 58.63653425 1.45078011 64.04462575 -7.08984375 66.25 C-16.10199808 67.26761195 -25.31081896 67.34056837 -33.08984375 62.25 C-33.77175781 61.8375 -34.45367187 61.425 -35.15625 61 C-42.476378 56.11065454 -47.8844695 48.79062386 -50.08984375 40.25 C-51.1074557 31.23784567 -51.18041212 22.02902479 -46.08984375 14.25 C-45.67734375 13.56808594 -45.26484375 12.88617188 -44.83984375 12.18359375 C-35.55190656 -1.72192585 -15.22686539 -8.44959004 0 0 Z " fill="#F9F9F9" transform="translate(128.08984375,80.75)"/>
<path d="M0 0 C1.64574566 -0.02688151 3.29161413 -0.04634123 4.9375 -0.0625 C6.31228516 -0.07990234 6.31228516 -0.07990234 7.71484375 -0.09765625 C10 0 10 0 11 1 C11.07179964 2.51928038 11.08392007 4.04167482 11.0625 5.5625 C11.05347656 6.38878906 11.04445312 7.21507813 11.03515625 8.06640625 C11.02355469 8.70449219 11.01195312 9.34257813 11 10 C10.01 10 9.02 10 8 10 C8 8.68 8 7.36 8 6 C2.67766598 10.51020676 -2.21137533 15.22395 -6.921875 20.375 C-9 22 -9 22 -11.125 21.87890625 C-13.62086958 20.70896738 -15.16638271 19.03007629 -17 17 C-21.97367352 19.00793316 -25.05507021 23.055458 -28.66015625 26.8828125 C-31 29 -31 29 -34 29 C-33.41889329 25.57245533 -32.31446376 23.95461339 -29.83984375 21.546875 C-29.21142578 20.928125 -28.58300781 20.309375 -27.93554688 19.671875 C-27.27619141 19.03765625 -26.61683594 18.4034375 -25.9375 17.75 C-25.27427734 17.1003125 -24.61105469 16.450625 -23.92773438 15.78125 C-22.29170683 14.1805324 -20.64909088 12.58723807 -19 11 C-15.67240077 12.55194754 -13.51419515 14.30621949 -11 17 C-6.92623969 15.38989473 -4.23492931 12.46177729 -1.25 9.375 C-0.74339844 8.859375 -0.23679688 8.34375 0.28515625 7.8125 C1.52803902 6.54616661 2.76465276 5.2736856 4 4 C2.68 3.67 1.36 3.34 0 3 C0 2.01 0 1.02 0 0 Z " fill="#0E0E0E" transform="translate(119,91)"/>
<path d="M0 0 C6.8359375 -0.1953125 6.8359375 -0.1953125 9 0 C11 2 11 2 11.25 4.5 C11 7 11 7 9 9 C5.875 9.125 5.875 9.125 3 9 C3 10.65 3 12.3 3 14 C2.01 13.67 1.02 13.34 0 13 C0 8.71 0 4.42 0 0 Z " fill="#090909" transform="translate(113,119)"/>
<path d="M0 0 C0.66 0 1.32 0 2 0 C2.33 1.65 2.66 3.3 3 5 C3.763125 4.175 4.52625 3.35 5.3125 2.5 C8 0 8 0 11 0 C10.67 0.5775 10.34 1.155 10 1.75 C8.72924102 4.19883862 8.72924102 4.19883862 9 8 C9.99 9.485 9.99 9.485 11 11 C11 11.99 11 12.98 11 14 C8.08366224 12.69267618 6.24135944 11.24135944 4 9 C3.34 9 2.68 9 2 9 C2 10.65 2 12.3 2 14 C1.34 14 0.68 14 0 14 C0 9.38 0 4.76 0 0 Z " fill="#090909" transform="translate(99,119)"/>
<path d="M0 0 C0.99 0 1.98 0 3 0 C3 4.62 3 9.24 3 14 C2.01 13.67 1.02 13.34 0 13 C0 8.71 0 4.42 0 0 Z " fill="#080808" transform="translate(127,119)"/>
<path d="M0 0 C2.475 0.495 2.475 0.495 5 1 C4.67 2.32 4.34 3.64 4 5 C2.68 5 1.36 5 0 5 C0 3.35 0 1.7 0 0 Z " fill="#E6E6E6" transform="translate(116,121)"/>
</svg>
