<?xml version="1.0" encoding="UTF-8"?>
<svg version="1.1" xmlns="http://www.w3.org/2000/svg" width="225" height="225">
<path d="M0 0 C74.25 0 148.5 0 225 0 C225 74.25 225 148.5 225 225 C150.75 225 76.5 225 0 225 C0 150.75 0 76.5 0 0 Z " fill="#FDFDFD" transform="translate(0,0)"/>
<path d="M0 0 C3 1.8125 3 1.8125 5 4 C5 4.99 5 5.98 5 7 C15.56 7 26.12 7 37 7 C37.33 5.68 37.66 4.36 38 3 C40.42569755 0.38771033 41.86619348 0.01702992 45.4375 -0.4375 C49.67028197 0.08231533 51.16297514 0.83874373 54 4 C54.13019531 5.06992187 54.26039063 6.13984375 54.39453125 7.2421875 C55.15274247 10.1021856 55.91598606 10.93810836 58.34204102 12.7253418 C61.4687226 14.47046041 64.63567054 16.03689246 67.875 17.5625 C69.52822266 18.3987793 69.52822266 18.3987793 71.21484375 19.25195312 C75.50733337 21.38397272 75.50733337 21.38397272 80 23 C82.15373331 22.23310373 82.15373331 22.23310373 84 21 C88.37274476 20.43316272 90.51316659 20.74330602 94.4375 22.8125 C95.9609375 24.21875 95.9609375 24.21875 97 26 C96.9140625 28.21875 96.9140625 28.21875 96.5625 30.8125 C96.04241858 38.14364777 100.62149509 42.35520491 105.11352539 47.60473633 C106.71798332 49.42858434 108.33788115 51.22862521 110 53 C110.50168701 53.56783203 111.00337402 54.13566406 111.52026367 54.72070312 C113.02926102 56.32134635 113.02926102 56.32134635 115.8125 55.875 C119 56 119 56 122.375 58 C125.43951613 61.50230415 125.43951613 61.50230415 125.625 65 C125.31555148 68.98509311 123.98431422 71.27148414 121 74 C120.01 74 119.02 74 118 74 C118 82.25 118 90.5 118 99 C119.32 99.33 120.64 99.66 122 100 C124.61228967 102.42569755 124.98297008 103.86619348 125.4375 107.4375 C124.93235165 111.55085087 123.89538484 113.10461516 121 116 C117.66246195 117.66876903 114.18204435 117.35319805 110.6550293 116.29931641 C105.09204347 115.67216968 100.25202633 120.40833951 95.8125 123.375 C94.70712891 124.06722656 93.60175781 124.75945312 92.46289062 125.47265625 C86.72249465 129.02884149 86.72249465 129.02884149 82.99365234 134.40722656 C82.52382266 136.74000127 82.52382266 136.74000127 82.51049805 138.94384766 C82 141 82 141 79.50830078 142.71923828 C76.60032108 144.89089071 76.60032108 144.89089071 76.34057617 148.94238281 C76.29959836 150.52884709 76.2852691 152.11615027 76.29296875 153.703125 C76.27028679 154.95980988 76.27028679 154.95980988 76.24714661 156.24188232 C76.20423992 158.91152802 76.19542914 161.58004373 76.1875 164.25 C76.16435787 166.0625301 76.13899312 167.87503329 76.11132812 169.6875 C76.04844684 174.12510001 76.01613475 178.56199374 76 183 C76.79792969 183.29390625 77.59585938 183.5878125 78.41796875 183.890625 C81 185 81 185 82.3125 186.75 C83.24013137 189.78588449 83.44356634 191.83166896 83 195 C79.71489362 200.54361702 79.71489362 200.54361702 76.0625 201.515625 C72.4659899 201.70634902 70.29359305 201.14991986 67.0625 199.5 C64.65744408 196.58478071 64.05259367 194.68592656 63.7890625 190.96875 C64.13133839 187.77417502 65.72623877 186.14383202 68 184 C68.66 183.67 69.32 183.34 70 183 C70.12383064 177.67985484 70.21444676 172.36055286 70.2746582 167.03930664 C70.2997639 165.23023868 70.33385595 163.42127178 70.37719727 161.61254883 C70.43802579 159.00837249 70.46624809 156.40553969 70.48828125 153.80078125 C70.51408768 152.99538406 70.5398941 152.18998688 70.56648254 151.36018372 C70.56863434 147.02753595 70.46172298 145.53518408 67.52026367 142.12573242 C66.68857666 141.42424072 65.85688965 140.72274902 65 140 C64.1875 137.1875 64.1875 137.1875 64 135 C63.113125 134.9175 62.22625 134.835 61.3125 134.75 C56.30798316 134.0600769 51.58532033 132.38949944 46.79296875 130.83984375 C44.16687054 129.9040126 44.16687054 129.9040126 42 130 C41.24719491 131.90750613 40.52345709 133.82650444 39.8125 135.75 C39.40644531 136.81734375 39.00039062 137.8846875 38.58203125 138.984375 C37.63907655 141.98537583 37.63907655 141.98537583 39.38671875 144.109375 C40.18529297 145.04523438 40.18529297 145.04523438 41 146 C41.25 148.21875 41.25 148.21875 41 150.5 C40.9071875 151.62921875 40.9071875 151.62921875 40.8125 152.78125 C40 155 40 155 37.48828125 156.515625 C33.3736551 160.62379177 34.2166305 165.66989058 34.1875 171.25 C34.16236328 172.37664062 34.13722656 173.50328125 34.11132812 174.6640625 C34.05245108 177.44305908 34.01617475 180.22048033 34 183 C34.62390625 183.30550781 35.2478125 183.61101562 35.890625 183.92578125 C38.2262768 185.11523356 39.50583639 185.83346276 41 188 C41.54763378 192.22460345 41.473273 194.27431473 39.125 197.875 C36.39955109 200.60044891 35.56499391 200.94669869 31.6875 201.3125 C28 201 28 201 25.125 199.5625 C22.52135749 196.42281344 21.98127663 194.21387539 21.72265625 190.1953125 C22 188 22 188 24.3125 184.9375 C27 183 27 183 29 183 C28.97720039 179.08204381 28.89989315 175.16700591 28.8125 171.25 C28.80669922 170.13882813 28.80089844 169.02765625 28.79492188 167.8828125 C28.84060543 161.51373121 28.84060543 161.51373121 25.5 156.4375 C24.675 155.963125 23.85 155.48875 23 155 C22.1875 151.75 22.1875 151.75 22 149 C21.34515625 148.82984375 20.6903125 148.6596875 20.015625 148.484375 C13.74781589 146.82004151 7.6937466 144.87578932 1.62890625 142.57421875 C-0.96641939 141.75836308 -0.96641939 141.75836308 -3.22265625 142.83203125 C-3.80917969 143.21746094 -4.39570312 143.60289062 -5 144 C-8.10048928 145.55024464 -10.57894218 145.28992015 -14 145 C-16.75329021 143.20437595 -18.52627461 141.94745078 -20 139 C-20.35683942 132.69583687 -20.35683942 132.69583687 -18.75 129.5625 C-17.82087365 126.38798496 -18.39885485 125.68220876 -19.875 122.8125 C-20.26429687 122.13832031 -20.65359375 121.46414062 -21.0546875 120.76953125 C-22 119 -22 119 -22 117 C-22.886875 117.0825 -23.77375 117.165 -24.6875 117.25 C-28.78211541 116.94097242 -30.20218425 115.95769094 -33 113 C-33.63671875 110.35546875 -33.63671875 110.35546875 -34 108 C-36.54602221 107.75578971 -39.09218156 107.52255961 -41.640625 107.3046875 C-43.98749092 107.09183222 -46.33134719 106.84420405 -48.671875 106.5703125 C-50.50492188 106.38082031 -50.50492188 106.38082031 -52.375 106.1875 C-53.51710938 106.05730469 -54.65921875 105.92710938 -55.8359375 105.79296875 C-59.77905185 106.050975 -61.1159155 107.40828833 -64 110 C-67.96178018 110.6602967 -69.45174139 110.36550574 -72.8125 108.125 C-76.09481852 104.93646201 -76.21080171 102.68118121 -76.62109375 98.16796875 C-76 96 -76 96 -73.02734375 94.0078125 C-70.67502054 92.19664551 -70.06635039 91.29903196 -69.4128418 88.35375977 C-69.18538569 85.12061546 -69.11742303 81.92854812 -69.125 78.6875 C-69.104375 77.56537109 -69.08375 76.44324219 -69.0625 75.28710938 C-69.0154683 72.52399707 -68.99555259 69.7634302 -69 67 C-69.62390625 66.86722656 -70.2478125 66.73445313 -70.890625 66.59765625 C-73 66 -73 66 -74.75 64.4375 C-76.53844792 60.95002655 -76.9039421 57.7726509 -76 54 C-72.87673515 50.25208218 -72.87673515 50.25208218 -70 49 C-68.00194664 49.0951454 -66.00371633 49.19141146 -64.0078125 49.32421875 C-60.42512053 48.74569067 -58.84715861 46.0380309 -56.7421875 43.2734375 C-55.00260996 41.00340582 -53.0979416 39.12774374 -51.0625 37.125 C-48.22534633 33.94261746 -47.6362265 32.06195035 -47.8125 27.8125 C-47.91111328 26.55566406 -47.91111328 26.55566406 -48.01171875 25.2734375 C-48 23 -48 23 -46.125 19.9375 C-43.5117094 17.55479387 -42.60978648 17.03892254 -39.0625 16.8125 C-36 17 -36 17 -33 19 C-28.6072723 18.64735519 -24.74540615 16.74898663 -20.8125 14.875 C-20.18408203 14.60429687 -19.55566406 14.33359375 -18.90820312 14.0546875 C-15.2193506 12.28719452 -14.11135193 11.30186555 -12.67578125 7.41015625 C-12.34126953 5.72212891 -12.34126953 5.72212891 -12 4 C-8.97008874 -0.54486688 -5.15187328 -1.03037466 0 0 Z " fill="#070707" transform="translate(88,12)"/>
<path d="M0 0 C1.76054057 -0.07988144 3.51999377 -0.18762802 5.27734375 -0.3203125 C11.71420009 -0.36555902 14.86041547 1.9834649 19.5625 6.125 C21.11524517 7.41223104 22.66865052 8.69866605 24.22265625 9.984375 C25.40045654 10.98114258 25.40045654 10.98114258 26.60205078 11.99804688 C30.48088934 15.23633604 34.49425319 18.29631068 38.5 21.375 C44.71111332 26.19540612 50.88757027 31.05476791 57 36 C53.70686767 39.45711657 50.43229138 42.23915259 46.4375 44.84765625 C45.39335938 45.53537109 44.34921875 46.22308594 43.2734375 46.93164062 C42.19320312 47.63482422 41.11296875 48.33800781 40 49.0625 C37.85277724 50.4679316 35.70689557 51.87541472 33.5625 53.28515625 C32.61503906 53.90269775 31.66757813 54.52023926 30.69140625 55.15649414 C27.93635038 56.98688031 27.93635038 56.98688031 25.27734375 59.23217773 C23 61 23 61 21 61 C20.1068861 58.2547237 19.2352727 55.50556099 18.375 52.75 C18.11976562 51.97269531 17.86453125 51.19539063 17.6015625 50.39453125 C17.36953125 49.64042969 17.1375 48.88632813 16.8984375 48.109375 C16.56851807 47.07248535 16.56851807 47.07248535 16.23193359 46.01464844 C15.85953134 42.77984484 17.46824225 40.81163025 19.1875 38.1875 C20.43259642 34.83531733 19.86934141 32.41526984 19 29 C16.66628145 26.21748942 15.17171882 26.02497728 11.5625 25.5 C7.10993081 26.12492199 5.78289736 27.56230326 3 31 C2.67 31.66 2.34 32.32 2 33 C-0.87328604 33.48436247 -3.66812621 33.84541678 -6.5625 34.125 C-7.34947266 34.21136719 -8.13644531 34.29773437 -8.94726562 34.38671875 C-13.9907797 34.91061222 -18.93046678 35.08129836 -24 35 C-24.53181175 32.75256955 -25.05007126 30.50192898 -25.5625 28.25 C-25.85253906 26.99703125 -26.14257812 25.7440625 -26.44140625 24.453125 C-26.93484351 21.40278556 -27.16798057 19.79912584 -26 17 C-25.525625 16.566875 -25.05125 16.13375 -24.5625 15.6875 C-22.68642331 13.96371285 -22.68642331 13.96371285 -22.390625 10.67578125 C-20.48601113 5.64139459 -17.91616519 4.6390578 -13.1875 2.5 C-12.47529297 2.14164063 -11.76308594 1.78328125 -11.02929688 1.4140625 C-6.71349567 -0.64602392 -4.73086149 -1.03928823 0 0 Z " fill="#FBFBFB" transform="translate(80,29)"/>
<path d="M0 0 C2.68847308 1.23845209 4.45015027 2.89966896 6.59765625 4.9375 C11.16296477 9.18398311 15.89996714 13.12011999 20.78515625 16.9921875 C23.03515625 18.9375 23.03515625 18.9375 25.03515625 21.9375 C22.83167565 23.0935727 20.62312469 24.23734721 18.41015625 25.375 C17.48396484 25.86323242 17.48396484 25.86323242 16.5390625 26.36132812 C12.70981747 28.31625848 9.33151543 29.58471977 5.03515625 29.9375 C3.68537776 29.30479133 2.35162744 28.63687532 1.03515625 27.9375 C-3.00620157 27.33559564 -4.48943185 27.6138153 -7.90234375 29.9375 C-10.33511588 33.47607764 -10.28247912 34.81899277 -9.5546875 38.875 C-9.03186379 41.02653524 -9.03186379 41.02653524 -7.7109375 43.078125 C-6.50553904 47.69776726 -8.41125253 51.34788626 -10.08984375 55.6875 C-10.39921875 56.56277344 -10.70859375 57.43804687 -11.02734375 58.33984375 C-12.83423092 63.15572072 -12.83423092 63.15572072 -13.96484375 64.9375 C-17.24716046 66.22414863 -19.64251567 65.86279931 -23.02734375 65 C-23.88457031 64.80535156 -24.74179688 64.61070312 -25.625 64.41015625 C-29.22822709 62.14234889 -29.80450885 58.82881747 -30.96484375 54.9375 C-31.29830811 53.90826416 -31.63177246 52.87902832 -31.9753418 51.81860352 C-33.11205301 48.2851605 -34.19821434 44.73892059 -35.27734375 41.1875 C-35.66212891 39.96933594 -36.04691406 38.75117187 -36.44335938 37.49609375 C-36.79720703 36.32691406 -37.15105469 35.15773437 -37.515625 33.953125 C-37.84216064 32.89383789 -38.16869629 31.83455078 -38.50512695 30.74316406 C-38.96484375 27.9375 -38.96484375 27.9375 -38.23754883 25.69848633 C-36.17983566 22.85131865 -33.26837416 21.21864216 -30.33984375 19.375 C-28.98618784 18.49861691 -27.63335206 17.62096601 -26.28125 16.7421875 C-25.57629395 16.28682617 -24.87133789 15.83146484 -24.14501953 15.36230469 C-20.48142314 12.96804393 -16.87982573 10.48488719 -13.27734375 8 C-12.60687012 7.53972412 -11.93639648 7.07944824 -11.24560547 6.60522461 C-10.61283691 6.16960205 -9.98006836 5.73397949 -9.328125 5.28515625 C-8.44181396 4.67824951 -8.44181396 4.67824951 -7.53759766 4.05908203 C-5.81667579 2.86571465 -5.81667579 2.86571465 -3.7578125 1.05859375 C-1.96484375 -0.0625 -1.96484375 -0.0625 0 0 Z " fill="#FBFBFB" transform="translate(141.96484375,69.0625)"/>
<path d="M0 0 C4.50225791 -0.12361526 9.00352849 -0.21434063 13.50708008 -0.2746582 C15.03883061 -0.29980078 16.57046117 -0.33392047 18.10180664 -0.37719727 C20.30384884 -0.43786942 22.50430574 -0.46620891 24.70703125 -0.48828125 C25.39150833 -0.51408768 26.07598541 -0.5398941 26.78120422 -0.56648254 C28.72192383 -0.56762695 28.72192383 -0.56762695 32 0 C33.89331055 2.46801758 33.89331055 2.46801758 35 5 C35.98823854 6.20684449 35.98823854 6.20684449 37.890625 6.1328125 C38.66921875 6.13023438 39.4478125 6.12765625 40.25 6.125 C41.01828125 6.12757812 41.7865625 6.13015625 42.578125 6.1328125 C45.01206053 6.08701416 45.01206053 6.08701416 47.32226562 5.34960938 C50.72650434 4.90514641 52.23616686 5.70710113 55.265625 7.2734375 C56.72355469 8.0159375 56.72355469 8.0159375 58.2109375 8.7734375 C59.21382812 9.30195312 60.21671875 9.83046875 61.25 10.375 C62.26835937 10.89578125 63.28671875 11.4165625 64.3359375 11.953125 C71.78893372 15.78893372 71.78893372 15.78893372 73 17 C73.5 19.71484375 73.5 19.71484375 73 23 C70.96952846 25.28505429 68.53588361 26.8780875 66 28.5625 C64.96975708 29.27647949 64.96975708 29.27647949 63.91870117 30.00488281 C61.95777044 31.35532855 59.98013835 32.67797421 58 34 C57.12988281 34.61230469 56.25976562 35.22460938 55.36328125 35.85546875 C50.68504058 39.03667241 50.68504058 39.03667241 48.17578125 38.90234375 C44.99273107 37.58226369 42.5173033 35.47520715 39.875 33.3125 C38.62294294 32.30791149 37.37031008 31.30404032 36.1171875 30.30078125 C35.45170898 29.76533691 34.78623047 29.22989258 34.10058594 28.67822266 C30.43086645 25.74637098 26.71253247 22.87729172 23 20 C21.48161991 18.81790217 19.96338971 17.63561178 18.4453125 16.453125 C15.55284197 14.20216536 12.65148981 11.96352778 9.7421875 9.734375 C8.45308533 8.73963474 7.16402069 7.74484584 5.875 6.75 C5.276875 6.29625 4.67875 5.8425 4.0625 5.375 C2.67104768 4.29645801 1.32940975 3.15414994 0 2 C0 1.34 0 0.68 0 0 Z " fill="#F8F8F8" transform="translate(93,23)"/>
<path d="M0 0 C2.16386458 6.07215104 3.21236151 12.17311396 4.28710938 18.51318359 C4.62428393 20.49578948 4.97179836 22.47639102 5.3203125 24.45703125 C5.536875 25.71902344 5.7534375 26.98101562 5.9765625 28.28125 C6.17330566 29.42658203 6.37004883 30.57191406 6.57275391 31.75195312 C7.65899677 40.00988171 7.65899677 40.00988171 5.4140625 43.3828125 C0.58299479 46.61915883 -5.50181787 44.71689659 -11 44 C-11.99 43.89558594 -12.98 43.79117188 -14 43.68359375 C-18.56464539 43.03829418 -20.39042726 42.75394523 -23.375 39.0625 C-23.91125 38.051875 -24.4475 37.04125 -25 36 C-26.02275024 35.33097656 -26.02275024 35.33097656 -27.06616211 34.6484375 C-29 33 -29 33 -29.53344727 30.50390625 C-29.56896175 27.3344358 -29.59390086 24.16964003 -29.5625 21 C-29.58634766 19.89398438 -29.61019531 18.78796875 -29.63476562 17.6484375 C-29.63283203 16.58882812 -29.63089844 15.52921875 -29.62890625 14.4375 C-29.62963135 13.46683594 -29.63035645 12.49617188 -29.63110352 11.49609375 C-29 9 -29 9 -26.53491211 7.29296875 C-25.69839111 6.86628906 -24.86187012 6.43960938 -24 6 C-22.80767387 3.94996045 -22.80767387 3.94996045 -22 2 C-15.73074711 -1.13462645 -6.85123649 -0.13119389 0 0 Z " fill="#F8F8F8" transform="translate(52,70)"/>
<path d="M0 0 C5.63708865 0.41114159 11.08029128 1.5721203 16.5859375 2.8125 C17.36893219 2.98628174 18.15192688 3.16006348 18.95864868 3.33911133 C20.59766837 3.70377914 22.23628651 4.07025608 23.87451172 4.43847656 C26.38793998 5.00290587 28.90282857 5.56044182 31.41796875 6.1171875 C33.01571533 6.47355358 34.61337484 6.83031033 36.2109375 7.1875 C36.96297455 7.35419189 37.7150116 7.52088379 38.48983765 7.69262695 C43.76911117 8.88455559 43.76911117 8.88455559 46 10 C45.68024237 12.95385358 45.09854776 13.91080833 42.85791016 15.9387207 C39.80002401 18.09428413 36.72518052 20.21813131 33.625 22.3125 C32.57699219 23.06595703 31.52898437 23.81941406 30.44921875 24.59570312 C25.11393694 28.213011 21.44411627 30.58332172 14.875 29.8515625 C13.9984375 29.6654541 13.121875 29.4793457 12.21875 29.28759766 C11.4865625 29.19269043 10.754375 29.0977832 10 29 C8.321702 30.31866272 6.65385233 31.65080468 5 33 C1.84582205 32.93960085 -1.00934004 31.94624655 -4 31 C-5.14597656 30.65710938 -6.29195312 30.31421875 -7.47265625 29.9609375 C-10.65652978 28.9978071 -13.83046592 28.00915614 -17 27 C-16.32391486 22.04981339 -15.06302142 17.5156753 -13.4375 12.8125 C-13.22287109 12.10158203 -13.00824219 11.39066406 -12.78710938 10.65820312 C-11.70578569 7.57657558 -10.99435145 5.55896092 -8.07080078 3.91552734 C-5.91015625 3.13671875 -5.91015625 3.13671875 -3.82446289 2.5769043 C-1.77603866 2.08338366 -1.77603866 2.08338366 0 0 Z " fill="#F9F9F9" transform="translate(149,110)"/>
<path d="M0 0 C2.25 1.875 2.25 1.875 4 4 C4.80308594 4.18949219 5.60617188 4.37898438 6.43359375 4.57421875 C9.45269592 6.25149774 9.57497152 6.85117883 10.58203125 10.02734375 C11.01340466 11.65859891 11.42283174 13.29578289 11.8125 14.9375 C12.13637695 16.1740332 12.13637695 16.1740332 12.46679688 17.43554688 C13.3108097 20.73389541 14 23.58038606 14 27 C12.36694336 28.45458984 12.36694336 28.45458984 10.08984375 29.9609375 C9.26419922 30.51523438 8.43855469 31.06953125 7.58789062 31.640625 C6.71326172 32.21296875 5.83863281 32.7853125 4.9375 33.375 C3.23788367 34.5072159 1.53865875 35.64001961 -0.16015625 36.7734375 C-0.98330322 37.31556885 -1.8064502 37.8577002 -2.65454102 38.41625977 C-4.79197823 39.85953604 -6.84783091 41.37317784 -8.90625 42.92578125 C-12 45 -12 45 -15.4375 44.8125 C-16.283125 44.544375 -17.12875 44.27625 -18 44 C-20.74842581 36.69773084 -22.1417023 29.34950054 -23.36254883 21.66845703 C-23.69035185 19.60706613 -24.02884103 17.54764267 -24.36914062 15.48828125 C-26 5.49453289 -26 5.49453289 -26 2 C-5.8331925 -0.59320602 -5.8331925 -0.59320602 0 0 Z " fill="#FBFBFB" transform="translate(83,67)"/>
<path d="M0 0 C3.2188927 2.16644404 5.28522662 5.17513121 7.60546875 8.25 C8.08693359 8.87519531 8.56839844 9.50039063 9.06445312 10.14453125 C9.99416891 11.35431273 10.91467069 12.5712448 11.82470703 13.79589844 C13.0875635 15.49639076 13.0875635 15.49639076 14.9453125 17.3203125 C16.39419001 20.03244621 16.57784567 22.36622205 16.06298828 25.38671875 C13.78943886 29.81845318 8.37262507 31.14533349 3.98046875 32.875 C2.93568359 33.31585938 1.89089844 33.75671875 0.81445312 34.2109375 C-1.7655615 35.29477926 -4.35420313 36.34744266 -6.95703125 37.375 C-12.12775704 33.62801284 -16.95313934 29.70881278 -21.58203125 25.3125 C-25.60222758 21.52050322 -29.67904526 17.8757543 -33.95703125 14.375 C-29.60900615 10.85254928 -25.14478262 7.53434598 -20.58984375 4.28515625 C-18.63602563 2.86762352 -16.7458227 1.36153978 -14.89453125 -0.1875 C-10.01647778 -2.57463255 -5.06722727 -1.61827617 0 0 Z " fill="#FBFBFB" transform="translate(179.95703125,51.625)"/>
<path d="M0 0 C6.71267175 0.70405896 13.02638199 2.57870091 19.5 4.4375 C20.60214844 4.75009766 21.70429687 5.06269531 22.83984375 5.38476562 C24.96291236 5.9875336 27.08343904 6.59934941 29.20092773 7.22143555 C31.89276003 8.01196261 31.89276003 8.01196261 34.25415039 8.42895508 C36.12890625 8.796875 36.12890625 8.796875 39 10 C40.55859375 13.08203125 40.55859375 13.08203125 41.4375 16.8125 C41.74558594 18.03582031 42.05367187 19.25914062 42.37109375 20.51953125 C42.9074913 23.48804192 43.30636559 26.00621691 43 29 C42.34 29.66 41.68 30.32 41 31 C35.39344575 30.60466605 30.10601534 29.08381619 24.75 27.4375 C23.94820312 27.22287109 23.14640625 27.00824219 22.3203125 26.78710938 C16.52835678 24.98075529 16.52835678 24.98075529 14.96069336 22.07080078 C14.50146017 20.65123609 14.06969702 19.22243397 13.66845703 17.78540039 C13.1153412 15.73737264 13.1153412 15.73737264 10.66015625 14.625 C9.80292969 14.41875 8.94570312 14.2125 8.0625 14 C4.09277584 12.69997337 2.2700674 11.74970657 0.3125 8 C-1.04754303 4.93241395 -1.05771926 3.18025656 0 0 Z " fill="#F8F8F8" transform="translate(71,125)"/>
<path d="M0 0 C3.59770188 3.59770188 4.24719829 9.00979687 5.625 13.8125 C6.11226562 15.4531543 6.11226562 15.4531543 6.609375 17.12695312 C6.91617188 18.18462891 7.22296875 19.24230469 7.5390625 20.33203125 C7.95986084 21.78186401 7.95986084 21.78186401 8.38916016 23.26098633 C8.98659849 25.93990747 9.11632642 28.26632902 9 31 C2.22538635 30.27554709 -4.19869509 28.44941403 -10.75 26.625 C-11.88566406 26.32078125 -13.02132812 26.0165625 -14.19140625 25.703125 C-15.82142578 25.25066406 -15.82142578 25.25066406 -17.484375 24.7890625 C-18.47147461 24.51787598 -19.45857422 24.24668945 -20.47558594 23.96728516 C-23.0278873 22.98931436 -24.2706028 22.0780542 -26 20 C-24.60589002 15.81767005 -21.62357598 14.51281631 -18.0625 12.25 C-16.69730261 11.36292348 -15.33272137 10.474898 -13.96875 9.5859375 C-13.29585937 9.14991211 -12.62296875 8.71388672 -11.9296875 8.26464844 C-7.88265125 5.61236506 -3.94382142 2.8024331 0 0 Z " fill="#F6F6F6" transform="translate(98,98)"/>
<path d="M0 0 C0 7.92 0 15.84 0 24 C-1.65 24.33 -3.3 24.66 -5 25 C-7.37884673 23.21435935 -9.30526018 21.53179657 -11.375 19.4375 C-12.5213369 18.32599878 -13.66846565 17.21531362 -14.81640625 16.10546875 C-15.6364917 15.29988525 -15.6364917 15.29988525 -16.47314453 14.47802734 C-19.19625231 11.84200328 -22.09554503 9.43163672 -25 7 C-21.84332975 3.58787317 -18.36957251 2.02077176 -14.1875 0.125 C-13.48818359 -0.22046875 -12.78886719 -0.5659375 -12.06835938 -0.921875 C-11.37935547 -1.23382813 -10.69035156 -1.54578125 -9.98046875 -1.8671875 C-9.05077271 -2.30200439 -9.05077271 -2.30200439 -8.10229492 -2.74560547 C-6 -3 -6 -3 0 0 Z " fill="#F3F3F3" transform="translate(202,86)"/>
<path d="M0 0 C2.07767937 1.65641197 3.92564093 3.27686606 5.8125 5.125 C6.86520359 6.12441658 7.91859114 7.12311323 8.97265625 8.12109375 C9.4845752 8.61077637 9.99649414 9.10045898 10.52392578 9.60498047 C13.59187869 12.50446491 16.80287409 15.24482973 20 18 C16.75855035 19.62072482 13.53819986 18.19701771 10.140625 17.41796875 C9.35862732 17.24372879 8.57662964 17.06948883 7.77093506 16.88996887 C6.11251156 16.51900137 4.45483237 16.14469324 2.79785156 15.76733398 C0.27574152 15.19335819 -2.24854796 14.62996709 -4.7734375 14.06835938 C-6.38555775 13.70635687 -7.99754149 13.34374582 -9.609375 12.98046875 C-10.35958923 12.81266403 -11.10980347 12.64485931 -11.88275146 12.4719696 C-16.01259597 11.52754486 -19.99951489 10.41595079 -24 9 C-20.8373953 5.56465247 -17.34405249 4.09726082 -13.125 2.25 C-12.41730469 1.92128906 -11.70960938 1.59257813 -10.98046875 1.25390625 C-4.10148316 -1.78207063 -4.10148316 -1.78207063 0 0 Z " fill="#F6F6F6" transform="translate(174,96)"/>
<path d="M0 0 C1.13308594 0.11021484 1.13308594 0.11021484 2.2890625 0.22265625 C2.62924413 1.92963907 2.9608714 3.63832758 3.2890625 5.34765625 C3.4746875 6.29898438 3.6603125 7.2503125 3.8515625 8.23046875 C4.29631296 11.27224421 4.36192721 14.15323018 4.2890625 17.22265625 C1.91468001 17.56099065 -0.46028709 17.89344627 -2.8359375 18.22265625 C-3.50109375 18.31804687 -4.16625 18.4134375 -4.8515625 18.51171875 C-8.83722731 19.05877078 -12.68953688 19.32287807 -16.7109375 19.22265625 C-16.7109375 15.22265625 -16.7109375 15.22265625 -15.42578125 13.58203125 C-14.83925781 13.0509375 -14.25273438 12.51984375 -13.6484375 11.97265625 C-10.23493528 8.79361681 -7.34671726 5.4057195 -4.484375 1.7265625 C-2.7109375 0.22265625 -2.7109375 0.22265625 0 0 Z " fill="#F4F4F4" transform="translate(46.7109375,47.77734375)"/>
<path d="M0 0 C4.95 0.99 4.95 0.99 10 2 C9.05610147 6.71949266 7.73563661 10.54771478 6 15 C5.34 15 4.68 15 4 15 C3.3299166 12.87607494 2.66403203 10.75082476 2 8.625 C1.62875 7.44164062 1.2575 6.25828125 0.875 5.0390625 C0 2 0 2 0 0 Z " fill="#EDEDED" transform="translate(115,137)"/>
<path d="M0 0 C2.5625 0.1875 2.5625 0.1875 4.5625 2.1875 C4.8125 4.6875 4.8125 4.6875 4.5625 7.1875 C2.5625 9.1875 2.5625 9.1875 0.0625 9.5 C-1.175 9.3453125 -1.175 9.3453125 -2.4375 9.1875 C-4.4375 6.1875 -4.4375 6.1875 -4.125 3.5625 C-3.16420807 0.24340062 -3.16420807 0.24340062 0 0 Z " fill="#F0F0F0" transform="translate(140.4375,100.8125)"/>
<path d="M0 0 C2.375 0.6875 2.375 0.6875 3.375 1.6875 C3.5625 4.125 3.5625 4.125 3.375 6.6875 C1.375 8.6875 1.375 8.6875 -1.125 8.9375 C-3.625 8.6875 -3.625 8.6875 -5.625 6.6875 C-5.9375 4.1875 -5.9375 4.1875 -5.625 1.6875 C-2.625 -0.3125 -2.625 -0.3125 0 0 Z " fill="#F2F2F2" transform="translate(120.625,157.3125)"/>
<path d="M0 0 C1 1 1 1 1.1875 3.4375 C1 6 1 6 -1 8 C-3.5 8.25 -3.5 8.25 -6 8 C-6.66 7.34 -7.32 6.68 -8 6 C-7.75 2.9375 -7.75 2.9375 -7 0 C-4.31633121 -1.3418344 -2.84719317 -0.73004953 0 0 Z " fill="#F1F1F1" transform="translate(165,144)"/>
<path d="M0 0 C3.125 0.375 3.125 0.375 6 1 C6.625 3.875 6.625 3.875 7 7 C5 9 5 9 2.5 9.25 C0 9 0 9 -2 7 C-2.25 4.5 -2.25 4.5 -2 2 C-1.34 1.34 -0.68 0.68 0 0 Z " fill="#F1F1F1" transform="translate(75,143)"/>
<path d="M0 0 C3.125 0.375 3.125 0.375 6 1 C6.625 3.875 6.625 3.875 7 7 C5 9 5 9 2.5 9.25 C0 9 0 9 -2 7 C-2.25 4.5 -2.25 4.5 -2 2 C-1.34 1.34 -0.68 0.68 0 0 Z " fill="#F1F1F1" transform="translate(61,115)"/>
<path d="M0 0 C2.5 0.25 2.5 0.25 4.5 2.25 C4.125 5.375 4.125 5.375 3.5 8.25 C0.625 8.875 0.625 8.875 -2.5 9.25 C-4.5 7.25 -4.5 7.25 -4.75 4.75 C-4.40058445 1.25584452 -3.49415548 0.34941555 0 0 Z " fill="#F1F1F1" transform="translate(91.5,58.75)"/>
<path d="M0 0 C2.5625 0.1875 2.5625 0.1875 4.5625 2.1875 C4.8125 4.6875 4.8125 4.6875 4.5625 7.1875 C3.9025 7.8475 3.2425 8.5075 2.5625 9.1875 C-0.73464793 8.85778521 -2.0601839 8.5648161 -4.4375 6.1875 C-3.71780303 0.28598485 -3.71780303 0.28598485 0 0 Z " fill="#F1F1F1" transform="translate(175.4375,37.8125)"/>
<path d="M0 0 C3.29714793 0.32971479 4.6226839 0.6226839 7 3 C6.44444444 7.55555556 6.44444444 7.55555556 5 9 C2.5625 9.1875 2.5625 9.1875 0 9 C-2 7 -2 7 -2.25 4.5 C-2 2 -2 2 0 0 Z " fill="#F2F2F2" transform="translate(47,34)"/>
<path d="M0 0 C4.55555556 0.55555556 4.55555556 0.55555556 6 2 C6.1875 4.4375 6.1875 4.4375 6 7 C4 9 4 9 1.5 9.25 C-1 9 -1 9 -3 7 C-2.67028521 3.70285207 -2.3773161 2.3773161 0 0 Z " fill="#F2F2F2" transform="translate(160,199)"/>
<path d="M0 0 C3.125 0.375 3.125 0.375 6 1 C6.6875 3.3125 6.6875 3.3125 7 6 C5.875 7.875 5.875 7.875 4 9 C-0.42105263 8.57894737 -0.42105263 8.57894737 -2 7 C-2.1875 4.5625 -2.1875 4.5625 -2 2 C-1.34 1.34 -0.68 0.68 0 0 Z " fill="#F3F3F3" transform="translate(19,108)"/>
<path d="M0 0 C2.5625 0.1875 2.5625 0.1875 4.5625 2.1875 C4.8125 4.6875 4.8125 4.6875 4.5625 7.1875 C3.9025 7.8475 3.2425 8.5075 2.5625 9.1875 C-0.73464793 8.85778521 -2.0601839 8.5648161 -4.4375 6.1875 C-3.71780303 0.28598485 -3.71780303 0.28598485 0 0 Z " fill="#F3F3F3" transform="translate(203.4375,72.8125)"/>
<path d="M0 0 C1.2375 0.1546875 1.2375 0.1546875 2.5 0.3125 C4.5 3.3125 4.5 3.3125 4.25 5.375 C3.5 7.3125 3.5 7.3125 1.5 9.3125 C-3.05555556 8.75694444 -3.05555556 8.75694444 -4.5 7.3125 C-4.6875 4.875 -4.6875 4.875 -4.5 2.3125 C-2.5 0.3125 -2.5 0.3125 0 0 Z " fill="#F2F2F2" transform="translate(21.5,65.6875)"/>
<path d="M0 0 C2.5 0.25 2.5 0.25 4.5 2.25 C4.17028521 5.54714793 3.8773161 6.8726839 1.5 9.25 C-3.05555556 8.69444444 -3.05555556 8.69444444 -4.5 7.25 C-4.6875 4.8125 -4.6875 4.8125 -4.5 2.25 C-2.5 0.25 -2.5 0.25 0 0 Z " fill="#F3F3F3" transform="translate(84.5,16.75)"/>
<path d="M0 0 C2.625 0.375 2.625 0.375 5 1 C5.625 3.875 5.625 3.875 6 7 C4 9 4 9 1.5 9.25 C-1 9 -1 9 -3 7 C-2.67028521 3.70285207 -2.3773161 2.3773161 0 0 Z " fill="#F5F5F5" transform="translate(118,199)"/>
<path d="M0 0 C2.375 0.75 2.375 0.75 3.375 1.75 C3.5625 4.1875 3.5625 4.1875 3.375 6.75 C2.715 7.41 2.055 8.07 1.375 8.75 C-1.75 8.375 -1.75 8.375 -4.625 7.75 C-5.3125 5.4375 -5.3125 5.4375 -5.625 2.75 C-3.9659358 -0.015107 -3.22812218 -0.30744021 0 0 Z " fill="#F5F5F5" transform="translate(204.625,115.25)"/>
<path d="M0 0 C2.5625 0.1875 2.5625 0.1875 4.5625 2.1875 C4.1875 5.3125 4.1875 5.3125 3.5625 8.1875 C1.25 8.875 1.25 8.875 -1.4375 9.1875 C-3.3125 8.0625 -3.3125 8.0625 -4.4375 6.1875 C-3.87661439 0.29820111 -3.87661439 0.29820111 0 0 Z " fill="#F5F5F5" transform="translate(133.4375,16.8125)"/>
</svg>
