<?xml version="1.0" encoding="UTF-8"?>
<svg version="1.1" xmlns="http://www.w3.org/2000/svg" width="225" height="225">
<path d="M0 0 C74.25 0 148.5 0 225 0 C225 74.25 225 148.5 225 225 C150.75 225 76.5 225 0 225 C0 150.75 0 76.5 0 0 Z " fill="#FEFEFE" transform="translate(0,0)"/>
<path d="M0 0 C1.01964844 -0.00257812 2.03929687 -0.00515625 3.08984375 -0.0078125 C8.57883931 0.06356586 12.81648018 0.31520652 17.5 3.5 C19.49060508 7.48121015 18.72875112 12.49773109 18.75 16.875 C18.770625 17.92945313 18.79125 18.98390625 18.8125 20.0703125 C18.82023437 21.59398437 18.82023437 21.59398437 18.828125 23.1484375 C18.84214355 24.54328369 18.84214355 24.54328369 18.85644531 25.96630859 C18.4402522 28.92470043 17.46111665 30.2922875 15.5 32.5 C17.15 34.48 18.8 36.46 20.5 38.5 C14.640625 38.890625 14.640625 38.890625 12.5 38.5 C11.94699219 37.84644531 11.39398438 37.19289062 10.82421875 36.51953125 C7.25391661 33.41726872 3.64431948 33.94097371 -0.9375 33.9375 C-11.37012709 33.88188051 -11.37012709 33.88188051 -15.5 30.5 C-18.46300108 26.05549837 -17.94612749 21.85736711 -18 16.625 C-18.04125 15.63113281 -18.0825 14.63726562 -18.125 13.61328125 C-18.17648794 8.80559445 -18.08005993 6.29366308 -15.1875 2.3359375 C-10.61528416 -0.65223551 -5.25828673 -0.14624818 0 0 Z " fill="#0C658D" transform="translate(153.5,125.5)"/>
<path d="M0 0 C3.33035707 2.72139552 4.92022255 5.49526393 6.578125 9.421875 C7.23554687 10.95908203 7.23554687 10.95908203 7.90625 12.52734375 C8.3496875 13.59082031 8.793125 14.65429688 9.25 15.75 C9.70890625 16.82894531 10.1678125 17.90789062 10.640625 19.01953125 C11.76910288 21.67615626 12.88850946 24.33623354 14 27 C14.86386719 25.27226562 15.72769018 23.54450913 16.59130859 21.81665039 C17.32392642 20.35190423 18.05732895 18.88755029 18.79150391 17.42358398 C20.40403753 14.20601192 22.00678623 10.98597287 23.57421875 7.74609375 C24.00347656 6.86050781 24.43273438 5.97492188 24.875 5.0625 C25.24367187 4.29035156 25.61234375 3.51820313 25.9921875 2.72265625 C27 1 27 1 29 0 C31.09375 0.05078125 31.09375 0.05078125 33.5 0.3125 C34.2940625 0.39113281 35.088125 0.46976562 35.90625 0.55078125 C38 1 38 1 40 3 C40.22705078 6.07275391 40.22705078 6.07275391 40.1953125 9.9765625 C40.1924826 10.66181 40.18965271 11.3470575 40.18673706 12.05307007 C40.17553281 14.24389027 40.15042859 16.43430316 40.125 18.625 C40.11497048 20.1093691 40.10584458 21.5937446 40.09765625 23.078125 C40.07559294 26.71888261 40.04106176 30.35940156 40 34 C37.36 34 34.72 34 32 34 C31.505 21.625 31.505 21.625 31 9 C27.79381847 16.47700297 27.79381847 16.47700297 24.59814453 23.95849609 C24.19708496 24.88742676 23.79602539 25.81635742 23.3828125 26.7734375 C22.97434082 27.72653809 22.56586914 28.67963867 22.14501953 29.66162109 C21 32 21 32 19 34 C11.70615863 34.5788763 11.70615863 34.5788763 9.53173828 32.79638672 C7.68392395 30.62931342 6.67759901 28.49642374 5.51953125 25.89453125 C5.12096924 25.00870361 4.72240723 24.12287598 4.31176758 23.21020508 C3.56963013 21.52834106 3.56963013 21.52834106 2.8125 19.8125 C1.224375 16.244375 -0.36375 12.67625 -2 9 C-2.33 17.25 -2.66 25.5 -3 34 C-5.31 34 -7.62 34 -10 34 C-10.07406517 29.4793661 -10.12856045 24.959084 -10.16479492 20.43798828 C-10.17989711 18.89951426 -10.20038046 17.36108339 -10.22631836 15.82275391 C-10.26264074 13.61349859 -10.27971119 11.40481152 -10.29296875 9.1953125 C-10.30845261 8.50567413 -10.32393646 7.81603577 -10.33988953 7.10549927 C-10.34057617 5.16455078 -10.34057617 5.16455078 -10 2 C-6.2794164 -0.48038907 -4.40203429 -0.46337203 0 0 Z " fill="#0F678E" transform="translate(14,125)"/>
<path d="M0 0 C4.41147406 0.44114741 6.12572704 1.91049439 9.75 4.375 C11.79473062 4.94454643 11.79473062 4.94454643 14 5.3125 C26.46509242 7.7595064 35.94323368 15.88557979 42.953125 26.19140625 C44.41960981 28.78963477 45.62479706 31.29413221 46.796875 34.02734375 C51.62486632 46.08151439 51.62486632 46.08151439 62.01953125 53.17578125 C66.69922629 55.23109795 70.12211245 58.84564767 73.75 62.375 C71.25494038 64.87005962 70.07671112 64.73448376 66.625 65 C65.25988281 65.11214844 65.25988281 65.11214844 63.8671875 65.2265625 C63.16851562 65.27554688 62.46984375 65.32453125 61.75 65.375 C65.52024843 69.30234211 69.63470051 72.81906161 73.75 76.375 C68.54550532 76.375 63.72725176 73.31588851 60.05078125 69.70703125 C58.89217533 68.30940061 57.81165875 66.84762343 56.75 65.375 C57.245 64.385 57.245 64.385 57.75 63.375 C60.25390625 62.7421875 60.25390625 62.7421875 63.3125 62.25 C64.83037109 61.99863281 64.83037109 61.99863281 66.37890625 61.7421875 C67.55259766 61.56042969 67.55259766 61.56042969 68.75 61.375 C67.06692057 60.26410671 65.37828765 59.16162575 63.6875 58.0625 C62.74777344 57.44761719 61.80804688 56.83273438 60.83984375 56.19921875 C57.7668942 54.24704982 57.7668942 54.24704982 54.140625 53.125 C49.62197665 50.7927944 48.53032729 48.21807911 46.5625 43.6875 C46.24603516 43.00494141 45.92957031 42.32238281 45.60351562 41.61914062 C44.96310581 40.23789012 44.32891828 38.85373796 43.70092773 37.46679688 C37.96074085 24.83985946 29.72662899 15.06830363 16.75 9.375 C15.491875 9.25125 14.23375 9.1275 12.9375 9 C8.40297701 8.54401445 5.60489005 6.74724003 1.75 4.375 C-0.51985894 3.61459428 -0.51985894 3.61459428 -2.25 3.375 C-0.82122742 6.94693145 0.46620093 9.97218842 2.6875 13.125 C5.1007398 16.92768089 6.41207503 20.72474761 7.8203125 24.984375 C8.61856648 27.51205889 8.61856648 27.51205889 10.75 29.375 C10.5478871 31.26138709 10.3338781 33.14749452 10.05078125 35.0234375 C9.24723542 41.30570493 9.05036031 47.52578068 11.75 53.375 C12.41 53.705 13.07 54.035 13.75 54.375 C13.6571875 53.0446875 13.6571875 53.0446875 13.5625 51.6875 C13.76951982 48.03014983 14.666074 46.32722849 16.75 43.375 C19.56158409 45.87324489 21.19837831 48.653476 23 51.9375 C23.54140625 52.90816406 24.0828125 53.87882812 24.640625 54.87890625 C25.18976563 56.11447266 25.18976563 56.11447266 25.75 57.375 C25.42 58.035 25.09 58.695 24.75 59.375 C22.44 56.735 20.13 54.095 17.75 51.375 C17.5025 52.344375 17.255 53.31375 17 54.3125 C16.5875 55.323125 16.175 56.33375 15.75 57.375 C13.625 58.25 13.625 58.25 11.75 58.375 C7.20351318 53.09520885 6.60894347 49.88824986 6.625 43 C6.62113281 41.34871094 6.62113281 41.34871094 6.6171875 39.6640625 C6.75 36.375 6.75 36.375 7.36328125 33.1328125 C7.92627307 29.11794151 6.06907405 27.6342392 3.75 24.375 C3.06826676 22.74370976 2.4247578 21.09611642 1.8125 19.4375 C0.54560075 16.07592669 -0.79966017 13.40124828 -3 10.5625 C-5.25 7.375 -5.25 7.375 -5.6875 4.5625 C-4.94183895 0.83419474 -3.67960659 0.42456999 0 0 Z " fill="#186890" transform="translate(145.25,55.625)"/>
<path d="M0 0 C2.31 0 4.62 0 7 0 C7.33 5.61 7.66 11.22 8 17 C14.27 17.33 20.54 17.66 27 18 C27 12.06 27 6.12 27 0 C29.31 0 31.62 0 34 0 C34.11629782 4.39561039 34.18728634 8.79082429 34.25 13.1875 C34.30027344 15.05631836 34.30027344 15.05631836 34.3515625 16.96289062 C34.36445312 18.16494141 34.37734375 19.36699219 34.390625 20.60546875 C34.41157227 21.71043701 34.43251953 22.81540527 34.45410156 23.95385742 C33.89362281 27.71358502 32.66463773 29.33566302 30 32 C26.70265354 33.09911549 24.27041255 33.1139456 20.80078125 33.09765625 C19.59228516 33.09443359 18.38378906 33.09121094 17.13867188 33.08789062 C15.2447168 33.07532227 15.2447168 33.07532227 13.3125 33.0625 C11.40114258 33.05573242 11.40114258 33.05573242 9.45117188 33.04882812 C6.30073436 33.03702873 3.15039051 33.02056597 0 33 C0 31.35 0 29.7 0 28 C8.91 27.67 17.82 27.34 27 27 C27 25.68 27 24.36 27 23 C26.43079834 23.02094727 25.86159668 23.04189453 25.27514648 23.06347656 C22.66278184 23.14730994 20.05070116 23.19886818 17.4375 23.25 C16.09461914 23.30027344 16.09461914 23.30027344 14.72460938 23.3515625 C13.84482422 23.36445313 12.96503906 23.37734375 12.05859375 23.390625 C10.85674438 23.4220459 10.85674438 23.4220459 9.63061523 23.45410156 C7 23 7 23 0 19 C0 12.73 0 6.46 0 0 Z " fill="#0A638C" transform="translate(60,136)"/>
<path d="M0 0 C1.20205078 0.01289062 2.40410156 0.02578125 3.64257812 0.0390625 C4.88845703 0.07257813 6.13433594 0.10609375 7.41796875 0.140625 C8.68318359 0.15867187 9.94839844 0.17671875 11.25195312 0.1953125 C14.3705621 0.24238584 17.48762848 0.30813406 20.60546875 0.390625 C20.60546875 1.710625 20.60546875 3.030625 20.60546875 4.390625 C8.23046875 4.885625 8.23046875 4.885625 -4.39453125 5.390625 C-4.06453125 8.030625 -3.73453125 10.670625 -3.39453125 13.390625 C-1.76644531 13.44669922 -1.76644531 13.44669922 -0.10546875 13.50390625 C1.33987614 13.56960375 2.78518714 13.63604976 4.23046875 13.703125 C5.29974609 13.73696289 5.29974609 13.73696289 6.390625 13.77148438 C12.06133632 14.05762118 16.45749049 15.24264674 20.60546875 19.390625 C20.95078943 22.39984809 21.16788532 24.48387799 20.60546875 27.390625 C18.42972459 30.08167698 16.69481019 31.84595428 13.60546875 33.390625 C11.64610835 33.47572705 9.68384081 33.49780156 7.72265625 33.48828125 C6.55605469 33.48505859 5.38945313 33.48183594 4.1875 33.47851562 C2.96417969 33.47013672 1.74085937 33.46175781 0.48046875 33.453125 C-0.75058594 33.44861328 -1.98164062 33.44410156 -3.25 33.43945312 C-6.29822517 33.4276383 -9.34635439 33.41116528 -12.39453125 33.390625 C-12.39453125 31.740625 -12.39453125 30.090625 -12.39453125 28.390625 C-4.47453125 28.060625 3.44546875 27.730625 11.60546875 27.390625 C11.60546875 25.080625 11.60546875 22.770625 11.60546875 20.390625 C9.37333415 18.1584904 3.22076802 19.08906892 0.0390625 19.04882812 C-3.79929802 18.90629833 -6.01044562 18.61159894 -9.40234375 16.66015625 C-11.72258399 14.01690217 -12.07251091 12.86609053 -12.01953125 9.390625 C-12.03242187 8.545 -12.0453125 7.699375 -12.05859375 6.828125 C-10.44407498 0.90189139 -5.50171431 -0.1042979 0 0 Z " fill="#0C648C" transform="translate(111.39453125,125.609375)"/>
<path d="M0 0 C1.27423828 -0.00193359 1.27423828 -0.00193359 2.57421875 -0.00390625 C3.91419922 0.00189453 3.91419922 0.00189453 5.28125 0.0078125 C6.17457031 0.00394531 7.06789062 0.00007812 7.98828125 -0.00390625 C8.83777344 -0.00261719 9.68726563 -0.00132812 10.5625 0 C11.34689453 0.00112793 12.13128906 0.00225586 12.93945312 0.00341797 C14.78125 0.1328125 14.78125 0.1328125 15.78125 1.1328125 C15.86810603 2.69453995 15.88827219 4.26010594 15.87890625 5.82421875 C15.87568359 6.76845703 15.87246094 7.71269531 15.86914062 8.68554688 C15.86076172 9.67876953 15.85238281 10.67199219 15.84375 11.6953125 C15.83923828 12.69240234 15.83472656 13.68949219 15.83007812 14.71679688 C15.81825007 17.18886099 15.80176849 19.66080768 15.78125 22.1328125 C14.79125 22.1328125 13.80125 22.1328125 12.78125 22.1328125 C12.36875 21.6378125 11.95625 21.1428125 11.53125 20.6328125 C8.81591704 18.30538425 6.21738762 18.93831414 2.78125 19.1328125 C3.77125 20.4528125 4.76125 21.7728125 5.78125 23.1328125 C4.32332116 23.18680986 2.86482288 23.22560427 1.40625 23.2578125 C0.18808594 23.29261719 0.18808594 23.29261719 -1.0546875 23.328125 C-3.21875 23.1328125 -3.21875 23.1328125 -5.21875 21.1328125 C-5.46166992 19.08569336 -5.46166992 19.08569336 -5.44921875 16.59765625 C-5.44728516 15.70626953 -5.44535156 14.81488281 -5.44335938 13.89648438 C-5.43111328 12.96384766 -5.41886719 12.03121094 -5.40625 11.0703125 C-5.40560547 10.13380859 -5.40496094 9.19730469 -5.40429688 8.23242188 C-5.35069619 0.0076941 -5.35069619 0.0076941 0 0 Z " fill="#FBFCFD" transform="translate(149.21875,130.8671875)"/>
<path d="M0 0 C2.31 0 4.62 0 7 0 C7.33 8.91 7.66 17.82 8 27 C15.92 27.33 23.84 27.66 32 28 C32 29.65 32 31.3 32 33 C27.95847085 33.08746928 23.91718695 33.14054982 19.875 33.1875 C18.73289063 33.21263672 17.59078125 33.23777344 16.4140625 33.26367188 C5.69834632 33.35712289 5.69834632 33.35712289 1 30 C-0.40912096 27.18175808 -0.11183553 24.82748718 -0.09765625 21.6796875 C-0.09443359 20.42285156 -0.09121094 19.16601562 -0.08789062 17.87109375 C-0.07951172 16.55238281 -0.07113281 15.23367187 -0.0625 13.875 C-0.05748489 12.53515789 -0.05292201 11.195314 -0.04882812 9.85546875 C-0.03701086 6.57026794 -0.02053617 3.28515603 0 0 Z " fill="#0B648C" transform="translate(177,126)"/>
<path d="M0 0 C2.31 0 4.62 0 7 0 C7.33 5.61 7.66 11.22 8 17 C14.27 17.33 20.54 17.66 27 18 C27 18.33 27 18.66 27 19 C21.72 19.33 16.44 19.66 11 20 C11 20.33 11 20.66 11 21 C4.7934734 22.31291909 4.7934734 22.31291909 1.78125 21.125 C-1.15633943 17.62050735 -0.41764588 13.71965234 -0.25 9.3125 C-0.23195312 8.41982422 -0.21390625 7.52714844 -0.1953125 6.60742188 C-0.14817759 4.40386496 -0.08240657 2.20247399 0 0 Z " fill="#176A91" transform="translate(60,136)"/>
<path d="M0 0 C2.81158409 2.49824489 4.44837831 5.278476 6.25 8.5625 C6.79140625 9.53316406 7.3328125 10.50382812 7.890625 11.50390625 C8.25671875 12.32761719 8.6228125 13.15132812 9 14 C8.67 14.66 8.34 15.32 8 16 C5.69 13.36 3.38 10.72 1 8 C0.7525 8.969375 0.505 9.93875 0.25 10.9375 C-0.1625 11.948125 -0.575 12.95875 -1 14 C-3.125 14.875 -3.125 14.875 -5 15 C-7.0625 12.875 -7.0625 12.875 -9 10 C-8.75 6.6875 -8.75 6.6875 -8 4 C-7.731875 4.598125 -7.46375 5.19625 -7.1875 5.8125 C-6.01506533 7.97224808 -4.80630718 9.35790256 -3 11 C-3.061875 10.113125 -3.12375 9.22625 -3.1875 8.3125 C-2.98048018 4.65514983 -2.083926 2.95222849 0 0 Z " fill="#15678F" transform="translate(162,99)"/>
<path d="M0 0 C0.90105469 0.00902344 1.80210937 0.01804687 2.73046875 0.02734375 C3.41753906 0.03894531 4.10460937 0.05054687 4.8125 0.0625 C4.8125 0.7225 4.8125 1.3825 4.8125 2.0625 C0.3575 2.5575 0.3575 2.5575 -4.1875 3.0625 C-0.41725157 6.98984211 3.69720051 10.50656161 7.8125 14.0625 C2.60800532 14.0625 -2.21024824 11.00338851 -5.88671875 7.39453125 C-7.04532467 5.99690061 -8.12584125 4.53512343 -9.1875 3.0625 C-7.31499103 -0.68251794 -3.72136574 -0.04832943 0 0 Z " fill="#0D628B" transform="translate(211.1875,117.9375)"/>
<path d="M0 0 C4.38436563 0.43843656 6.16867359 1.91283809 9.75 4.375 C13.48225344 5.17182803 13.48225344 5.17182803 16.75 5.375 C16.75 5.705 16.75 6.035 16.75 6.375 C14.44 6.375 12.13 6.375 9.75 6.375 C9.42 7.035 9.09 7.695 8.75 8.375 C7.6775 7.735625 6.605 7.09625 5.5 6.4375 C2.94177818 4.96898727 0.69659114 3.84645458 -2.25 3.375 C-2.58 4.365 -2.91 5.355 -3.25 6.375 C-4.24 6.87 -4.24 6.87 -5.25 7.375 C-5.375 5 -5.375 5 -5.25 2.375 C-3.25 0.375 -3.25 0.375 0 0 Z " fill="#2C7598" transform="translate(145.25,55.625)"/>
<path d="M0 0 C7.61025769 -0.61373046 12.52633692 0.96160904 19 5 C19.66 5.66 20.32 6.32 21 7 C20.625 9.125 20.625 9.125 20 11 C19.39671875 10.59007813 18.7934375 10.18015625 18.171875 9.7578125 C17.37265625 9.21898438 16.5734375 8.68015625 15.75 8.125 C14.96109375 7.59132813 14.1721875 7.05765625 13.359375 6.5078125 C8.84567144 3.62322711 5.37566529 2.62026907 0 2 C0 1.34 0 0.68 0 0 Z " fill="#0D628B" transform="translate(155,62)"/>
<path d="M0 0 C3.875 1.875 3.875 1.875 5 3 C4.79381831 4.82127161 4.57880106 6.64189241 4.32421875 8.45703125 C3.70841854 13.2869823 3.3801719 18.14674173 3 23 C2.34 23 1.68 23 1 23 C0.9727384 20.95840905 0.95348655 18.91671037 0.9375 16.875 C0.92589844 15.73804687 0.91429687 14.60109375 0.90234375 13.4296875 C1 10 1 10 1.5625 6.71875 C2.05374666 3.66600287 1.66290096 2.54326029 0 0 Z " fill="#095E88" transform="translate(151,82)"/>
<path d="M0 0 C1.890625 0.24609375 1.890625 0.24609375 4 1 C5.046875 2.84765625 5.046875 2.84765625 5.75 5.0625 C5.99234375 5.79597656 6.2346875 6.52945313 6.484375 7.28515625 C6.65453125 7.85105469 6.8246875 8.41695312 7 9 C6.01 9.66 5.02 10.32 4 11 C3.32880451 9.5437455 2.66318193 8.08492133 2 6.625 C1.62875 5.81289062 1.2575 5.00078125 0.875 4.1640625 C0 2 0 2 0 0 Z " fill="#08618A" transform="translate(186,84)"/>
<path d="M0 0 C1.48484412 0.39595843 2.9628831 0.81750706 4.4375 1.25 C5.26121094 1.48203125 6.08492187 1.7140625 6.93359375 1.953125 C7.61550781 2.29859375 8.29742187 2.6440625 9 3 C9.33 4.32 9.66 5.64 10 7 C5.05 5.02 5.05 5.02 0 3 C0 2.01 0 1.02 0 0 Z " fill="#0F648C" transform="translate(198,105)"/>
<path d="M0 0 C0.268125 0.5775 0.53625 1.155 0.8125 1.75 C2.01719859 4.0325868 3.40798115 5.9737942 5 8 C4.67 8.66 4.34 9.32 4 10 C4.66 10.33 5.32 10.66 6 11 C3.3668037 10.63680051 2.15568678 10.14494976 0.1875 8.3125 C-1.40689803 5.20761963 -0.82845843 3.31383374 0 0 Z " fill="#307699" transform="translate(154,103)"/>
<path d="M0 0 C3.26460973 1.80412643 4.88929795 2.83394693 7 6 C5.1875 6.6875 5.1875 6.6875 3 7 C1.25 5.8125 1.25 5.8125 0 4 C0 2.68 0 1.36 0 0 Z " fill="#236F94" transform="translate(176,70)"/>
<path d="M0 0 C2.66735273 2.48952921 4.55746343 4.63408134 6 8 C4.125 7.6875 4.125 7.6875 2 7 C0 4 0 4 0 0 Z " fill="#0F628B" transform="translate(141,60)"/>
</svg>
