<?xml version="1.0" encoding="UTF-8"?>
<svg version="1.1" xmlns="http://www.w3.org/2000/svg" width="225" height="225">
<path d="M0 0 C74.25 0 148.5 0 225 0 C225 74.25 225 148.5 225 225 C150.75 225 76.5 225 0 225 C0 150.75 0 76.5 0 0 Z " fill="#FEFEFE" transform="translate(0,0)"/>
<path d="M0 0 C0.495 2.97 0.495 2.97 1 6 C0.3709375 6.21914062 -0.258125 6.43828125 -0.90625 6.6640625 C-12.66585832 11.02078486 -21.48727103 18.20191159 -26.875 29.6875 C-31.46806984 40.19680881 -31.82088727 53.20291016 -27.9375 64 C-25.44925461 69.68435369 -22.13114294 74.39264461 -18 79 C-18.99 80.32 -19.98 81.64 -21 83 C-26.11208954 81.29597015 -28.28984061 76.46743169 -31 72 C-36.90391354 60.08351194 -39.36142762 46.73516953 -35.375 33.8125 C-29.84053309 19.07334076 -20.85702867 8.96021762 -6.80859375 1.8984375 C-4.49661257 0.86552733 -2.558484 0 0 0 Z " fill="#0781B7" transform="translate(92,70)"/>
<path d="M0 0 C3.92175565 2.11171458 6.64691003 4.22553488 9 8 C9.74700572 12.5040051 9.52328795 16.70555085 7.8125 20.9375 C4.4975101 24.70972989 1.61089274 26.18940599 -3.375 26.5625 C-8.00398271 26.42316607 -10.37880357 24.70737165 -13.6875 21.60546875 C-16.2584681 18.46062384 -16.33926901 15.00779288 -16.28125 11.0625 C-15.6737801 6.60772073 -13.0596518 3.85917713 -9.6875 1.125 C-6.16108808 -0.35117243 -3.79611 -0.46618895 0 0 Z " fill="#078DC3" transform="translate(115,57)"/>
<path d="M0 0 C1.11375 0.185625 1.11375 0.185625 2.25 0.375 C1.05603771 8.89690588 -5.99187753 15.19142068 -12.2890625 20.5859375 C-21.29396325 27.13235741 -31.58564301 29.7665501 -42.5625 29.75 C-43.88556152 29.75193359 -43.88556152 29.75193359 -45.23535156 29.75390625 C-51.69819809 29.64885814 -57.09846367 28.70643194 -62.75 25.375 C-62.09 23.725 -61.43 22.075 -60.75 20.375 C-60.03457031 20.5915625 -59.31914063 20.808125 -58.58203125 21.03125 C-43.68286611 25.19453547 -32.03117449 23.93545147 -18.46484375 16.97265625 C-15.27246007 15.0939729 -13.18182003 13.1310627 -10.75 10.375 C-10.09 10.375 -9.43 10.375 -8.75 10.375 C-8.5025 9.83875 -8.255 9.3025 -8 8.75 C-3.65721649 0.49871134 -3.65721649 0.49871134 0 0 Z " fill="#1B488B" transform="translate(146.75,137.625)"/>
<path d="M0 0 C2.3925 -0.0825 4.785 -0.165 7.25 -0.25 C7.99668945 -0.28641602 8.74337891 -0.32283203 9.51269531 -0.36035156 C12.89729283 -0.41679187 14.70153828 -0.21827089 17.45703125 1.796875 C19.69196125 4.98801555 19.47557553 7.19539572 19 11 C17.23984869 14.1850357 16.50109084 14.83296972 13 16 C11.43881572 16.06740865 9.8749748 16.08514456 8.3125 16.0625 C7.10013672 16.04896484 7.10013672 16.04896484 5.86328125 16.03515625 C5.24839844 16.02355469 4.63351563 16.01195313 4 16 C4 17.98 4 19.96 4 22 C2.68 22 1.36 22 0 22 C0 14.74 0 7.48 0 0 Z " fill="#070707" transform="translate(165,109)"/>
<path d="M0 0 C5.5375375 1.1075075 6.07142467 1.68320715 9.3125 5.9375 C10.00988281 6.83339844 10.70726563 7.72929688 11.42578125 8.65234375 C13 11 13 11 13 13 C13.66 13 14.32 13 15 13 C15 8.71 15 4.42 15 0 C16.32 0 17.64 0 19 0 C19 7.59 19 15.18 19 23 C14.05459381 21.76364845 12.59228369 19.35803376 9.75 15.4375 C9.29109375 14.82197266 8.8321875 14.20644531 8.359375 13.57226562 C7.23028585 12.05505208 6.11388857 10.52840817 5 9 C4.67 13.29 4.34 17.58 4 22 C2.68 22 1.36 22 0 22 C0 14.74 0 7.48 0 0 Z " fill="#060606" transform="translate(100,109)"/>
<path d="M0 0 C0.21914062 0.51949219 0.43828125 1.03898437 0.6640625 1.57421875 C3.58686763 8.00201376 7.07643639 11.42993806 13.375 14.8125 C19.39518578 16.78462982 24.79952267 16.24009547 31 15 C31.495 17.475 31.495 17.475 32 20 C25.34037226 22.9974368 18.76270665 23.20681933 11.796875 20.97265625 C4.76221594 17.78231464 -0.25112528 13.82830753 -4 7 C-4.9375 3.4375 -4.9375 3.4375 -5 1 C-3 0 -3 0 0 0 Z " fill="#1A5595" transform="translate(83,124)"/>
<path d="M0 0 C0.78503906 0.48146484 0.78503906 0.48146484 1.5859375 0.97265625 C1.2559375 2.62265625 0.9259375 4.27265625 0.5859375 5.97265625 C0.03421875 5.81410156 -0.5175 5.65554687 -1.0859375 5.4921875 C-7.81899428 3.98967651 -14.57709768 4.15305608 -20.625 7.625 C-24.29070237 10.38628235 -27.35850751 13.86154627 -29.4140625 17.97265625 C-31.0640625 17.64265625 -32.7140625 17.31265625 -34.4140625 16.97265625 C-33.58189667 11.05503254 -30.75261192 7.91390261 -26.4140625 3.97265625 C-19.09189504 -1.44731112 -8.63617565 -3.67526569 0 0 Z " fill="#147FB4" transform="translate(113.4140625,91.02734375)"/>
<path d="M0 0 C3.77418226 2.03225199 7.00521325 4.1277669 9 8 C8.58974359 12.41025641 8.58974359 12.41025641 7 14 C4.0625 14.1875 4.0625 14.1875 1 14 C0.34 13.34 -0.32 12.68 -1 12 C-3.06874034 11.3574765 -3.06874034 11.3574765 -5 11 C-5 10.34 -5 9.68 -5 9 C-7.31 9.33 -9.62 9.66 -12 10 C-12.66 8.35 -13.32 6.7 -14 5 C-8.96835596 0.89523776 -6.64516785 -0.55376399 0 0 Z " fill="#0B99CA" transform="translate(115,57)"/>
<path d="M0 0 C0.66 0 1.32 0 2 0 C2.14695312 1.08796875 2.29390625 2.1759375 2.4453125 3.296875 C4.305369 15.8917862 8.14104596 25.82958889 16 36 C15.01 36.99 14.02 37.98 13 39 C7.89195082 37.29731694 5.70213076 32.46867182 3 28 C-0.46384379 20.82415645 -2.45588883 14.92650583 -1 7 C-1 5.906875 -1 4.81375 -1 3.6875 C-1 1 -1 1 0 0 Z " fill="#195393" transform="translate(58,114)"/>
<path d="M0 0 C1.65 0 3.3 0 5 0 C5 6.27 5 12.54 5 19 C8.96 19 12.92 19 17 19 C17 20.65 17 22.3 17 24 C11.39 24 5.78 24 0 24 C0 16.08 0 8.16 0 0 Z " fill="#333333" transform="translate(133,108)"/>
<path d="M0 0 C2.97 0.495 2.97 0.495 6 1 C5.59007813 1.74121094 5.18015625 2.48242188 4.7578125 3.24609375 C0.03038068 12.48607413 -1.28795566 20.74901676 -2 31 C-2.33 31 -2.66 31 -3 31 C-3 28.36 -3 25.72 -3 23 C-3.66 23.33 -4.32 23.66 -5 24 C-4.95875 25.2375 -4.9175 26.475 -4.875 27.75 C-4.86341709 31.01637962 -5.1431298 33.2146947 -7 36 C-10.16405364 25.29881047 -7.72952372 14.43384796 -2.84375 4.6953125 C-1.94698363 3.10034945 -0.98236436 1.54371543 0 0 Z " fill="#296FA6" transform="translate(63,91)"/>
<path d="M0 0 C1.11375 0.185625 1.11375 0.185625 2.25 0.375 C0.93950623 9.72864925 -7.5464897 16.90256582 -14.75 22.375 C-15.74 22.705 -16.73 23.035 -17.75 23.375 C-19.25 22 -19.25 22 -20.75 20.375 C-20.75 19.715 -20.75 19.055 -20.75 18.375 C-19.140625 16.9375 -19.140625 16.9375 -17 15.375 C-16.30390625 14.859375 -15.6078125 14.34375 -14.890625 13.8125 C-12.75 12.375 -12.75 12.375 -10.546875 11.296875 C-8.14188317 10.06300962 -7.84006389 8.82764375 -6.75 6.375 C-3.4576632 0.47149953 -3.4576632 0.47149953 0 0 Z " fill="#205997" transform="translate(146.75,137.625)"/>
<path d="M0 0 C9.20563222 3.19086039 14.83639932 11.52872942 19 20 C19.66015625 22.296875 19.66015625 22.296875 20 24 C17.375 24.625 17.375 24.625 14 24 C12.18943887 21.65852245 10.84799551 19.2099761 9.4375 16.609375 C6.55606609 11.37894606 2.80021769 7.565876 -2 4 C-1.34 2.68 -0.68 1.36 0 0 Z " fill="#0887BD" transform="translate(131,77)"/>
<path d="M0 0 C0 0.66 0 1.32 0 2 C0.99 2.33 1.98 2.66 3 3 C2.20335937 3.54527344 2.20335937 3.54527344 1.390625 4.1015625 C-3.15144754 7.33405938 -6.23059286 10.1535375 -9 15 C-10.65 14.67 -12.3 14.34 -14 14 C-13.47616397 9.89542181 -12.34834816 7.78489488 -9.5625 4.75 C-8.94503906 4.06421875 -8.32757813 3.3784375 -7.69140625 2.671875 C-4.92324213 -0.06432417 -4.09078183 0 0 0 Z " fill="#1379AF" transform="translate(93,94)"/>
<path d="M0 0 C2.875 0.6875 2.875 0.6875 3.875 1.6875 C4.125 5.125 4.125 5.125 3.875 8.6875 C0.65126323 10.83665785 -0.39203674 11.07036803 -4.125 10.6875 C-6.125 8.6875 -6.125 8.6875 -6.4375 5.1875 C-6.334375 4.0325 -6.23125 2.8775 -6.125 1.6875 C-3.125 -0.3125 -3.125 -0.3125 0 0 Z " fill="#1A4589" transform="translate(79.125,151.3125)"/>
<path d="M0 0 C1.258125 -0.04125 2.51625 -0.0825 3.8125 -0.125 C4.52019531 -0.14820312 5.22789062 -0.17140625 5.95703125 -0.1953125 C8 0 8 0 11 2 C11.3125 4.5 11.3125 4.5 11 7 C9 9 9 9 6.8359375 9.1953125 C4.55729167 9.13020833 2.27864583 9.06510417 0 9 C0 6.03 0 3.06 0 0 Z " fill="#E6E6E6" transform="translate(169,112)"/>
<path d="M0 0 C0.25394531 0.54269531 0.50789063 1.08539063 0.76953125 1.64453125 C1.11371094 2.35996094 1.45789063 3.07539062 1.8125 3.8125 C2.14894531 4.52019531 2.48539062 5.22789062 2.83203125 5.95703125 C4.00645471 8.01129035 5.25628016 9.41616278 7 11 C6.34 12.32 5.68 13.64 5 15 C2 15 2 15 0.4296875 13.4609375 C-2.63846156 9.3443757 -4.73476412 6.30471764 -5 1 C-3 0 -3 0 0 0 Z " fill="#215D99" transform="translate(83,124)"/>
<path d="M0 0 C0.99 0.103125 1.98 0.20625 3 0.3125 C5 3.3125 5 3.3125 4.75 5.875 C4 8.3125 4 8.3125 2 10.3125 C-0.5 10.5625 -0.5 10.5625 -3 10.3125 C-5 8.3125 -5 8.3125 -5.25 5.3125 C-4.90578549 1.18192588 -4.11441953 0.42858537 0 0 Z " fill="#19639F" transform="translate(79,111.6875)"/>
<path d="M0 0 C2.97 0.495 2.97 0.495 6 1 C5.04482045 3.10560019 4.08574515 5.20943346 3.125 7.3125 C2.59132813 8.48425781 2.05765625 9.65601562 1.5078125 10.86328125 C0 14 0 14 -2 17 C-2 16.01 -2 15.02 -2 14 C-2.66 14 -3.32 14 -4 14 C-4.88855164 11.00446363 -5.19605797 9.48360967 -4.00390625 6.54296875 C-3.52824219 5.76566406 -3.05257812 4.98835938 -2.5625 4.1875 C-1.85287109 3.00220703 -1.85287109 3.00220703 -1.12890625 1.79296875 C-0.75636719 1.20128906 -0.38382813 0.60960938 0 0 Z " fill="#1672AB" transform="translate(63,91)"/>
<path d="M0 0 C3.68646141 1.45855647 5.16143971 3.30229045 7.25 6.625 C7.77078125 7.44226563 8.2915625 8.25953125 8.828125 9.1015625 C9.21484375 9.72804687 9.6015625 10.35453125 10 11 C9.01 11.99 8.02 12.98 7 14 C3.20379845 12.73459948 2.51321812 11.21781569 0.3125 7.9375 C-0.31011719 7.01839844 -0.93273438 6.09929687 -1.57421875 5.15234375 C-2.04472656 4.44207031 -2.51523437 3.73179687 -3 3 C-2.01 2.01 -1.02 1.02 0 0 Z " fill="#205393" transform="translate(64,139)"/>
<path d="M0 0 C0.33 1.98 0.66 3.96 1 6 C-2.63 7.32 -6.26 8.64 -10 10 C-10.99 9.01 -11.98 8.02 -13 7 C-13 6.34 -13 5.68 -13 5 C-11.21046815 4.16209211 -9.41830305 3.32980604 -7.625 2.5 C-6.62726563 2.0359375 -5.62953125 1.571875 -4.6015625 1.09375 C-2 0 -2 0 0 0 Z " fill="#1089BE" transform="translate(92,70)"/>
<path d="M0 0 C3.33511388 2.9901021 5.21521119 5.89498574 7 10 C7 10.66 7 11.32 7 12 C5.02 12 3.04 12 1 12 C-2.22265625 6.82421875 -2.22265625 6.82421875 -3 5 C-2.67 4.01 -2.34 3.02 -2 2 C-1.34 2 -0.68 2 0 2 C0 1.34 0 0.68 0 0 Z " fill="#1380B6" transform="translate(144,89)"/>
<path d="M0 0 C0.66 0 1.32 0 2 0 C2.66 4.95 3.32 9.9 4 15 C3.34 15 2.68 15 2 15 C2 14.34 2 13.68 2 13 C0.68 13.33 -0.64 13.66 -2 14 C-1.835 12.96875 -1.67 11.9375 -1.5 10.875 C-0.92801612 7.09331243 -0.92801612 7.09331243 -1 3.625 C-1 1 -1 1 0 0 Z " fill="#155A9A" transform="translate(58,114)"/>
<path d="M0 0 C0.66 0.66 1.32 1.32 2 2 C1.76568263 4.42127949 1.12981957 5.81176163 -0.25 7.8125 C-2 9 -2 9 -4.6875 8.6875 C-5.450625 8.460625 -6.21375 8.23375 -7 8 C-5.50902342 4.2047869 -3.24299151 2.38957269 0 0 Z " fill="#0979B2" transform="translate(71,83)"/>
<path d="M0 0 C3.91402949 1.26941497 5.79072873 2.51167694 8 6 C5.33333333 6 2.66666667 6 0 6 C-0.66 4.68 -1.32 3.36 -2 2 C-1.34 1.34 -0.68 0.68 0 0 Z " fill="#108EC0" transform="translate(131,77)"/>
<path d="M0 0 C0.66 0 1.32 0 2 0 C2.22262606 2.08185451 2.42757926 4.16560426 2.625 6.25 C2.74101563 7.41015625 2.85703125 8.5703125 2.9765625 9.765625 C2.99955595 12.93872091 2.69705154 14.38317244 1 17 C-0.13480527 13.39006828 -0.10015767 10.0157673 -0.0625 6.25 C-0.05347656 5.07953125 -0.04445312 3.9090625 -0.03515625 2.703125 C-0.02355469 1.81109375 -0.01195312 0.9190625 0 0 Z " fill="#3C71A7" transform="translate(55,110)"/>
<path d="M0 0 C1.65 0.33 3.3 0.66 5 1 C4.67 2.65 4.34 4.3 4 6 C2.35 5.67 0.7 5.34 -1 5 C-0.67 3.35 -0.34 1.7 0 0 Z " fill="#0C7CB2" transform="translate(118,94)"/>
<path d="M0 0 C1 2 1 2 0.1875 5 C-1 8 -1 8 -3 10 C-3.66 9.01 -4.32 8.02 -5 7 C-6.98 7.99 -6.98 7.99 -9 9 C-6.21000549 5.51250686 -3.74764169 2.49842779 0 0 Z " fill="#1F86B7" transform="translate(76,77)"/>
<path d="M0 0 C1.65 0.33 3.3 0.66 5 1 C5 4 5 4 4 6 C2.35 5.67 0.7 5.34 -1 5 C-0.67 3.35 -0.34 1.7 0 0 Z " fill="#2374AA" transform="translate(80,103)"/>
<path d="M0 0 C2.6875 -0.3125 2.6875 -0.3125 5 0 C4.67 1.65 4.34 3.3 4 5 C1.69 5 -0.62 5 -3 5 C-1.8125 2.5 -1.8125 2.5 0 0 Z " fill="#2667A1" transform="translate(144,138)"/>
<path d="M0 0 C0.99 0 1.98 0 3 0 C3.33 1.65 3.66 3.3 4 5 C0.25 6.125 0.25 6.125 -2 5 C-1.125 1.125 -1.125 1.125 0 0 Z " fill="#336AA1" transform="translate(118,136)"/>
<path d="M0 0 C1.65 1.65 3.3 3.3 5 5 C4.01 6.32 3.02 7.64 2 9 C1.01 8.67 0.02 8.34 -1 8 C-1 7.01 -1 6.02 -1 5 C-0.01 4.67 0.98 4.34 2 4 C1.01 3.67 0.02 3.34 -1 3 C-0.67 2.01 -0.34 1.02 0 0 Z " fill="#26548F" transform="translate(69,144)"/>
<path d="M0 0 C0.33 1.98 0.66 3.96 1 6 C-0.32 6 -1.64 6 -3 6 C-3 4.68 -3 3.36 -3 2 C-3.66 1.67 -4.32 1.34 -5 1 C-2 0 -2 0 0 0 Z " fill="#2F98C3" transform="translate(92,70)"/>
<path d="M0 0 C2.475 0.99 2.475 0.99 5 2 C3.68 3.32 2.36 4.64 1 6 C0.01 5.67 -0.98 5.34 -2 5 C-1.34 3.35 -0.68 1.7 0 0 Z " fill="#164487" transform="translate(86,158)"/>
<path d="M0 0 C1.32 0.66 2.64 1.32 4 2 C3.34 3.32 2.68 4.64 2 6 C1.34 6 0.68 6 0 6 C-1 3 -1 3 0 0 Z " fill="#145194" transform="translate(137,148)"/>
<path d="M0 0 C0.99 0 1.98 0 3 0 C3 0.99 3 1.98 3 3 C3.66 3.33 4.32 3.66 5 4 C4.67 4.66 4.34 5.32 4 6 C2.68 5.67 1.36 5.34 0 5 C-0.5625 3.0625 -0.5625 3.0625 -1 1 C-0.67 0.67 -0.34 0.34 0 0 Z " fill="#0F458A" transform="translate(66,144)"/>
</svg>
