<?xml version="1.0" encoding="UTF-8"?>
<svg version="1.1" xmlns="http://www.w3.org/2000/svg" width="225" height="225">
<path d="M0 0 C74.25 0 148.5 0 225 0 C225 74.25 225 148.5 225 225 C150.75 225 76.5 225 0 225 C0 150.75 0 76.5 0 0 Z " fill="#FDFDFE" transform="translate(0,0)"/>
<path d="M0 0 C5.34944093 1.78314698 10.29626625 3.72138544 15.375 6.125 C16.18710937 6.45886719 16.99921875 6.79273437 17.8359375 7.13671875 C25.87072467 11.03822598 28.54748757 17.9130561 31.96173096 25.67144775 C33.39265908 28.88062646 34.92608398 32.03684353 36.4571228 35.19918823 C38.08222284 38.56084951 39.68145115 41.93457933 41.28173828 45.30810547 C42.49616905 47.86692814 43.71473433 50.42375319 44.93359375 52.98046875 C45.7372301 54.67175579 46.54062338 56.36315835 47.34375 58.0546875 C47.69296509 58.78654266 48.04218018 59.51839783 48.40197754 60.27243042 C52.42966826 68.78171203 56.17262372 77.38840336 60 86 C60.33 67.85 60.66 49.7 61 31 C64.97143249 32.32381083 68.2653709 33.50805218 71.92578125 35.34765625 C72.80427734 35.78787109 73.68277344 36.22808594 74.58789062 36.68164062 C75.48701172 37.13732422 76.38613281 37.59300781 77.3125 38.0625 C78.69018555 38.75182617 78.69018555 38.75182617 80.09570312 39.45507812 C86.85944475 42.85944475 86.85944475 42.85944475 88 44 C88.09531163 45.3534059 88.1218872 46.71173984 88.12025452 48.0684967 C88.12231651 49.38316673 88.12231651 49.38316673 88.12442017 50.72439575 C88.11902725 52.17771805 88.11902725 52.17771805 88.11352539 53.66040039 C88.11367142 54.67491776 88.11381744 55.68943512 88.1139679 56.73469543 C88.11326829 60.10570373 88.10547368 63.47665754 88.09765625 66.84765625 C88.09579224 69.17793243 88.09436826 71.508209 88.09336853 73.83848572 C88.08954202 79.98537265 88.0797106 86.13223613 88.06866455 92.27911377 C88.05845329 98.54609866 88.05387152 104.81308732 88.04882812 111.08007812 C88.03808845 123.38672908 88.02101044 135.69336259 88 148 C82.27734554 145.76536625 77.28057604 142.72484647 72.0625 139.5 C71.08603516 138.92507812 70.10957031 138.35015625 69.10351562 137.7578125 C62.12220148 133.42229809 58.61183604 129.30452965 55 122 C54.35421883 120.76296718 53.70531684 119.5275605 53.05395508 118.29345703 C50.79100055 113.98497574 48.58264119 109.64950709 46.375 105.3125 C45.17965313 102.97383391 43.9829982 100.63584056 42.78617859 98.29792786 C41.99098709 96.74455434 41.19615457 95.19099701 40.40168762 93.63725281 C35.63620854 84.32192521 30.78830894 75.04986756 25.92944336 65.78295898 C25.27510782 64.52774163 24.63304433 63.26608865 24 62 C23.67 79.16 23.34 96.32 23 114 C7 106 7 106 0 102 C0 68.34 0 34.68 0 0 Z " fill="#4E78CF" transform="translate(18,65)"/>
<path d="M0 0 C0 14.85 0 29.7 0 45 C-9.343125 49.7025 -9.343125 49.7025 -18.875 54.5 C-20.84065918 55.49193359 -22.80631836 56.48386719 -24.83154297 57.50585938 C-26.38493197 58.28547348 -27.93846993 59.06479091 -29.4921875 59.84375 C-30.30244385 60.25399414 -31.1127002 60.66423828 -31.94750977 61.08691406 C-32.71877197 61.47266602 -33.49003418 61.85841797 -34.28466797 62.25585938 C-34.95529266 62.59339233 -35.62591736 62.93092529 -36.31686401 63.27868652 C-38 64 -38 64 -40 64 C-40 49.48 -40 34.96 -40 20 C-33.73 16.7 -27.46 13.4 -21 10 C-19.03933594 8.95585937 -17.07867187 7.91171875 -15.05859375 6.8359375 C-13.87813477 6.20751953 -13.87813477 6.20751953 -12.67382812 5.56640625 C-11.11500485 4.73594145 -9.55783648 3.90236603 -8.00195312 3.06640625 C-7.23689453 2.66035156 -6.47183594 2.25429687 -5.68359375 1.8359375 C-5.01900146 1.48063965 -4.35440918 1.1253418 -3.66967773 0.75927734 C-2 0 -2 0 0 0 Z " fill="#4FACCF" transform="translate(160,149)"/>
<path d="M0 0 C0 14.85 0 29.7 0 45 C-5.1665625 47.475 -5.1665625 47.475 -10.4375 50 C-11.48349365 50.50144531 -12.5294873 51.00289062 -13.60717773 51.51953125 C-22.38539151 55.72101522 -31.19125164 59.8630448 -40 64 C-40.19796271 57.82546709 -40.34302108 51.65278465 -40.43945312 45.47583008 C-40.47965263 43.37556788 -40.53422399 41.27552913 -40.60351562 39.17602539 C-40.70072891 36.15455069 -40.74595912 33.13603577 -40.78125 30.11328125 C-40.82254028 29.17664139 -40.86383057 28.24000153 -40.90637207 27.27497864 C-40.90818966 24.62631823 -40.81546874 22.5218531 -40 20 C-37.63398818 17.6313001 -35.03937991 16.34548865 -32 15 C-31.0402124 14.50040771 -30.0804248 14.00081543 -29.09155273 13.48608398 C-27.77586304 12.87228882 -27.77586304 12.87228882 -26.43359375 12.24609375 C-25.45326172 11.78396484 -24.47292969 11.32183594 -23.46289062 10.84570312 C-22.46451172 10.38099609 -21.46613281 9.91628906 -20.4375 9.4375 C-12.54846554 5.79197387 -12.54846554 5.79197387 -4.91015625 1.66015625 C-2 0 -2 0 0 0 Z " fill="#50ACCF" transform="translate(160,89)"/>
<path d="M0 0 C0 14.52 0 29.04 0 44 C-6.43381899 47.50935581 -12.80622809 50.96840999 -19.375 54.1875 C-22.94445633 55.93797234 -26.45458036 57.66751817 -29.8515625 59.73828125 C-32 61 -32 61 -34 61 C-34 46.15 -34 31.3 -34 16 C-28.76125 13.36 -23.5225 10.72 -18.125 8 C-16.47258301 7.1646875 -14.82016602 6.329375 -13.11767578 5.46875 C-11.8103807 4.81218263 -10.50293647 4.15591211 -9.1953125 3.5 C-8.51460693 3.15453125 -7.83390137 2.8090625 -7.13256836 2.453125 C-2.2281436 0 -2.2281436 0 0 0 Z " fill="#4FACCF" transform="translate(207,126)"/>
<path d="M0 0 C0 14.52 0 29.04 0 44 C-11.5625 49.75 -11.5625 49.75 -15.16625977 51.53808594 C-21.71567786 54.80226067 -21.71567786 54.80226067 -28.08984375 58.390625 C-31 60 -31 60 -34 60 C-34 45.48 -34 30.96 -34 16 C-28.76125 13.36 -23.5225 10.72 -18.125 8 C-16.47258301 7.1646875 -14.82016602 6.329375 -13.11767578 5.46875 C-11.8103807 4.81218263 -10.50293647 4.15591211 -9.1953125 3.5 C-8.51460693 3.15453125 -7.83390137 2.8090625 -7.13256836 2.453125 C-2.2281436 0 -2.2281436 0 0 0 Z " fill="#4FACCF" transform="translate(207,66)"/>
<path d="M0 0 C1.64415894 0.79398193 1.64415894 0.79398193 3.3215332 1.60400391 C4.56564432 2.22613774 5.80867935 2.85042686 7.05078125 3.4765625 C7.70958786 3.80667328 8.36839447 4.13678406 9.04716492 4.47689819 C11.13656227 5.52437984 13.22454598 6.5746448 15.3125 7.625 C16.73493337 8.33872639 18.15745847 9.05227 19.58007812 9.765625 C23.05445056 11.50830312 26.52755853 13.25347764 30 15 C30 15.66 30 16.32 30 17 C21.34361052 21.68030069 12.64738531 26.28924408 3.8125 30.625 C3.11906494 30.97949219 2.42562988 31.33398438 1.71118164 31.69921875 C-2.76386887 33.85361022 -5.23080636 34.17880821 -10 33 C-12.44960602 31.93711125 -14.78294156 30.84289517 -17.1484375 29.62109375 C-17.80582916 29.28956802 -18.46322083 28.9580423 -19.14053345 28.61647034 C-21.22259399 27.56431765 -23.29878477 26.50113288 -25.375 25.4375 C-26.79259456 24.71866264 -28.21055988 24.00055593 -29.62890625 23.28320312 C-33.09028407 21.53055935 -36.54644472 19.76800466 -40 18 C-40 17.34 -40 16.68 -40 16 C-39.06542969 15.53851563 -38.13085938 15.07703125 -37.16796875 14.6015625 C-35.84108698 13.94282687 -34.51426952 13.28396168 -33.1875 12.625 C-32.48133545 12.27646973 -31.7751709 11.92793945 -31.04760742 11.56884766 C-26.93915676 9.52513159 -22.89108143 7.40629113 -18.8828125 5.171875 C-17.61594604 4.47457275 -17.61594604 4.47457275 -16.32348633 3.76318359 C-14.6692163 2.84863042 -13.02288388 1.91954694 -11.38549805 0.97509766 C-10.625354 0.5579248 -9.86520996 0.14075195 -9.08203125 -0.2890625 C-8.08006714 -0.85681396 -8.08006714 -0.85681396 -7.05786133 -1.43603516 C-4.08487179 -2.25079442 -2.7439849 -1.35303401 0 0 Z " fill="#4FACCF" transform="translate(118,62)"/>
<path d="M0 0 C0.68715088 0.32226562 1.37430176 0.64453125 2.08227539 0.9765625 C2.79504639 1.32203125 3.50781738 1.6675 4.2421875 2.0234375 C4.98267334 2.37664063 5.72315918 2.72984375 6.48608398 3.09375 C12.90123918 6.19841623 19.04920855 9.65710173 25.1171875 13.3984375 C22.45202874 16.50759152 19.26108183 18.06517672 15.65625 19.9375 C15.02866791 20.26382416 14.40108582 20.59014832 13.75448608 20.92636108 C12.42958375 21.61324157 11.10318082 22.29723433 9.77539062 22.97851562 C7.75179278 24.01850107 5.73510878 25.07106137 3.71875 26.125 C2.42748092 26.79243643 1.13582651 27.45912801 -0.15625 28.125 C-1.91074463 29.03113037 -1.91074463 29.03113037 -3.70068359 29.95556641 C-6.54120528 31.24354271 -8.78942807 32.11363394 -11.8828125 32.3984375 C-14.29657428 31.35505032 -16.38641523 30.28806926 -18.6328125 28.9609375 C-19.94966122 28.21880738 -21.26877105 27.4806784 -22.58984375 26.74609375 C-23.28158691 26.3608252 -23.97333008 25.97555664 -24.68603516 25.57861328 C-28.49200162 23.53393203 -32.40257544 21.7171506 -36.3203125 19.8984375 C-37.0721582 19.5485376 -37.82400391 19.1986377 -38.59863281 18.83813477 C-40.35851335 18.02163396 -42.12042921 17.2095221 -43.8828125 16.3984375 C-43.8828125 15.7384375 -43.8828125 15.0784375 -43.8828125 14.3984375 C-39.16091797 11.93843484 -34.42878792 9.49986798 -29.68603516 7.08032227 C-28.07499086 6.25471471 -26.4668682 5.42337953 -24.86181641 4.58618164 C-22.55079033 3.38201542 -20.22995349 2.19900843 -17.90625 1.01953125 C-17.19350922 0.64251572 -16.48076843 0.26550018 -15.74642944 -0.12294006 C-9.94178069 -3.02784249 -5.91779926 -2.79403426 0 0 Z " fill="#4FACCF" transform="translate(71.8828125,38.6015625)"/>
<path d="M0 0 C3.9005037 1.0085911 7.31176314 2.61216893 10.87255859 4.44750977 C11.57434235 4.80123154 12.2761261 5.15495331 12.99917603 5.51939392 C15.22388466 6.64287876 17.44274507 7.77740011 19.66162109 8.91235352 C21.1755705 9.67936724 22.68988989 10.44565117 24.20458984 11.21118164 C27.90293542 13.08232009 31.59607962 14.96337247 35.28662109 16.84985352 C35.28662109 17.50985352 35.28662109 18.16985352 35.28662109 18.84985352 C34.63177734 19.16212891 33.97693359 19.4744043 33.30224609 19.79614258 C30.29667128 21.2299461 27.29164303 22.66489164 24.28662109 24.09985352 C23.25666016 24.59098633 22.22669922 25.08211914 21.16552734 25.58813477 C20.15361328 26.0715332 19.14169922 26.55493164 18.09912109 27.05297852 C17.10396484 27.52541992 16.10880859 27.99786133 15.08349609 28.48461914 C12.62909603 29.68268174 10.24532816 30.96327334 7.84912109 32.27172852 C3.95074681 33.99863993 3.20137165 33.99209913 -0.71337891 32.84985352 C-2.48777259 32.04914415 -4.23339053 31.18278561 -5.95166016 30.26782227 C-6.93714844 29.74768555 -7.92263672 29.22754883 -8.93798828 28.69165039 C-10.46649414 27.87277344 -10.46649414 27.87277344 -12.02587891 27.03735352 C-14.04249641 25.96775921 -16.05941792 24.89873786 -18.07666016 23.83032227 C-19.0339502 23.32162598 -19.99124023 22.81292969 -20.97753906 22.28881836 C-24.52995115 20.42036246 -28.11399189 18.62589514 -31.71337891 16.84985352 C-29.29132397 14.12201918 -26.73063985 12.65472992 -23.49462891 11.00219727 C-22.48013672 10.47948242 -21.46564453 9.95676758 -20.42041016 9.41821289 C-19.36208984 8.8800293 -18.30376953 8.3418457 -17.21337891 7.78735352 C-15.1188813 6.71459317 -13.02509849 5.64043576 -10.93212891 4.56469727 C-10.00335938 4.09153076 -9.07458984 3.61836426 -8.11767578 3.13085938 C-2.03053404 -0.11236085 -2.03053404 -0.11236085 0 0 Z " fill="#4FACCF" transform="translate(161.71337890625,36.150146484375)"/>
<path d="M0 0 C1.70458374 0.87192993 1.70458374 0.87192993 3.44360352 1.76147461 C4.05518814 2.07080429 4.66677277 2.38013397 5.29689026 2.69883728 C7.22704875 3.67778138 9.1497295 4.67047433 11.07250977 5.66381836 C12.38909557 6.33466637 13.70614908 7.0045973 15.02368164 7.67358398 C18.23293054 9.30560078 21.4356326 10.95001667 24.63500977 12.60131836 C22.21295483 15.32915269 19.65227071 16.79644196 16.41625977 18.44897461 C15.40176758 18.97168945 14.38727539 19.4944043 13.34204102 20.03295898 C12.2837207 20.57114258 11.22540039 21.10932617 10.13500977 21.66381836 C8.04051216 22.73657871 5.94672935 23.81073611 3.85375977 24.88647461 C2.92499023 25.35964111 1.9962207 25.83280762 1.03930664 26.3203125 C-1.51754851 27.63202747 -1.51754851 27.63202747 -4.36499023 29.60131836 C-9.16711354 29.29340306 -12.82433086 27.60596602 -17.07592773 25.44116211 C-17.68892731 25.13183243 -18.30192688 24.82250275 -18.9335022 24.50379944 C-20.87291636 23.52297921 -22.80643596 22.5311321 -24.73999023 21.53881836 C-26.06122985 20.86815726 -27.38284111 20.1982278 -28.70483398 19.52905273 C-31.92922748 17.89491361 -35.14843469 16.25084216 -38.36499023 14.60131836 C-38.36499023 13.61131836 -38.36499023 12.62131836 -38.36499023 11.60131836 C-34.51732279 9.56575598 -30.65807937 7.55472777 -26.78662109 5.56494141 C-25.47300838 4.88558688 -24.16270656 4.19978838 -22.85595703 3.50732422 C-20.97030491 2.50954487 -19.0737208 1.53601302 -17.17358398 0.56616211 C-16.03719482 -0.02559814 -14.90080566 -0.6173584 -13.72998047 -1.22705078 C-8.52508717 -3.03930377 -4.99659073 -2.07686776 0 0 Z " fill="#4FACCF" transform="translate(120.364990234375,14.398681640625)"/>
</svg>
