<?xml version="1.0" encoding="UTF-8"?>
<svg version="1.1" xmlns="http://www.w3.org/2000/svg" width="225" height="225">
<path d="M0 0 C74.25 0 148.5 0 225 0 C225 74.25 225 148.5 225 225 C150.75 225 76.5 225 0 225 C0 150.75 0 76.5 0 0 Z " fill="#F1C710" transform="translate(0,0)"/>
<path d="M0 0 C74.25 0 148.5 0 225 0 C225 74.25 225 148.5 225 225 C150.75 225 76.5 225 0 225 C0 150.75 0 76.5 0 0 Z M23 30 C17.72109076 37.85766896 17.28104737 45.01189863 17.35302734 54.28710938 C17.34623813 55.70092387 17.33732773 57.11472951 17.32647705 58.52851868 C17.30383125 62.34068369 17.31245817 66.15216635 17.32837248 69.96434212 C17.34110853 73.97018276 17.32927012 77.97596837 17.32144165 81.98181152 C17.31236735 88.70656733 17.32427435 95.4310478 17.34814453 102.15576172 C17.37535176 109.90970411 17.366536 117.66298895 17.3390125 125.41691542 C17.31625879 132.09668047 17.31315179 138.77624858 17.32620585 145.45603991 C17.33396613 149.43578384 17.33513716 153.4152196 17.31852341 157.39494324 C17.30398606 161.13815488 17.31426664 164.88052602 17.34299469 168.62364769 C17.35266492 170.63741809 17.33798469 172.65126031 17.32235718 174.66499329 C17.43449649 184.36324161 19.60146712 191.56216225 26.1875 198.8125 C34.69078147 206.5366769 43.09582042 207.7338223 54.28710938 207.64697266 C55.70092387 207.65376187 57.11472951 207.66267227 58.52851868 207.67352295 C62.34068369 207.69616875 66.15216635 207.68754183 69.96434212 207.67162752 C73.97018276 207.65889147 77.97596837 207.67072988 81.98181152 207.67855835 C88.70656733 207.68763265 95.4310478 207.67572565 102.15576172 207.65185547 C109.90970411 207.62464824 117.66298895 207.633464 125.41691542 207.6609875 C132.09668047 207.68374121 138.77624858 207.68684821 145.45603991 207.67379415 C149.43578384 207.66603387 153.4152196 207.66486284 157.39494324 207.68147659 C161.13815488 207.69601394 164.88052602 207.68573336 168.62364769 207.65700531 C170.63741809 207.64733508 172.65126031 207.66201531 174.66499329 207.67764282 C183.99372684 207.56977615 190.69422447 205.68389598 197.83984375 199.5703125 C198.53207031 198.76335937 199.22429687 197.95640625 199.9375 197.125 C200.64777344 196.32320312 201.35804688 195.52140625 202.08984375 194.6953125 C207.54649707 186.99574034 207.44051284 180.29276107 207.41992188 171.0534668 C207.42726969 169.64009941 207.43585799 168.22673801 207.44558716 166.81338501 C207.46773944 162.9888164 207.47073694 159.16446365 207.46883965 155.3398397 C207.46871963 152.13930898 207.47729661 148.93882347 207.48561716 145.73830539 C207.50482939 138.18235823 207.50774335 130.62652153 207.50097656 123.07055664 C207.49434038 115.29455749 207.51718782 107.51903325 207.55429029 99.74313039 C207.58505571 93.0507163 207.59633985 86.35845443 207.59245348 79.6659711 C207.59039267 75.67608594 207.59576078 71.68657029 207.62034607 67.69675255 C207.64272387 63.94132471 207.64064525 60.18666482 207.62041855 56.43123245 C207.61542112 54.41023809 207.63494814 52.3892287 207.65542603 50.36833191 C207.57142322 41.19761007 205.78432959 34.49771308 199.82421875 27.4140625 C199.11910156 26.82367188 198.41398438 26.23328125 197.6875 25.625 C196.64142578 24.71621094 196.64142578 24.71621094 195.57421875 23.7890625 C187.21744656 17.98116923 180.99887413 17.41649619 170.93994141 17.46655273 C169.52642419 17.45948517 168.11291453 17.45073664 166.69941711 17.44044495 C162.87896821 17.41803236 159.05893519 17.42087176 155.23844576 17.42976642 C152.04034119 17.43489453 148.84231353 17.42756885 145.6442169 17.42029434 C138.09444796 17.40332049 130.54488126 17.40683492 122.99511719 17.42358398 C115.22646416 17.4404967 107.4583734 17.42467712 99.68978179 17.3923611 C93.00157937 17.36560129 86.3135513 17.35840656 79.62530077 17.36687618 C75.63880265 17.37178762 71.6526425 17.36968752 67.66618729 17.34908867 C63.91482263 17.33063091 60.16426147 17.33681147 56.41293907 17.36128807 C54.39435924 17.36862213 52.37573594 17.3515182 50.35722351 17.33346558 C38.97886728 17.45126695 30.07115146 20.80527569 23 30 Z " fill="#F7F7F7" transform="translate(0,0)"/>
<path d="M0 0 C2.97 0 5.94 0 9 0 C9 2.97 9 5.94 9 9 C6.36 9.33 3.72 9.66 1 10 C0.67 12.97 0.34 15.94 0 19 C9.57 19 19.14 19 29 19 C29 16.03 29 13.06 29 10 C30 9 30 9 31.84765625 8.90234375 C33.8984375 8.93489583 35.94921875 8.96744792 38 9 C38 7.35 38 5.7 38 4 C67.04 4 96.08 4 126 4 C126 5.65 126 7.3 126 9 C122.7 9 119.4 9 116 9 C116 12.3 116 15.6 116 19 C112.7 19 109.4 19 106 19 C106 16.03 106 13.06 106 10 C103.03 10 100.06 10 97 10 C97 12.97 97 15.94 97 19 C93.7 19 90.4 19 87 19 C87 19.66 87 20.32 87 21 C54.99 21 22.98 21 -10 21 C-10 17.04 -10 13.08 -10 9 C-6.7 9 -3.4 9 0 9 C0 6.03 0 3.06 0 0 Z " fill="#FBFBFB" transform="translate(10,204)"/>
<path d="M0 0 C2.31 0 4.62 0 7 0 C7 28.71 7 57.42 7 87 C4.69 87 2.38 87 0 87 C0 83.7 0 80.4 0 77 C-3.3 77 -6.6 77 -10 77 C-10 54.56 -10 32.12 -10 9 C-6.7 9 -3.4 9 0 9 C0 6.03 0 3.06 0 0 Z " fill="#F9F9FA" transform="translate(10,49)"/>
<path d="M0 0 C0.81984375 0.06703125 1.6396875 0.1340625 2.484375 0.203125 C5.29018931 0.75794704 7.62660351 1.75856101 10.22363281 2.9296875 C14.2690147 4.56733607 18.53196551 5.53202961 22.75 6.625 C30.50530193 8.68017424 38.06943921 10.97374312 45.65234375 13.59375 C50.30212799 15.0881432 55.00499333 16.23268287 59.75219727 17.36938477 C63.10485156 18.18153386 66.3516807 19.04783036 69.5625 20.3125 C72.7217541 21.54407363 75.65297979 22.34525316 78.9375 23.125 C83.81479213 24.39674885 86.14529413 25.81737256 89.25 29.75 C89.58 30.08 89.91 30.41 90.25 30.75 C90.3598062 32.71739681 90.39911653 34.6887576 90.41113281 36.65917969 C90.42074036 37.92429382 90.4303479 39.18940796 90.44024658 40.49285889 C90.44509523 41.88586243 90.44937389 43.27886806 90.453125 44.671875 C90.45887537 46.09336347 90.46463312 47.51485192 90.47039795 48.93634033 C90.48091959 51.92240766 90.48675399 54.90844798 90.49023438 57.89453125 C90.49570849 61.71566557 90.51970794 65.53644163 90.54820633 69.35746384 C90.56686219 72.29662097 90.57203996 75.23569254 90.57357025 78.17490387 C90.57659286 79.58308105 90.58460824 80.99125686 90.59775543 82.39937592 C90.61486849 84.37392597 90.61108327 86.34862342 90.60644531 88.32324219 C90.61191376 90.00749298 90.61191376 90.00749298 90.61749268 91.72576904 C90.20037739 95.15836252 89.31220004 96.99664587 87.25 99.75 C83.16083446 102.47611036 80.05441619 102.37984724 75.25 101.75 C71.80094584 100.64821881 68.52811473 99.28298058 65.25 97.75 C65.745 95.77 65.745 95.77 66.25 93.75 C67.735 93.9665625 67.735 93.9665625 69.25 94.1875 C69.88421875 94.27515625 70.5184375 94.3628125 71.171875 94.453125 C72.58073369 94.65439053 73.98710433 94.87374744 75.390625 95.109375 C80.07894489 95.90115283 80.07894489 95.90115283 84.25 93.75 C84.68958873 91.08423824 84.68958873 91.08423824 84.59057617 87.92333984 C84.59034958 86.70222504 84.59012299 85.48111023 84.58988953 84.22299194 C84.57456852 82.88563677 84.55892051 81.5482853 84.54296875 80.2109375 C84.53737422 78.84616562 84.53310344 77.48138772 84.53010559 76.11660767 C84.5186454 72.52269893 84.48916871 68.92915333 84.45599365 65.33538818 C84.42531771 61.6689546 84.41160559 58.0024624 84.39648438 54.3359375 C84.36429964 47.14045936 84.31308972 39.94528054 84.25 32.75 C82.84080621 32.1074047 81.42980068 31.46878176 80.01806641 30.83178711 C79.23251373 30.47571884 78.44696106 30.11965057 77.63760376 29.75279236 C74.05320954 28.24734862 70.38444729 27.27501538 66.625 26.3125 C60.99438235 24.81181471 55.45256936 23.2054611 49.9375 21.3125 C43.12704393 18.98662386 36.24938845 16.99825889 29.31835938 15.06420898 C24.83628446 13.80494774 20.38684247 12.49267735 15.96484375 11.03515625 C15.11889648 10.75728271 14.27294922 10.47940918 13.40136719 10.19311523 C11.81132705 9.66515006 10.22442931 9.12757873 8.64160156 8.57836914 C3.65243569 6.92438843 -0.48732987 6.41122656 -5.75 6.75 C-7.27791083 8.27791083 -6.91183457 9.67989408 -6.95532227 11.81079102 C-6.97526749 12.67160782 -6.99521271 13.53242462 -7.01576233 14.41932678 C-7.03247482 15.35473801 -7.04918732 16.29014923 -7.06640625 17.25390625 C-7.08718735 18.20692123 -7.10796844 19.15993622 -7.12937927 20.14183044 C-7.19498177 23.1986441 -7.25380918 26.25554656 -7.3125 29.3125 C-7.35567506 31.37956663 -7.39928901 33.44662414 -7.44335938 35.51367188 C-7.55067401 40.59235595 -7.65191091 45.6711297 -7.75 50.75 C-9.40614657 51.13218767 -11.07457024 51.46395102 -12.75 51.75 C-14.9058656 49.5941344 -13.93895666 44.63390545 -13.953125 41.640625 C-13.95882507 40.72166443 -13.96452515 39.80270386 -13.97039795 38.855896 C-13.97986535 36.90557004 -13.9863888 34.95522796 -13.99023438 33.00488281 C-13.99991418 30.02640594 -14.03091033 27.04862646 -14.0625 24.0703125 C-14.06903237 22.17708744 -14.07428192 20.28385743 -14.078125 18.390625 C-14.0904718 17.50086975 -14.1028186 16.6111145 -14.11553955 15.69439697 C-14.09449673 9.82373259 -13.13727764 6.53515725 -9.25 2 C-6.29644104 -0.46129914 -3.62897618 -0.33810337 0 0 Z " fill="#202020" transform="translate(75.75,55.25)"/>
<path d="M0 0 C3.46679688 0.04882812 3.46679688 0.04882812 6.93359375 0.09765625 C6.93359375 3.39765625 6.93359375 6.69765625 6.93359375 10.09765625 C-0 10.1953125 -0 10.1953125 -2.06640625 10.09765625 C-3.06640625 9.09765625 -3.06640625 9.09765625 -3.19921875 7.28515625 C-3.19664062 6.56328125 -3.1940625 5.84140625 -3.19140625 5.09765625 C-3.19398438 4.37578125 -3.1965625 3.65390625 -3.19921875 2.91015625 C-3.00640394 0.2788012 -2.63137052 0.12435588 0 0 Z M-24.06640625 9.09765625 C-23.40640625 9.42765625 -22.74640625 9.75765625 -22.06640625 10.09765625 C-22.06640625 13.06765625 -22.06640625 16.03765625 -22.06640625 19.09765625 C-25.36640625 19.09765625 -28.66640625 19.09765625 -32.06640625 19.09765625 C-32.06640625 22.39765625 -32.06640625 25.69765625 -32.06640625 29.09765625 C-28.76640625 29.09765625 -25.46640625 29.09765625 -22.06640625 29.09765625 C-22.08703125 27.63328125 -22.10765625 26.16890625 -22.12890625 24.66015625 C-22.15032632 23.13933107 -22.13820589 21.61693663 -22.06640625 20.09765625 C-20.01942211 18.05067211 -15.76229384 18.39719932 -13.06640625 18.09765625 C-12.73640625 15.45765625 -12.40640625 12.81765625 -12.06640625 10.09765625 C-7.61140625 9.60265625 -7.61140625 9.60265625 -3.06640625 9.09765625 C-3.06640625 12.39765625 -3.06640625 15.69765625 -3.06640625 19.09765625 C-5.70640625 19.42765625 -8.34640625 19.75765625 -11.06640625 20.09765625 C-11.39640625 23.06765625 -11.72640625 26.03765625 -12.06640625 29.09765625 C-9.09640625 29.09765625 -6.12640625 29.09765625 -3.06640625 29.09765625 C-3.06640625 29.75765625 -3.06640625 30.41765625 -3.06640625 31.09765625 C-22.20640625 31.09765625 -41.34640625 31.09765625 -61.06640625 31.09765625 C-61.06640625 27.46765625 -61.06640625 23.83765625 -61.06640625 20.09765625 C-64.36640625 19.76765625 -67.66640625 19.43765625 -71.06640625 19.09765625 C-70.73640625 17.44765625 -70.40640625 15.79765625 -70.06640625 14.09765625 C-69.08881348 14.08307373 -68.1112207 14.06849121 -67.10400391 14.0534668 C-63.43210615 13.99492698 -59.76078649 13.91770491 -56.08935547 13.83520508 C-54.50872267 13.80221488 -52.92797938 13.77410477 -51.34716797 13.7512207 C-41.78769407 13.60912859 -32.8135712 13.47123872 -24.06640625 9.09765625 Z M-77.21875 19 C-75.16796875 19.03255208 -73.1171875 19.06510417 -71.06640625 19.09765625 C-71.06640625 22.39765625 -71.06640625 25.69765625 -71.06640625 29.09765625 C-74.03640625 29.09765625 -77.00640625 29.09765625 -80.06640625 29.09765625 C-80.1640625 22.1640625 -80.1640625 22.1640625 -80.06640625 20.09765625 C-79.06640625 19.09765625 -79.06640625 19.09765625 -77.21875 19 Z " fill="#FBFBFB" transform="translate(216.06640625,193.90234375)"/>
<path d="M0 0 C1.69448853 1.12745667 1.69448853 1.12745667 3 3 C3.38095093 5.83946228 3.38095093 5.83946228 3.38818359 9.33569336 C3.40236832 11.29804176 3.40236832 11.29804176 3.4168396 13.30003357 C3.41146936 14.72997337 3.40531628 16.15991041 3.3984375 17.58984375 C3.40045851 19.05571131 3.40337018 20.5215779 3.40713501 21.98744202 C3.41155852 25.06000336 3.40512767 28.13230306 3.39111328 31.20483398 C3.37403612 35.14040725 3.38385256 39.07536608 3.40183067 43.01091671 C3.41268087 46.03842278 3.40921631 49.06578366 3.4014473 52.09329414 C3.39944791 53.54414505 3.40189542 54.9950092 3.40888596 56.44584465 C3.41651814 58.47553118 3.40281952 60.50526399 3.38818359 62.53491211 C3.38579681 63.68946396 3.38341003 64.84401581 3.38095093 66.03355408 C2.95961525 69.31447403 2.3775238 70.72239429 0 73 C-5.89058089 73.73632261 -5.89058089 73.73632261 -8.69448853 71.87536621 C-10.6206531 69.10843231 -10.38137812 66.90562391 -10.38818359 63.55664062 C-10.39344055 62.9075322 -10.39869751 62.25842377 -10.40411377 61.58964539 C-10.41731296 59.44493516 -10.40857672 57.30096772 -10.3984375 55.15625 C-10.40045828 53.66556658 -10.40336975 52.17488413 -10.40713501 50.6842041 C-10.41155822 47.56036973 -10.40512765 44.43679274 -10.39111328 41.31298828 C-10.37402108 37.30781823 -10.38386232 33.30325125 -10.40183067 29.29810333 C-10.41266876 26.22002616 -10.40922213 23.14209209 -10.4014473 20.06401062 C-10.39944534 18.58721343 -10.40190442 17.11040326 -10.40888596 15.63362122 C-10.41650123 13.56985031 -10.40489694 11.50705739 -10.38818359 9.44335938 C-10.38579681 8.26882202 -10.38341003 7.09428467 -10.38095093 5.88415527 C-10 3 -10 3 -8.69448853 1.12072754 C-5.83492136 -0.77057808 -3.30873538 -0.35450736 0 0 Z " fill="#1C1C21" transform="translate(130,94)"/>
<path d="M0 0 C3.3 0 6.6 0 10 0 C10 3.3 10 6.6 10 10 C5.545 10.495 5.545 10.495 1 11 C0.67 13.64 0.34 16.28 0 19 C-1.65 19 -3.3 19 -5 19 C-5 35.17 -5 51.34 -5 68 C-3.35 68 -1.7 68 0 68 C0 64.7 0 61.4 0 58 C3.3 58 6.6 58 10 58 C10 61.3 10 64.6 10 68 C5.545 68.495 5.545 68.495 1 69 C1 71.64 1 74.28 1 77 C3.97 77.33 6.94 77.66 10 78 C10 80.97 10 83.94 10 87 C7.94921875 87.22786458 5.8984375 87.45572917 3.84765625 87.68359375 C1.98859771 87.81886614 1.98859771 87.81886614 1 89 C0.76924918 90.34747084 0.58846937 91.70377565 0.4375 93.0625 C0.2209375 95.0115625 0.2209375 95.0115625 0 97 C3.3 97 6.6 97 10 97 C10 100.3 10 103.6 10 107 C5.545 107.495 5.545 107.495 1 108 C0.67 110.64 0.34 113.28 0 116 C-2.475 116.495 -2.475 116.495 -5 117 C-5 128.22 -5 139.44 -5 151 C-5.33 151 -5.66 151 -6 151 C-6.33 104.47 -6.66 57.94 -7 10 C-4.69 10 -2.38 10 0 10 C0 6.7 0 3.4 0 0 Z " fill="#EEEFF0" transform="translate(213,29)"/>
<path d="M0 0 C2.79989074 2.92315024 3.37916612 4.98562242 3.40405273 8.98046875 C3.41673691 9.96829346 3.42942108 10.95611816 3.44248962 11.97387695 C3.43808617 13.56462036 3.43808617 13.56462036 3.43359375 15.1875 C3.4388356 16.28215576 3.44407745 17.37681152 3.44947815 18.50463867 C3.4558985 20.81786247 3.45456121 23.13111891 3.44604492 25.44433594 C3.43753144 28.9869179 3.46630385 32.5278897 3.49804688 36.0703125 C3.49965885 38.31770785 3.49908143 40.56510606 3.49609375 42.8125 C3.51294472 44.40324341 3.51294472 44.40324341 3.53013611 46.02612305 C3.46085918 53.32106178 3.46085918 53.32106178 1.19165039 56.6640625 C-2.06925469 58.65177249 -4.27248427 58.60995712 -8 58 C-12.11076301 53.47709173 -11.43305971 47.93696801 -11.3984375 42.1875 C-11.40130768 41.14102295 -11.40417786 40.0945459 -11.40713501 39.01635742 C-11.40917328 36.80744891 -11.40366004 34.59852225 -11.39111328 32.38964844 C-11.37505685 29.01195854 -11.39097063 25.63546525 -11.41015625 22.2578125 C-11.40817378 20.10937236 -11.40433002 17.96093297 -11.3984375 15.8125 C-11.40451019 14.80405029 -11.41058289 13.79560059 -11.4168396 12.7565918 C-11.32841064 3.92461968 -11.32841064 3.92461968 -8 0 C-5.03475663 -1.48262169 -3.14877613 -0.83538959 0 0 Z " fill="#222220" transform="translate(110,102)"/>
<path d="M0 0 C46.53 0.33 93.06 0.66 141 1 C141 1.33 141 1.66 141 2 C129.78 2 118.56 2 107 2 C107 3.32 107 4.64 107 6 C111.95 6.495 111.95 6.495 117 7 C116.67 10.96 116.34 14.92 116 19 C96.86 19 77.72 19 58 19 C58 18.34 58 17.68 58 17 C61.3 17 64.6 17 68 17 C68 14.03 68 11.06 68 8 C70.97 8 73.94 8 77 8 C77 10.97 77 13.94 77 17 C80.3 17 83.6 17 87 17 C87 13.7 87 10.4 87 7 C90.3 7 93.6 7 97 7 C97 5.35 97 3.7 97 2 C67.96 2 38.92 2 9 2 C9 3.65 9 5.3 9 7 C6.36 7.33 3.72 7.66 1 8 C0.67 10.97 0.34 13.94 0 17 C-3.3 17 -6.6 17 -10 17 C-10 13.7 -10 10.4 -10 7 C-6.7 7 -3.4 7 0 7 C0 4.69 0 2.38 0 0 Z M97 8 C96.92820036 9.51928038 96.91607993 11.04167482 96.9375 12.5625 C96.958125 14.026875 96.97875 15.49125 97 17 C99.97 17 102.94 17 106 17 C106 13.7 106 10.4 106 7 C101.20029258 6.47166284 101.20029258 6.47166284 97 8 Z " fill="#F1F2F2" transform="translate(39,206)"/>
<path d="M0 0 C3 2 3 2 4 5 C4.13224377 7.53889804 4.21206223 10.04963746 4.23828125 12.58984375 C4.25038887 13.70124474 4.25038887 13.70124474 4.26274109 14.83509827 C4.27655712 16.40102819 4.28729035 17.96698792 4.29516602 19.53295898 C4.31241382 21.9255457 4.35632273 24.31676224 4.40039062 26.70898438 C4.41051529 28.23176069 4.41903211 29.75454873 4.42578125 31.27734375 C4.44328934 31.99099594 4.46079742 32.70464813 4.47883606 33.43992615 C4.46394172 36.85462758 4.2340961 38.68680266 2.16479492 41.45532227 C-0.7501284 43.53525007 -2.49564751 43.52192484 -6 43 C-8.03667615 41.45493534 -8.86073078 40.27853844 -10 38 C-10.09863171 35.55411979 -10.13986454 33.13739328 -10.1328125 30.69140625 C-10.13376923 29.96888168 -10.13472595 29.24635712 -10.13571167 28.50193787 C-10.13639252 26.97288933 -10.13454486 25.44383791 -10.13037109 23.91479492 C-10.12502921 21.57529183 -10.13031524 19.23598141 -10.13671875 16.89648438 C-10.1360578 15.41145791 -10.13477629 13.92643156 -10.1328125 12.44140625 C-10.13483673 11.7413295 -10.13686096 11.04125275 -10.13894653 10.31996155 C-10.12423541 7.26773217 -9.97335025 4.92005075 -9 2 C-5.53001271 -0.31332486 -4.07490752 -0.33957563 0 0 Z " fill="#232220" transform="translate(89,109)"/>
<path d="M0 0 C9.57 0 19.14 0 29 0 C29 3.3 29 6.6 29 10 C25.7 10 22.4 10 19 10 C19 12.31 19 14.62 19 17 C36.82 17 54.64 17 73 17 C73 17.33 73 17.66 73 18 C28.45 18 -16.1 18 -62 18 C-62 17.67 -62 17.34 -62 17 C-38.57 17 -15.14 17 9 17 C9 14.69 9 12.38 9 10 C6.03 10 3.06 10 0 10 C0 6.7 0 3.4 0 0 Z " fill="#F3EAC8" transform="translate(107,0)"/>
<path d="M0 0 C3.3 0 6.6 0 10 0 C10 3.3 10 6.6 10 10 C5.545 10.495 5.545 10.495 1 11 C0.855625 12.299375 0.71125 13.59875 0.5625 14.9375 C0.125 18.875 0.125 18.875 -1 20 C-3.67058851 20.14115161 -6.32432238 20.04247107 -9 20 C-8.979375 21.299375 -8.95875 22.59875 -8.9375 23.9375 C-8.91600546 25.29165633 -8.92851801 26.64756083 -9 28 C-11.04698414 30.04698414 -15.30411241 29.70045693 -18 30 C-18.33 32.97 -18.66 35.94 -19 39 C-22.3 39 -25.6 39 -29 39 C-29 35.7 -29 32.4 -29 29 C-25.7 29 -22.4 29 -19 29 C-19.15339844 28.27554688 -19.30679688 27.55109375 -19.46484375 26.8046875 C-20.72087391 19.01937662 -20.72087391 19.01937662 -18.61328125 16.0390625 C-16.80892678 14.54867327 -14.95566317 13.28186326 -13 12 C-12.53464844 11.44699219 -12.06929687 10.89398438 -11.58984375 10.32421875 C-10 9 -10 9 -7.51953125 8.92578125 C-5.01302083 9.28385417 -2.50651042 9.64192708 0 10 C0 6.7 0 3.4 0 0 Z " fill="#EEEFEF" transform="translate(213,184)"/>
<path d="M0 0 C2.55949546 1.85342775 2.97918798 2.93756393 4 6 C4.24874332 8.95401536 4.23115464 11.91156767 4.25 14.875 C4.270625 15.67808594 4.29125 16.48117188 4.3125 17.30859375 C4.34315666 21.9607424 4.22313103 25.34131072 1 29 C-0.9375 29.6640625 -0.9375 29.6640625 -3 29.625 C-3.680625 29.63789063 -4.36125 29.65078125 -5.0625 29.6640625 C-7 29 -7 29 -8.73046875 27.05859375 C-10.49976352 22.79595435 -10.39945713 19.00448857 -10.3125 14.4375 C-10.31572266 13.58736328 -10.31894531 12.73722656 -10.32226562 11.86132812 C-10.28617288 7.67785126 -10.25403124 4.645949 -8 1 C-5.20129973 -0.39935013 -3.09501208 -0.25265405 0 0 Z " fill="#202020" transform="translate(69,116)"/>
<path d="M0 0 C2.97 0 5.94 0 9 0 C8.67 46.53 8.34 93.06 8 141 C7.67 141 7.34 141 7 141 C7 97.77 7 54.54 7 10 C4.69 10 2.38 10 0 10 C0 12.97 0 15.94 0 19 C-3.3 19 -6.6 19 -10 19 C-10 16.03 -10 13.06 -10 10 C-5.545 9.505 -5.545 9.505 -1 9 C-0.67 6.03 -0.34 3.06 0 0 Z " fill="#F3EAC9" transform="translate(10,39)"/>
<path d="M0 0 C46.53 0.33 93.06 0.66 141 1 C141 1.33 141 1.66 141 2 C97.44 2 53.88 2 9 2 C9 3.65 9 5.3 9 7 C6.36 7.33 3.72 7.66 1 8 C0.67 10.97 0.34 13.94 0 17 C-3.3 17 -6.6 17 -10 17 C-10 13.7 -10 10.4 -10 7 C-6.7 7 -3.4 7 0 7 C0 4.69 0 2.38 0 0 Z " fill="#F3EAC7" transform="translate(39,206)"/>
<path d="M0 0 C3.3 0 6.6 0 10 0 C10 3.3 10 6.6 10 10 C5.545 10.495 5.545 10.495 1 11 C0.67 13.64 0.34 16.28 0 19 C-1.65 19 -3.3 19 -5 19 C-5 62.56 -5 106.12 -5 151 C-5.33 151 -5.66 151 -6 151 C-6.33 104.47 -6.66 57.94 -7 10 C-4.69 10 -2.38 10 0 10 C0 6.7 0 3.4 0 0 Z " fill="#F2E8C6" transform="translate(213,29)"/>
<path d="M0 0 C3.3 0.33 6.6 0.66 10 1 C10 3.97 10 6.94 10 10 C7.94921875 10.22786458 5.8984375 10.45572917 3.84765625 10.68359375 C1.98859771 10.81886614 1.98859771 10.81886614 1 12 C0.76924918 13.34747084 0.58846937 14.70377565 0.4375 16.0625 C0.293125 17.361875 0.14875 18.66125 0 20 C-2.97 20 -5.94 20 -9 20 C-9.09765625 13.06640625 -9.09765625 13.06640625 -9 11 C-8 10 -8 10 -6.15234375 9.90234375 C-4.1015625 9.93489583 -2.05078125 9.96744792 0 10 C0 6.7 0 3.4 0 0 Z " fill="#EDEEEE" transform="translate(213,203)"/>
<path d="M0 0 C2.97 0 5.94 0 9 0 C9 2.97 9 5.94 9 9 C6.36 9.33 3.72 9.66 1 10 C0.67 12.97 0.34 15.94 0 19 C-3.3 19 -6.6 19 -10 19 C-10 15.7 -10 12.4 -10 9 C-6.7 9 -3.4 9 0 9 C0 6.03 0 3.06 0 0 Z " fill="#FEFEFE" transform="translate(10,204)"/>
<path d="M0 0 C2.97 0 5.94 0 9 0 C9 2.97 9 5.94 9 9 C6.36 9.33 3.72 9.66 1 10 C0.67 12.97 0.34 15.94 0 19 C-3.3 19 -6.6 19 -10 19 C-10 15.7 -10 12.4 -10 9 C-6.7 9 -3.4 9 0 9 C0 6.03 0 3.06 0 0 Z " fill="#FEFEFE" transform="translate(10,10)"/>
<path d="M0 0 C3.46679688 0.04882812 3.46679688 0.04882812 6.93359375 0.09765625 C6.93359375 3.06765625 6.93359375 6.03765625 6.93359375 9.09765625 C3.63359375 9.09765625 0.33359375 9.09765625 -3.06640625 9.09765625 C-3.1640625 2.9453125 -3.1640625 2.9453125 -3.06640625 1.09765625 C-2.06640625 0.09765625 -2.06640625 0.09765625 0 0 Z M-6.00390625 9.03515625 C-4.54984375 9.06609375 -4.54984375 9.06609375 -3.06640625 9.09765625 C-3.06640625 12.39765625 -3.06640625 15.69765625 -3.06640625 19.09765625 C-6.36640625 19.09765625 -9.66640625 19.09765625 -13.06640625 19.09765625 C-9.83203125 9.11328125 -9.83203125 9.11328125 -6.00390625 9.03515625 Z " fill="#FEFEFD" transform="translate(216.06640625,174.90234375)"/>
<path d="M0 0 C0.66 0.33 1.32 0.66 2 1 C2 3.97 2 6.94 2 10 C-1.3 10 -4.6 10 -8 10 C-8 8.02 -8 6.04 -8 4 C-6.71349294 3.30289269 -5.42059335 2.61757124 -4.125 1.9375 C-3.40570313 1.55464844 -2.68640625 1.17179688 -1.9453125 0.77734375 C-1.30335938 0.52082031 -0.66140625 0.26429688 0 0 Z M-14.15234375 9.90234375 C-12.1015625 9.93489583 -10.05078125 9.96744792 -8 10 C-8 13.3 -8 16.6 -8 20 C-10.97 20 -13.94 20 -17 20 C-17.09765625 13.06640625 -17.09765625 13.06640625 -17 11 C-16 10 -16 10 -14.15234375 9.90234375 Z " fill="#FEFEFD" transform="translate(192,203)"/>
<path d="M0 0 C2.31 0 4.62 0 7 0 C7.33 2.97 7.66 5.94 8 9 C5.69 9.33 3.38 9.66 1 10 C0.67 12.97 0.34 15.94 0 19 C-3.3 19 -6.6 19 -10 19 C-10 15.7 -10 12.4 -10 9 C-6.7 9 -3.4 9 0 9 C0 6.03 0 3.06 0 0 Z " fill="#EEEFEF" transform="translate(10,175)"/>
<path d="M0 0 C2.31 0 4.62 0 7 0 C7 2.97 7 5.94 7 9 C5.02 9.33 3.04 9.66 1 10 C0.67 12.97 0.34 15.94 0 19 C-3.3 19 -6.6 19 -10 19 C-10 15.7 -10 12.4 -10 9 C-6.7 9 -3.4 9 0 9 C0 6.03 0 3.06 0 0 Z " fill="#EEEFEF" transform="translate(10,78)"/>
<path d="M0 0 C2.31 0 4.62 0 7 0 C7 3.3 7 6.6 7 10 C4.69 10 2.38 10 0 10 C0 12.97 0 15.94 0 19 C-3.3 19 -6.6 19 -10 19 C-10 16.03 -10 13.06 -10 10 C-5.545 9.505 -5.545 9.505 -1 9 C-0.67 6.03 -0.34 3.06 0 0 Z " fill="#FEFEFE" transform="translate(10,68)"/>
<path d="M0 0 C3.3 0 6.6 0 10 0 C10 1.65 10 3.3 10 5 C5.545 5.495 5.545 5.495 1 6 C0.67 8.97 0.34 11.94 0 15 C-3.3 15 -6.6 15 -10 15 C-10 11.7 -10 8.4 -10 5 C-6.7 5 -3.4 5 0 5 C0 3.35 0 1.7 0 0 Z " fill="#EEEFF0" transform="translate(97,208)"/>
<path d="M0 0 C2.97 0 5.94 0 9 0 C9 1.65 9 3.3 9 5 C6.36 5.33 3.72 5.66 1 6 C0.67 8.97 0.34 11.94 0 15 C-3.3 15 -6.6 15 -10 15 C-10 11.7 -10 8.4 -10 5 C-7.03 5 -4.06 5 -1 5 C-0.67 3.35 -0.34 1.7 0 0 Z " fill="#EEEFEF" transform="translate(78,208)"/>
<path d="M0 0 C3.3 0 6.6 0 10 0 C10 3.3 10 6.6 10 10 C5.545 10.495 5.545 10.495 1 11 C0.67 13.64 0.34 16.28 0 19 C-1.65 19 -3.3 19 -5 19 C-5 16.03 -5 13.06 -5 10 C-3.35 9.67 -1.7 9.34 0 9 C0 6.03 0 3.06 0 0 Z " fill="#EEEFEF" transform="translate(213,68)"/>
<path d="M0 0 C3.3 0 6.6 0 10 0 C10 1.65 10 3.3 10 5 C6.7 5 3.4 5 0 5 C0 3.35 0 1.7 0 0 Z M-6.15234375 4.90234375 C-4.1015625 4.93489583 -2.05078125 4.96744792 0 5 C0 8.3 0 11.6 0 15 C-2.97 15 -5.94 15 -9 15 C-9.09765625 8.06640625 -9.09765625 8.06640625 -9 6 C-8 5 -8 5 -6.15234375 4.90234375 Z " fill="#FEFEFE" transform="translate(48,208)"/>
<path d="M0 0 C3.46679688 0.04882812 3.46679688 0.04882812 6.93359375 0.09765625 C6.93359375 3.06765625 6.93359375 6.03765625 6.93359375 9.09765625 C3.63359375 9.09765625 0.33359375 9.09765625 -3.06640625 9.09765625 C-3.1640625 2.9453125 -3.1640625 2.9453125 -3.06640625 1.09765625 C-2.06640625 0.09765625 -2.06640625 0.09765625 0 0 Z M-8.06640625 9.09765625 C-6.41640625 9.09765625 -4.76640625 9.09765625 -3.06640625 9.09765625 C-3.06640625 12.39765625 -3.06640625 15.69765625 -3.06640625 19.09765625 C-4.71640625 19.09765625 -6.36640625 19.09765625 -8.06640625 19.09765625 C-8.06640625 15.79765625 -8.06640625 12.49765625 -8.06640625 9.09765625 Z " fill="#FEFEFE" transform="translate(216.06640625,77.90234375)"/>
<path d="M0 0 C3.46679688 0.04882812 3.46679688 0.04882812 6.93359375 0.09765625 C6.93359375 3.06765625 6.93359375 6.03765625 6.93359375 9.09765625 C3.63359375 9.09765625 0.33359375 9.09765625 -3.06640625 9.09765625 C-3.1640625 2.9453125 -3.1640625 2.9453125 -3.06640625 1.09765625 C-2.06640625 0.09765625 -2.06640625 0.09765625 0 0 Z M-8.06640625 9.09765625 C-6.41640625 9.09765625 -4.76640625 9.09765625 -3.06640625 9.09765625 C-3.06640625 12.39765625 -3.06640625 15.69765625 -3.06640625 19.09765625 C-4.71640625 19.09765625 -6.36640625 19.09765625 -8.06640625 19.09765625 C-8.06640625 15.79765625 -8.06640625 12.49765625 -8.06640625 9.09765625 Z " fill="#FEFEFE" transform="translate(216.06640625,38.90234375)"/>
<path d="M0 0 C2.97 0 5.94 0 9 0 C9 1.65 9 3.3 9 5 C5.7 5 2.4 5 -1 5 C-0.67 3.35 -0.34 1.7 0 0 Z M-7.15234375 4.90234375 C-5.1015625 4.93489583 -3.05078125 4.96744792 -1 5 C-1 8.3 -1 11.6 -1 15 C-3.97 15 -6.94 15 -10 15 C-10.09765625 8.06640625 -10.09765625 8.06640625 -10 6 C-9 5 -9 5 -7.15234375 4.90234375 Z " fill="#FEFEFE" transform="translate(146,208)"/>
<path d="M0 0 C3.46679688 0.04882812 3.46679688 0.04882812 6.93359375 0.09765625 C6.93359375 3.06765625 6.93359375 6.03765625 6.93359375 9.09765625 C3.63359375 9.09765625 0.33359375 9.09765625 -3.06640625 9.09765625 C-3.1640625 2.9453125 -3.1640625 2.9453125 -3.06640625 1.09765625 C-2.06640625 0.09765625 -2.06640625 0.09765625 0 0 Z M-3.06640625 9.09765625 C-3.06640625 12.39765625 -3.06640625 15.69765625 -3.06640625 19.09765625 C-4.71640625 19.09765625 -6.36640625 19.09765625 -8.06640625 19.09765625 C-8.06640625 16.12765625 -8.06640625 13.15765625 -8.06640625 10.09765625 C-4.06640625 9.09765625 -4.06640625 9.09765625 -3.06640625 9.09765625 Z " fill="#FEFEFE" transform="translate(216.06640625,135.90234375)"/>
<path d="M0 0 C3.3 0 6.6 0 10 0 C10 3.3 10 6.6 10 10 C6.7 10 3.4 10 0 10 C0 6.7 0 3.4 0 0 Z " fill="#FEFEFE" transform="translate(0,155)"/>
<path d="M0 0 C3.3 0 6.6 0 10 0 C10 3.3 10 6.6 10 10 C6.7 10 3.4 10 0 10 C0 6.7 0 3.4 0 0 Z " fill="#EEEFEF" transform="translate(0,126)"/>
<path d="M0 0 C3.3 0 6.6 0 10 0 C10 3.3 10 6.6 10 10 C6.7 10 3.4 10 0 10 C0 6.7 0 3.4 0 0 Z " fill="#FDFEFE" transform="translate(0,97)"/>
<path d="M0 0 C3.3 0 6.6 0 10 0 C10 3.3 10 6.6 10 10 C6.7 10 3.4 10 0 10 C0 6.7 0 3.4 0 0 Z " fill="#FEFEFE" transform="translate(155,0)"/>
<path d="M0 0 C3.3 0 6.6 0 10 0 C10 3.3 10 6.6 10 10 C6.7 10 3.4 10 0 10 C0 6.7 0 3.4 0 0 Z " fill="#EEEFEF" transform="translate(126,0)"/>
<path d="M0 0 C3.3 0 6.6 0 10 0 C10 3.3 10 6.6 10 10 C6.7 10 3.4 10 0 10 C0 6.7 0 3.4 0 0 Z " fill="#FDFEFE" transform="translate(97,0)"/>
<path d="M0 0 C3.3 0 6.6 0 10 0 C10 3.3 10 6.6 10 10 C6.7 10 3.4 10 0 10 C0 6.7 0 3.4 0 0 Z " fill="#FEFEFE" transform="translate(58,0)"/>
<path d="M0 0 C3.3 0 6.6 0 10 0 C10 3.3 10 6.6 10 10 C6.7 10 3.4 10 0 10 C0 6.7 0 3.4 0 0 Z " fill="#EEEFEF" transform="translate(29,0)"/>
<path d="M0 0 C3.46679688 0.04882812 3.46679688 0.04882812 6.93359375 0.09765625 C6.93359375 3.39765625 6.93359375 6.69765625 6.93359375 10.09765625 C3.63359375 10.09765625 0.33359375 10.09765625 -3.06640625 10.09765625 C-3.1640625 3.1640625 -3.1640625 3.1640625 -3.06640625 1.09765625 C-2.06640625 0.09765625 -2.06640625 0.09765625 0 0 Z " fill="#FEFEFE" transform="translate(158.06640625,212.90234375)"/>
<path d="M0 0 C3.46679688 0.04882812 3.46679688 0.04882812 6.93359375 0.09765625 C6.93359375 3.39765625 6.93359375 6.69765625 6.93359375 10.09765625 C3.63359375 10.09765625 0.33359375 10.09765625 -3.06640625 10.09765625 C-3.1640625 3.1640625 -3.1640625 3.1640625 -3.06640625 1.09765625 C-2.06640625 0.09765625 -2.06640625 0.09765625 0 0 Z " fill="#FEFEFE" transform="translate(61.06640625,212.90234375)"/>
<path d="M0 0 C3.3 0 6.6 0 10 0 C10.09765625 6.93359375 10.09765625 6.93359375 10 9 C9 10 9 10 6.93359375 10.09765625 C3.46679688 10.04882812 3.46679688 10.04882812 0 10 C0 6.7 0 3.4 0 0 Z " fill="#FDFEFE" transform="translate(0,194)"/>
<path d="M0 0 C3.46679688 0.04882812 3.46679688 0.04882812 6.93359375 0.09765625 C6.93359375 3.39765625 6.93359375 6.69765625 6.93359375 10.09765625 C3.63359375 10.09765625 0.33359375 10.09765625 -3.06640625 10.09765625 C-3.1640625 3.1640625 -3.1640625 3.1640625 -3.06640625 1.09765625 C-2.06640625 0.09765625 -2.06640625 0.09765625 0 0 Z " fill="#FEFEFE" transform="translate(216.06640625,154.90234375)"/>
<path d="M0 0 C3.3 0 6.6 0 10 0 C10.09765625 6.93359375 10.09765625 6.93359375 10 9 C9 10 9 10 6.93359375 10.09765625 C3.46679688 10.04882812 3.46679688 10.04882812 0 10 C0 6.7 0 3.4 0 0 Z " fill="#FDFDFD" transform="translate(0,136)"/>
<path d="M0 0 C3.3 0 6.6 0 10 0 C10.09765625 6.93359375 10.09765625 6.93359375 10 9 C9 10 9 10 6.93359375 10.09765625 C3.46679688 10.04882812 3.46679688 10.04882812 0 10 C0 6.7 0 3.4 0 0 Z " fill="#EEEFEF" transform="translate(0,68)"/>
<path d="M0 0 C3.46679688 0.04882812 3.46679688 0.04882812 6.93359375 0.09765625 C6.93359375 3.39765625 6.93359375 6.69765625 6.93359375 10.09765625 C3.63359375 10.09765625 0.33359375 10.09765625 -3.06640625 10.09765625 C-3.1640625 3.1640625 -3.1640625 3.1640625 -3.06640625 1.09765625 C-2.06640625 0.09765625 -2.06640625 0.09765625 0 0 Z " fill="#FEFEFE" transform="translate(216.06640625,57.90234375)"/>
<path d="M0 0 C3.3 0 6.6 0 10 0 C10.09765625 6.93359375 10.09765625 6.93359375 10 9 C9 10 9 10 6.93359375 10.09765625 C3.46679688 10.04882812 3.46679688 10.04882812 0 10 C0 6.7 0 3.4 0 0 Z " fill="#FDFDFD" transform="translate(0,39)"/>
<path d="M0 0 C3.3 0 6.6 0 10 0 C10 3.3 10 6.6 10 10 C3.06640625 10.09765625 3.06640625 10.09765625 1 10 C0 9 0 9 -0.09765625 6.93359375 C-0.06510417 4.62239583 -0.03255208 2.31119792 0 0 Z " fill="#FDFEFE" transform="translate(213,0)"/>
<path d="M0 0 C3.3 0 6.6 0 10 0 C10.09765625 6.93359375 10.09765625 6.93359375 10 9 C9 10 9 10 6.93359375 10.09765625 C3.46679688 10.04882812 3.46679688 10.04882812 0 10 C0 6.7 0 3.4 0 0 Z " fill="#FDFEFE" transform="translate(194,0)"/>
<path d="M0 0 C3.3 0 6.6 0 10 0 C10 3.3 10 6.6 10 10 C3.06640625 10.09765625 3.06640625 10.09765625 1 10 C0 9 0 9 -0.09765625 6.93359375 C-0.06510417 4.62239583 -0.03255208 2.31119792 0 0 Z " fill="#EEEFEF" transform="translate(184,0)"/>
<path d="M0 0 C3.3 0 6.6 0 10 0 C10 3.3 10 6.6 10 10 C3.06640625 10.09765625 3.06640625 10.09765625 1 10 C0 9 0 9 -0.09765625 6.93359375 C-0.06510417 4.62239583 -0.03255208 2.31119792 0 0 Z " fill="#FDFEFE" transform="translate(116,0)"/>
<path d="M0 0 C3.3 0 6.6 0 10 0 C10 3.3 10 6.6 10 10 C3.06640625 10.09765625 3.06640625 10.09765625 1 10 C0 9 0 9 -0.09765625 6.93359375 C-0.06510417 4.62239583 -0.03255208 2.31119792 0 0 Z " fill="#EEEFEF" transform="translate(87,0)"/>
<path d="M0 0 C3.3 0 6.6 0 10 0 C10.09765625 6.93359375 10.09765625 6.93359375 10 9 C9 10 9 10 6.93359375 10.09765625 C3.46679688 10.04882812 3.46679688 10.04882812 0 10 C0 6.7 0 3.4 0 0 Z " fill="#EEEFEF" transform="translate(68,0)"/>
<path d="M0 0 C3.3 0 6.6 0 10 0 C10 3.3 10 6.6 10 10 C3.06640625 10.09765625 3.06640625 10.09765625 1 10 C0 9 0 9 -0.09765625 6.93359375 C-0.06510417 4.62239583 -0.03255208 2.31119792 0 0 Z " fill="#FDFEFE" transform="translate(19,0)"/>
<path d="M0 0 C2.01822917 0.06510417 4.03645833 0.13020833 6.0546875 0.1953125 C6.0546875 3.4953125 6.0546875 6.7953125 6.0546875 10.1953125 C2.7546875 10.1953125 -0.5453125 10.1953125 -3.9453125 10.1953125 C-4.140625 4.140625 -4.140625 4.140625 -3.9453125 2.1953125 C-1.9453125 0.1953125 -1.9453125 0.1953125 0 0 Z " fill="#FEFEFE" transform="translate(216.9453125,212.8046875)"/>
<path d="M0 0 C2.01822917 0.06510417 4.03645833 0.13020833 6.0546875 0.1953125 C6.0546875 3.4953125 6.0546875 6.7953125 6.0546875 10.1953125 C2.7546875 10.1953125 -0.5453125 10.1953125 -3.9453125 10.1953125 C-4.140625 4.140625 -4.140625 4.140625 -3.9453125 2.1953125 C-1.9453125 0.1953125 -1.9453125 0.1953125 0 0 Z " fill="#FEFEFE" transform="translate(22.9453125,212.8046875)"/>
<path d="M0 0 C2.01822917 0.06510417 4.03645833 0.13020833 6.0546875 0.1953125 C6.0546875 3.4953125 6.0546875 6.7953125 6.0546875 10.1953125 C2.7546875 10.1953125 -0.5453125 10.1953125 -3.9453125 10.1953125 C-4.140625 4.140625 -4.140625 4.140625 -3.9453125 2.1953125 C-1.9453125 0.1953125 -1.9453125 0.1953125 0 0 Z " fill="#FEFEFE" transform="translate(216.9453125,115.8046875)"/>
<path d="M0 0 C2.01822917 0.06510417 4.03645833 0.13020833 6.0546875 0.1953125 C6.0546875 3.4953125 6.0546875 6.7953125 6.0546875 10.1953125 C2.7546875 10.1953125 -0.5453125 10.1953125 -3.9453125 10.1953125 C-4.140625 4.140625 -4.140625 4.140625 -3.9453125 2.1953125 C-1.9453125 0.1953125 -1.9453125 0.1953125 0 0 Z " fill="#FEFEFE" transform="translate(216.9453125,18.8046875)"/>
<path d="M0 0 C2.97 0 5.94 0 9 0 C10.125 7.75 10.125 7.75 9 10 C6.03 10 3.06 10 0 10 C0 6.7 0 3.4 0 0 Z " fill="#FEFEFD" transform="translate(10,29)"/>
<path d="M0 0 C3.3 0 6.6 0 10 0 C10 2.97 10 5.94 10 9 C6.7169902 10.6415049 3.57454967 9.51888624 0 9 C0 6.03 0 3.06 0 0 Z " fill="#EEEFEF" transform="translate(0,165)"/>
<path d="M0 0 C2.97 0 5.94 0 9 0 C9.87890625 6.93359375 9.87890625 6.93359375 10 9 C9 10 9 10 6.93359375 10.09765625 C3.46679688 10.04882812 3.46679688 10.04882812 0 10 C0 6.7 0 3.4 0 0 Z " fill="#EEEFEF" transform="translate(165,0)"/>
<path d="M0 0 C3.3 0 6.6 0 10 0 C10 2.97 10 5.94 10 9 C6.7 9 3.4 9 0 9 C0 6.03 0 3.06 0 0 Z " fill="#EEEFEF" transform="translate(0,204)"/>
<path d="M0 0 C3.3 0 6.6 0 10 0 C10 2.97 10 5.94 10 9 C6.7 9 3.4 9 0 9 C0 6.03 0 3.06 0 0 Z " fill="#EEEFEF" transform="translate(0,107)"/>
<path d="M0 0 C3.3 0 6.6 0 10 0 C10 2.97 10 5.94 10 9 C6.7 9 3.4 9 0 9 C0 6.03 0 3.06 0 0 Z " fill="#FEFEFE" transform="translate(29,10)"/>
<path d="M0 0 C3.3 0 6.6 0 10 0 C10 2.97 10 5.94 10 9 C6.7 9 3.4 9 0 9 C0 6.03 0 3.06 0 0 Z " fill="#EEEFEF" transform="translate(0,10)"/>
<path d="M0 0 C2.97 0 5.94 0 9 0 C9 3.3 9 6.6 9 10 C6.03 10 3.06 10 0 10 C0 6.7 0 3.4 0 0 Z " fill="#EEEFEF" transform="translate(204,0)"/>
<path d="M0 0 C2.97 0 5.94 0 9 0 C9 3.3 9 6.6 9 10 C6.03 10 3.06 10 0 10 C0 6.7 0 3.4 0 0 Z " fill="#EEEFEF" transform="translate(146,0)"/>
<path d="M0 0 C2.97 0 5.94 0 9 0 C9 3.3 9 6.6 9 10 C6.03 10 3.06 10 0 10 C0 6.7 0 3.4 0 0 Z " fill="#EEEFEF" transform="translate(49,0)"/>
<path d="M0 0 C3.5 0.125 3.5 0.125 4.5 1.125 C4.64193337 4.12831018 4.54236378 7.11717134 4.5 10.125 C1.53 10.125 -1.44 10.125 -4.5 10.125 C-4.59765625 3.19140625 -4.59765625 3.19140625 -4.5 1.125 C-3.5 0.125 -3.5 0.125 0 0 Z " fill="#FEFEFE" transform="translate(14.5,183.875)"/>
<path d="M0 0 C3.46679688 0.04882812 3.46679688 0.04882812 6.93359375 0.09765625 C6.93359375 3.06765625 6.93359375 6.03765625 6.93359375 9.09765625 C-0 9.1953125 -0 9.1953125 -2.06640625 9.09765625 C-3.06640625 8.09765625 -3.06640625 8.09765625 -3.19140625 4.59765625 C-3.03232226 0.14330445 -3.03232226 0.14330445 0 0 Z " fill="#FEFEFE" transform="translate(187.06640625,9.90234375)"/>
<path d="M0 0 C3 1.125 3 1.125 5 2.125 C5 4.435 5 6.745 5 9.125 C1.7 9.125 -1.6 9.125 -5 9.125 C-5 6.155 -5 3.185 -5 0.125 C-3 -0.875 -3 -0.875 0 0 Z " fill="#FEFEFD" transform="translate(34,203.875)"/>
<path d="M0 0 C2.97 0 5.94 0 9 0 C9 3.3 9 6.6 9 10 C6.69 10 4.38 10 2 10 C-0.09350689 6.5980513 -0.17942163 3.94727588 0 0 Z " fill="#FEFEFD" transform="translate(204,29)"/>
<path d="M0 0 C2.97 0 5.94 0 9 0 C9 2.97 9 5.94 9 9 C6.03 9 3.06 9 0 9 C0 6.03 0 3.06 0 0 Z " fill="#EDEEEE" transform="translate(165,214)"/>
<path d="M0 0 C2.97 0 5.94 0 9 0 C9 2.97 9 5.94 9 9 C6.03 9 3.06 9 0 9 C0 6.03 0 3.06 0 0 Z " fill="#EDEEEE" transform="translate(107,214)"/>
<path d="M0 0 C2.97 0 5.94 0 9 0 C9 2.97 9 5.94 9 9 C6.03 9 3.06 9 0 9 C0 6.03 0 3.06 0 0 Z " fill="#EDEEEE" transform="translate(49,214)"/>
<path d="M0 0 C2.97 0 5.94 0 9 0 C9 2.97 9 5.94 9 9 C6.03 9 3.06 9 0 9 C0 6.03 0 3.06 0 0 Z " fill="#EDEEEE" transform="translate(20,204)"/>
<path d="M0 0 C2.97 0 5.94 0 9 0 C9 2.97 9 5.94 9 9 C6.03 9 3.06 9 0 9 C0 6.03 0 3.06 0 0 Z " fill="#EDEEEE" transform="translate(10,194)"/>
<path d="M0 0 C2.97 0 5.94 0 9 0 C9 2.97 9 5.94 9 9 C6.03 9 3.06 9 0 9 C0 6.03 0 3.06 0 0 Z " fill="#EDEEEE" transform="translate(214,165)"/>
<path d="M0 0 C2.97 0 5.94 0 9 0 C9 2.97 9 5.94 9 9 C6.03 9 3.06 9 0 9 C0 6.03 0 3.06 0 0 Z " fill="#EDEEEE" transform="translate(214,107)"/>
<path d="M0 0 C2.97 0 5.94 0 9 0 C9 2.97 9 5.94 9 9 C6.03 9 3.06 9 0 9 C0 6.03 0 3.06 0 0 Z " fill="#EDEEEE" transform="translate(214,49)"/>
<path d="M0 0 C2.97 0 5.94 0 9 0 C9 2.97 9 5.94 9 9 C6.03 9 3.06 9 0 9 C0 6.03 0 3.06 0 0 Z " fill="#EDEEEE" transform="translate(204,20)"/>
<path d="M0 0 C2.97 0 5.94 0 9 0 C9 2.97 9 5.94 9 9 C6.03 9 3.06 9 0 9 C0 6.03 0 3.06 0 0 Z " fill="#EDEEEE" transform="translate(10,20)"/>
<path d="M0 0 C2.97 0 5.94 0 9 0 C9 2.97 9 5.94 9 9 C6.03 9 3.06 9 0 9 C0 6.03 0 3.06 0 0 Z " fill="#EDEEEE" transform="translate(214,10)"/>
<path d="M0 0 C2.97 0 5.94 0 9 0 C9 2.97 9 5.94 9 9 C6.03 9 3.06 9 0 9 C0 6.03 0 3.06 0 0 Z " fill="#FFFFFF" transform="translate(204,10)"/>
<path d="M0 0 C2.97 0 5.94 0 9 0 C9 2.97 9 5.94 9 9 C6.03 9 3.06 9 0 9 C0 6.03 0 3.06 0 0 Z " fill="#EDEEEE" transform="translate(194,10)"/>
<path d="M0 0 C2.97 0 5.94 0 9 0 C9 2.97 9 5.94 9 9 C6.03 9 3.06 9 0 9 C0 6.03 0 3.06 0 0 Z " fill="#EDEEEE" transform="translate(20,10)"/>
<path d="M0 0 C3.3 0 6.6 0 10 0 C10 2.31 10 4.62 10 7 C6.7 7 3.4 7 0 7 C0 4.69 0 2.38 0 0 Z " fill="#EDEFEF" transform="translate(155,10)"/>
<path d="M0 0 C3.3 0 6.6 0 10 0 C10 2.31 10 4.62 10 7 C6.7 7 3.4 7 0 7 C0 4.69 0 2.38 0 0 Z " fill="#EEEFF0" transform="translate(58,10)"/>
<path d="M0 0 C2.97 0 5.94 0 9 0 C9 2.31 9 4.62 9 7 C6.03 7.66 3.06 8.32 0 9 C0 6.03 0 3.06 0 0 Z " fill="#EDEEEE" transform="translate(39,10)"/>
<path d="M0 0 C1.4540625 0.0309375 1.4540625 0.0309375 2.9375 0.0625 C2.9375 3.3625 2.9375 6.6625 2.9375 10.0625 C0.6275 10.0625 -1.6825 10.0625 -4.0625 10.0625 C-4.08939216 8.58343108 -4.10884621 7.10422517 -4.125 5.625 C-4.13660156 4.80128906 -4.14820313 3.97757813 -4.16015625 3.12890625 C-4.00103255 -0.23815127 -3.43619093 0.07012635 0 0 Z " fill="#FEFEFE" transform="translate(14.0625,144.9375)"/>
<path d="M0 0 C1.4540625 0.0309375 1.4540625 0.0309375 2.9375 0.0625 C2.9375 3.3625 2.9375 6.6625 2.9375 10.0625 C0.6275 10.0625 -1.6825 10.0625 -4.0625 10.0625 C-4.08939216 8.58343108 -4.10884621 7.10422517 -4.125 5.625 C-4.13660156 4.80128906 -4.14820313 3.97757812 -4.16015625 3.12890625 C-4.00103255 -0.23815127 -3.43619093 0.07012635 0 0 Z " fill="#EEEFF0" transform="translate(14.0625,115.9375)"/>
<path d="M0 0 C1.4540625 0.0309375 1.4540625 0.0309375 2.9375 0.0625 C2.9375 3.3625 2.9375 6.6625 2.9375 10.0625 C0.6275 10.0625 -1.6825 10.0625 -4.0625 10.0625 C-4.08939216 8.58343108 -4.10884621 7.10422517 -4.125 5.625 C-4.13660156 4.80128906 -4.14820313 3.97757812 -4.16015625 3.12890625 C-4.00103255 -0.23815127 -3.43619093 0.07012635 0 0 Z " fill="#FEFEFE" transform="translate(14.0625,86.9375)"/>
<path d="M0 0 C1.23556641 0.01740234 1.23556641 0.01740234 2.49609375 0.03515625 C3.32238281 0.04417969 4.14867188 0.05320312 5 0.0625 C5.63808594 0.07410156 6.27617188 0.08570313 6.93359375 0.09765625 C6.93359375 2.40765625 6.93359375 4.71765625 6.93359375 7.09765625 C3.63359375 7.09765625 0.33359375 7.09765625 -3.06640625 7.09765625 C-3.10894981 5.09810879 -3.10721408 3.09723989 -3.06640625 1.09765625 C-2.06640625 0.09765625 -2.06640625 0.09765625 0 0 Z " fill="#FEFEFE" transform="translate(90.06640625,9.90234375)"/>
<path d="M0 0 C2.97 0 5.94 0 9 0 C9 2.64 9 5.28 9 8 C6.03 7.67 3.06 7.34 0 7 C0 4.69 0 2.38 0 0 Z " fill="#EDEEEE" transform="translate(175,10)"/>
<path d="M0 0 C2.97 0 5.94 0 9 0 C9 2.31 9 4.62 9 7 C5.7 7 2.4 7 -1 7 C-0.67 4.69 -0.34 2.38 0 0 Z " fill="#FEFEFE" transform="translate(146,10)"/>
<path d="M0 0 C2.31 0 4.62 0 7 0 C7 2.97 7 5.94 7 9 C4.69 9 2.38 9 0 9 C0 6.03 0 3.06 0 0 Z " fill="#FFFFFF" transform="translate(10,49)"/>
<path d="M0 0 C2.97 0 5.94 0 9 0 C9 2.31 9 4.62 9 7 C6.03 7 3.06 7 0 7 C0 4.69 0 2.38 0 0 Z " fill="#EDEEEF" transform="translate(136,10)"/>
<path d="M0 0 C2.97 0 5.94 0 9 0 C9 2.31 9 4.62 9 7 C6.03 7 3.06 7 0 7 C0 4.69 0 2.38 0 0 Z " fill="#FFFFFF" transform="translate(107,10)"/>
<path d="M0 0 C2.97 0 5.94 0 9 0 C9 2.31 9 4.62 9 7 C6.03 7 3.06 7 0 7 C0 4.69 0 2.38 0 0 Z " fill="#EDEEEF" transform="translate(78,10)"/>
<path d="M0 0 C3.3 0 6.6 0 10 0 C10 1.65 10 3.3 10 5 C6.7169902 6.6415049 3.57454967 5.51888624 0 5 C0 3.35 0 1.7 0 0 Z " fill="#FEFEFE" transform="translate(68,208)"/>
<path d="M0 0 C1.65 0 3.3 0 5 0 C5.19412181 1.47831221 5.38012131 2.95769316 5.5625 4.4375 C5.66691406 5.26121094 5.77132812 6.08492188 5.87890625 6.93359375 C5.91886719 7.61550781 5.95882812 8.29742187 6 9 C5.67 9.33 5.34 9.66 5 10 C3.35 10 1.7 10 0 10 C0 6.7 0 3.4 0 0 Z " fill="#FEFEFE" transform="translate(208,68)"/>
<path d="M0 0 C3.3 0 6.6 0 10 0 C10 1.65 10 3.3 10 5 C6.7 5 3.4 5 0 5 C0 3.35 0 1.7 0 0 Z " fill="#EDEFF0" transform="translate(155,208)"/>
<path d="M0 0 C3.3 0 6.6 0 10 0 C10 1.65 10 3.3 10 5 C6.7 5 3.4 5 0 5 C0 3.35 0 1.7 0 0 Z " fill="#EDEFF0" transform="translate(58,208)"/>
<path d="M0 0 C1.65 0 3.3 0 5 0 C5 3.3 5 6.6 5 10 C3.35 10 1.7 10 0 10 C0 6.7 0 3.4 0 0 Z " fill="#FEFEFE" transform="translate(208,126)"/>
<path d="M0 0 C1.65 0 3.3 0 5 0 C5 3.3 5 6.6 5 10 C3.35 10 1.7 10 0 10 C0 6.7 0 3.4 0 0 Z " fill="#EDEFF0" transform="translate(208,58)"/>
<path d="M0 0 C0 1.98 0 3.96 0 6 C-2.97 6 -5.94 6 -9 6 C-9 4.35 -9 2.7 -9 1 C-5.846632 0.29925156 -3.27275026 0 0 0 Z " fill="#EDEEEE" transform="translate(184,207)"/>
<path d="M0 0 C1.65 0 3.3 0 5 0 C5 2.97 5 5.94 5 9 C3.02 9 1.04 9 -1 9 C-0.67 6.03 -0.34 3.06 0 0 Z " fill="#EDEEEE" transform="translate(208,175)"/>
<path d="M0 0 C2.475 0.495 2.475 0.495 5 1 C5 3.97 5 6.94 5 10 C3.35 10 1.7 10 0 10 C0 6.7 0 3.4 0 0 Z " fill="#EDEEF0" transform="translate(208,116)"/>
<path d="M0 0 C2.97 0 5.94 0 9 0 C9 1.65 9 3.3 9 5 C6.03 5 3.06 5 0 5 C0 3.35 0 1.7 0 0 Z " fill="#EDEEEF" transform="translate(117,208)"/>
<path d="M0 0 C2.97 0 5.94 0 9 0 C9 1.65 9 3.3 9 5 C6.03 5 3.06 5 0 5 C0 3.35 0 1.7 0 0 Z " fill="#FFFFFF" transform="translate(165,208)"/>
<path d="M0 0 C1.65 0 3.3 0 5 0 C5 2.97 5 5.94 5 9 C3.35 9 1.7 9 0 9 C0 6.03 0 3.06 0 0 Z " fill="#FFFFFF" transform="translate(208,165)"/>
<path d="M0 0 C1.65 0 3.3 0 5 0 C5 2.97 5 5.94 5 9 C3.35 9 1.7 9 0 9 C0 6.03 0 3.06 0 0 Z " fill="#FFFFFF" transform="translate(208,107)"/>
<path d="M0 0 C0.33 0 0.66 0 1 0 C1.09765625 6.15234375 1.09765625 6.15234375 1 8 C0 9 0 9 -1.84765625 9.09765625 C-3.8984375 9.06510417 -5.94921875 9.03255208 -8 9 C-7.04270084 7.87411986 -6.08412105 6.7493285 -5.125 5.625 C-4.59132812 4.99851563 -4.05765625 4.37203125 -3.5078125 3.7265625 C-2.38567993 2.44163349 -1.20628025 1.20628025 0 0 Z " fill="#FCFDFD" transform="translate(203,195)"/>
<path d="M0 0 C0.66 0.66 1.32 1.32 2 2 C0.54782324 3.50596108 -0.91192861 5.00462104 -2.375 6.5 C-3.18710938 7.3353125 -3.99921875 8.170625 -4.8359375 9.03125 C-7 11 -7 11 -9 11 C-9 10.34 -9 9.68 -9 9 C-7.5390625 7.59765625 -7.5390625 7.59765625 -5.625 6.0625 C-3.16098476 4.08013383 -1.79533563 2.69300345 0 0 Z " fill="#FAF4DB" transform="translate(202,193)"/>
<path d="M0 0 C2.64 0 5.28 0 8 0 C5.31158141 2.25245881 3.35358125 3.88213958 0 5 C0 3.35 0 1.7 0 0 Z " fill="#F0EFE8" transform="translate(29,19)"/>
<path d="M0 0 C0.33 0 0.66 0 1 0 C1.33 3.63 1.66 7.26 2 11 C-1.2830098 12.6415049 -4.42545033 11.51888624 -8 11 C-8 10.67 -8 10.34 -8 10 C-5.36 10 -2.72 10 0 10 C0 6.7 0 3.4 0 0 Z " fill="#F4F5F5" transform="translate(213,203)"/>
<path d="M0 0 C0.33 0 0.66 0 1 0 C1.33 3.63 1.66 7.26 2 11 C1.01 11.495 1.01 11.495 0 12 C-2.125 11.0625 -2.125 11.0625 -4 10 C-2.68 10 -1.36 10 0 10 C0 6.7 0 3.4 0 0 Z " fill="#F4F5F5" transform="translate(213,106)"/>
</svg>
