<?xml version="1.0" encoding="UTF-8"?>
<svg version="1.1" xmlns="http://www.w3.org/2000/svg" width="306" height="165">
<path d="M0 0 C100.98 0 201.96 0 306 0 C306 54.45 306 108.9 306 165 C205.02 165 104.04 165 0 165 C0 110.55 0 56.1 0 0 Z " fill="#F79839" transform="translate(0,0)"/>
<path d="M0 0 C63.69 0 127.38 0 193 0 C193 0.33 193 0.66 193 1 C191.43765625 1.22042969 191.43765625 1.22042969 189.84375 1.4453125 C168.80990803 4.6386344 150.1092933 12.95898848 134 27 C133.31808594 27.53882812 132.63617188 28.07765625 131.93359375 28.6328125 C114.41062818 42.82950084 106.10325876 65.28716168 103 87 C102.75332312 92.26729899 102.75426393 97.53997025 102.75 102.8125 C102.74932526 103.55576538 102.74865051 104.29903076 102.74795532 105.06481934 C102.77200645 121.69921039 102.96069785 142.05994714 115 155 C125.02101802 161.54470026 138.46039057 162.27081857 150 164 C150 164.33 150 164.66 150 165 C100.5 165 51 165 0 165 C0 110.55 0 56.1 0 0 Z " fill="#FEFEFE" transform="translate(0,0)"/>
<path d="M0 0 C13.74314918 9.1111989 22.19392967 20.39416447 26.25 36.5625 C28.46071493 49.36454916 29.073511 67.39392931 21.94189453 78.8203125 C17.80094843 84.23831121 12.94734167 85.64561172 6.42919922 86.81591797 C1.40410246 87.45529209 -3.62730355 87.52741159 -8.6875 87.5625 C-10.25419434 87.57772705 -10.25419434 87.57772705 -11.85253906 87.59326172 C-27.08656004 87.42271371 -40.69429612 82.12030083 -51.75 71.54296875 C-63.51229618 58.90258449 -69.7816039 43.51616019 -69.28125 26.19140625 C-68.19266775 14.32283586 -62.41582438 5.47450311 -53.44140625 -2.1484375 C-36.96798737 -13.79843933 -16.22240266 -9.63967048 0 0 Z " fill="#3499CD" transform="translate(69,75.875)"/>
<path d="M0 0 C32.01 0 64.02 0 97 0 C97.32242427 31.56623202 97.32242427 31.56623202 97.390625 44.80273438 C97.43807975 53.93941198 97.49383914 63.07549903 97.60351562 72.21166992 C97.68335848 78.86584959 97.73489002 85.51954984 97.75270796 92.17419523 C97.76312102 95.69673652 97.78751492 99.21790656 97.84584045 102.7400074 C97.91048825 106.67596883 97.91191257 110.61059995 97.90820312 114.54711914 C97.95134644 116.29068443 97.95134644 116.29068443 97.99536133 118.06947327 C97.91704474 125.74794156 97.91704474 125.74794156 95.29856873 129.32299614 C91.68414998 132.67985726 90.06359176 134 85 134 C85.3640435 128.53934751 86.24348737 124.02645182 88.125 118.875 C89.8564716 114.00445759 90.35646186 110.9736935 89 106 C85.17344175 105.43008707 83.07157618 105.35376837 79.70703125 107.3828125 C75.5107487 110.63018694 71.63137351 114.13434433 68 118 C68.54855348 113.428721 69.41744803 109.32564205 71 105 C67.55825894 104.89502315 65.00064425 105.25801525 62 107 C59.59262896 111.45936825 58.32464563 116.12700643 57 121 C55.83593626 125.10642059 54.91734737 127.66991542 51.625 130.4375 C50.74714844 131.20900391 50.74714844 131.20900391 49.8515625 131.99609375 C48 133 48 133 45.8359375 132.72265625 C44 132 44 132 43 131 C43.11673494 124.34610845 45.07325512 118.84602258 47.48339844 112.73046875 C49.75076741 106.88545575 51.59241986 100.96490572 53.3125 94.9375 C53.69378052 93.61733887 53.69378052 93.61733887 54.08276367 92.27050781 C59.58769488 72.67662141 58.96212018 51.50801855 49.8125 33.1875 C40.570636 17.12754444 26.9270914 7.54128623 9.3046875 2.55859375 C6.20823815 1.8080984 3.16643991 1.34417825 0 1 C0 0.67 0 0.34 0 0 Z " fill="#FDFDFD" transform="translate(209,0)"/>
<path d="M0 0 C2.125 0.9375 2.125 0.9375 4 2 C4.89357529 16.22273999 0.70660235 24.96925328 -8 36 C-8.56976563 36.63808594 -9.13953125 37.27617188 -9.7265625 37.93359375 C-11.46114763 40.74830398 -11.36488747 42.84473818 -11.3125 46.125 C-11.30863281 47.17945313 -11.30476562 48.23390625 -11.30078125 49.3203125 C-11.26520482 52.15067533 -11.26520482 52.15067533 -9 54 C-4.07671248 54 -1.04734171 52.14203929 2.4765625 48.93359375 C4.74566223 46.05358256 5.3353535 43.0446663 6.203125 39.53125 C7.91981434 34.07823679 11.59610867 30.27626485 15.75 26.5 C20.13460739 24.47633505 24.2414102 24.12837712 29 25 C31.26171875 26.2890625 31.26171875 26.2890625 33 28 C33.59777798 31.31495061 33.85876703 32.87882605 33 36 C28.98391357 41.63278577 22.30418099 43.84364031 16 46 C16.60183749 48.02045442 17.27306096 50.02111039 18 52 C21.2878657 53.64393285 24.46034148 53.63230327 28 53 C31.93333467 51.16956717 35.14040417 48.90514505 36.95703125 44.87890625 C37.40715321 43.36007368 37.83648017 41.83494201 38.24609375 40.3046875 C40.31485909 33.98048258 45.08871359 29.12155937 50.765625 25.83203125 C54.78126356 24.33669731 58.78848198 24.61164281 63 25 C63.99 26.98 63.99 26.98 65 29 C65.81404297 28.566875 65.81404297 28.566875 66.64453125 28.125 C67.35996094 27.75375 68.07539063 27.3825 68.8125 27 C69.52019531 26.62875 70.22789062 26.2575 70.95703125 25.875 C73 25 73 25 76 25 C74.9476101 29.9381372 73.7896136 34.77776951 72.375 39.625 C71.16721005 43.94026963 70.70263834 47.53957512 71 52 C75.79057618 51.5773021 78.74646188 49.36426062 82 46 C83.79603768 43.72909372 85.39130327 41.41304509 87 39 C85.515 38.505 85.515 38.505 84 38 C83.5179606 30.88991889 83.5179606 30.88991889 85.625 27 C88 25 88 25 91.25 24.6875 C92.1575 24.790625 93.065 24.89375 94 25 C94.95024979 28.69541586 94.95024979 31.30458414 94 35 C94.78375 34.505 95.5675 34.01 96.375 33.5 C99 32 99 32 101 32 C101.28875 31.401875 101.5775 30.80375 101.875 30.1875 C103 28 103 28 105 25 C105.99 25 106.98 25 108 25 C106.99358707 30.11593241 105.75524719 34.82019344 103.875 39.6875 C102.38414376 43.61894312 101.53933938 46.73888926 102 51 C104.33455603 51.83633546 105.49928504 52.21859169 107.81640625 51.20703125 C112.93613459 47.11812069 114.02169502 43.28855858 115.34765625 36.98828125 C117.09182054 28.99854662 117.09182054 28.99854662 120 26 C123.16773633 25.0080272 125.62221449 25 129 25 C128.34 28.96 127.68 32.92 127 37 C128.03125 35.7625 129.0625 34.525 130.125 33.25 C134.20248973 28.63212006 137.40846056 25.30234627 143.75 24.5625 C144.8225 24.706875 145.895 24.85125 147 25 C149.48279843 28.72419765 149.12404504 30.1382365 148.5546875 34.39453125 C147.73584084 38.24080393 146.34066032 41.80869511 144.921875 45.46875 C143.89500853 48.28828167 143.32240603 51.01774424 143 54 C147.66714289 52.16974789 151.18765077 50.3502463 155 47 C154.51077907 51.24234863 153.46375972 52.98261025 150.1875 55.6875 C149.50042969 56.26886719 148.81335938 56.85023438 148.10546875 57.44921875 C143.70094188 60.69336934 140.55387226 61.60587697 135 61 C132.9788182 58.95585023 132.06781653 57.69172862 131.78515625 54.80859375 C132.47489837 48.91178437 133.96981634 43.8309574 136.2578125 38.34765625 C137.28863853 35.88677328 137.28863853 35.88677328 136 33 C129.84384907 37.91595547 124.73004751 42.03318103 123.54296875 50.109375 C123.2818579 53.07559421 123.09772373 56.02431242 123 59 C116.375 61 116.375 61 113 61 C112.67 58.36 112.34 55.72 112 53 C111.45472656 53.49371094 110.90945313 53.98742187 110.34765625 54.49609375 C104.80958941 59.20108387 101.28139871 60.88442224 94 61 C91.50838499 57.91039739 90.73476783 55.63327095 91 51.75 C91.76468014 46.520291 94.18158424 42.39922461 97 38 C93.53514293 38.62032476 93.53514293 38.62032476 90 40 C89.58814453 41.07314453 89.58814453 41.07314453 89.16796875 42.16796875 C87.51292264 46.18104043 84.76690844 48.63103574 81.6875 51.625 C81.11837891 52.19734375 80.54925781 52.7696875 79.96289062 53.359375 C76.02784334 57.24472593 72.5367499 60.64485501 66.875 61.4375 C64 61 64 61 62.125 59.4375 C60.6295056 56.19726212 60.79669598 53.52393641 61 50 C60.34 50 59.68 50 59 50 C58.773125 50.556875 58.54625 51.11375 58.3125 51.6875 C56.02395941 55.71969057 52.82412102 58.45058599 49 61 C45.625 61.5 45.625 61.5 42 61 C39.70950347 59.18930823 38.6278729 57.51580357 37 55 C37 54.01 37 53.02 37 52 C36.33613281 52.48210937 35.67226562 52.96421875 34.98828125 53.4609375 C34.10527344 54.09257812 33.22226563 54.72421875 32.3125 55.375 C31.44238281 56.00148437 30.57226562 56.62796875 29.67578125 57.2734375 C24.17494039 60.82288518 19.45477167 61.77316684 13 61 C9.36532921 59.37599816 8.22591304 58.33886956 6 55 C6 53.68 6 52.36 6 51 C4.87851563 51.83144531 4.87851563 51.83144531 3.734375 52.6796875 C2.74953125 53.40414062 1.7646875 54.12859375 0.75 54.875 C-0.22453125 55.59429687 -1.1990625 56.31359375 -2.203125 57.0546875 C-6.58680862 60.10367415 -9.53418373 61.51369365 -15.03125 61.390625 C-18.42127675 60.71800064 -19.96848242 58.64712896 -22 56 C-25.47333526 45.57999422 -22.44811176 34.02919763 -19 24 C-18.72623535 23.19175781 -18.4524707 22.38351563 -18.17041016 21.55078125 C-17.26362416 18.95181955 -16.29930373 16.38205664 -15.3125 13.8125 C-14.87744141 12.591073 -14.87744141 12.591073 -14.43359375 11.3449707 C-12.5572575 6.72924168 -10.97745901 4.5724139 -6.35546875 2.51171875 C-4.91058855 1.98823761 -3.4596493 1.48076524 -2 1 C-1.34 0.67 -0.68 0.34 0 0 Z " fill="#060403" transform="translate(151,80)"/>
<path d="M0 0 C0.99 0.495 0.99 0.495 2 1 C1.10081341 6.08277053 -0.53772126 10.85569362 -2.16015625 15.74609375 C-3.00814612 19.03156148 -3.29896747 21.6259385 -3 25 C-2.01 26.485 -2.01 26.485 -1 28 C4.49079169 28.87852667 7.59345356 27.45170342 12.0078125 24.484375 C14.38311064 22.71454501 16.68694855 20.85044116 19 19 C19 30.22 19 41.44 19 53 C-24.23 53 -67.46 53 -112 53 C-112 52.67 -112 52.34 -112 52 C-111.41210693 51.90501221 -110.82421387 51.81002441 -110.21850586 51.7121582 C-87.10723724 47.91474351 -68.20204696 42.57193535 -51 26 C-49.02699916 24.29640489 -47.01997448 22.64787392 -45 21 C-44.01 23.31 -43.02 25.62 -42 28 C-34.7333077 27.88465568 -31.24239162 26.2351886 -25.75 21.49609375 C-24 20 -24 20 -23 20 C-23 22.97 -23 25.94 -23 29 C-20.03 28.34 -17.06 27.68 -14 27 C-13.97421875 26.21496094 -13.9484375 25.42992187 -13.921875 24.62109375 C-13.37385309 14.47023343 -10.86695631 9.47306225 -3.5859375 2.3828125 C-2 1 -2 1 0 0 Z " fill="#FDFCFC" transform="translate(287,112)"/>
<path d="M0 0 C2.3125 0.4375 2.3125 0.4375 4.3125 2.4375 C5.45522964 10.1509251 2.27634433 15.92753668 -1.6875 22.4375 C-4.14715318 25.37160405 -4.14715318 25.37160405 -7.25 25.75 C-9.6875 25.4375 -9.6875 25.4375 -11.6875 23.4375 C-12.54923259 15.3946625 -10.21023529 8.67177601 -5.25 2.3125 C-2.6875 0.4375 -2.6875 0.4375 0 0 Z " fill="#F09437" transform="translate(209.6875,107.5625)"/>
<path d="M0 0 C2.56002346 2.218687 2.94923191 3.65187593 3.4375 7 C3 10 3 10 1.3125 12.375 C-1 14 -1 14 -3.5625 14.4375 C-6 14 -6 14 -7.8125 13 C-9.71233631 9.80027569 -9.54304262 6.62028416 -9 3 C-6.90072516 -0.73204416 -3.99607841 -0.58276144 0 0 Z " fill="#F89A3B" transform="translate(192,77)"/>
<path d="M0 0 C0.99 0.33 1.98 0.66 3 1 C3.97909164 11.18255306 -0.57988571 19.88489615 -6.86328125 27.671875 C-7.42595703 28.32929687 -7.42595703 28.32929687 -8 29 C-9.0586797 25.8239609 -8.99091097 25.12534835 -8.14453125 22.05078125 C-7.93376953 21.28443359 -7.72300781 20.51808594 -7.50585938 19.72851562 C-7.27705078 18.93123047 -7.04824219 18.13394531 -6.8125 17.3125 C-6.49829102 16.14557617 -6.49829102 16.14557617 -6.17773438 14.95507812 C-4.67214152 9.59838426 -2.61986289 4.90873667 0 0 Z " fill="#E78F35" transform="translate(149,85)"/>
<path d="M0 0 C1.67542976 0.28604898 3.34385343 0.61781233 5 1 C5.71558024 8.03653902 5.71558024 8.03653902 3.8046875 10.609375 C1.12285636 12.90038653 -1.4630235 14.59188733 -5 15 C-5.42277492 8.86976372 -4.99795398 5.96715495 -1 1 C-0.67 0.67 -0.34 0.34 0 0 Z " fill="#F09437" transform="translate(171,108)"/>
<path d="M0 0 C1.670625 0.061875 1.670625 0.061875 3.375 0.125 C3.705 1.445 4.035 2.765 4.375 4.125 C3.715 4.125 3.055 4.125 2.375 4.125 C2.375 3.465 2.375 2.805 2.375 2.125 C0.725 2.125 -0.925 2.125 -2.625 2.125 C-2.625 3.115 -2.625 4.105 -2.625 5.125 C-0.315 5.785 1.995 6.445 4.375 7.125 C4.705 8.775 5.035 10.425 5.375 12.125 C1.92254176 14.42663882 0.42761287 14.46990322 -3.625 14.125 C-4.285 13.465 -4.945 12.805 -5.625 12.125 C-5.625 11.135 -5.625 10.145 -5.625 9.125 C-4.635 9.455 -3.645 9.785 -2.625 10.125 C-2.625 10.785 -2.625 11.445 -2.625 12.125 C-0.975 11.795 0.675 11.465 2.375 11.125 C2.375 10.465 2.375 9.805 2.375 9.125 C1.240625 8.7125 0.10625 8.3 -1.0625 7.875 C-4.625 6.125 -4.625 6.125 -5.6875 4.0625 C-5.56004238 0.11131376 -3.55115777 0.12245372 0 0 Z " fill="#FEF3EA" transform="translate(175.625,76.875)"/>
<path d="M0 0 C0.66 0 1.32 0 2 0 C2.33 2.97 2.66 5.94 3 9 C4.32 7.68 5.64 6.36 7 5 C7.99 5.33 8.98 5.66 10 6 C9.01 6.99 8.02 7.98 7 9 C8.19899698 12.0831351 9.47700477 15.06279492 11 18 C9.125 17.8125 9.125 17.8125 7 17 C5.75 14.4375 5.75 14.4375 5 12 C4.01 12.495 4.01 12.495 3 13 C2.34444881 15.52733235 2.34444881 15.52733235 2 18 C1.34 18 0.68 18 0 18 C0 12.06 0 6.12 0 0 Z " fill="#FEF8F3" transform="translate(202,72)"/>
<path d="M0 0 C2 2 2 2 2 5 C1.01 4.67 0.02 4.34 -1 4 C-1 3.34 -1 2.68 -1 2 C-2.65 2 -4.3 2 -6 2 C-6 4.64 -6 7.28 -6 10 C-3.39417629 10.93065133 -2.35801776 11.14917407 0.25 10.0625 C0.8275 9.711875 1.405 9.36125 2 9 C1.67 10.32 1.34 11.64 1 13 C-5.34507042 14.31690141 -5.34507042 14.31690141 -7.9375 13.0625 C-9.62822841 9.7804978 -9.54135705 6.60904698 -9 3 C-6.88804118 -0.75459346 -4.01124771 -0.42672848 0 0 Z " fill="#FEF4EC" transform="translate(192,77)"/>
<path d="M0 0 C0.66 0 1.32 0 2 0 C2 1.32 2 2.64 2 4 C2.66 4 3.32 4 4 4 C4 4.66 4 5.32 4 6 C3.34 6 2.68 6 2 6 C2 9.3 2 12.6 2 16 C2.66 16 3.32 16 4 16 C4 16.66 4 17.32 4 18 C2.68 17.67 1.36 17.34 0 17 C0 13.37 0 9.74 0 6 C-0.66 6 -1.32 6 -2 6 C-2 5.34 -2 4.68 -2 4 C-1.34 4 -0.68 4 0 4 C0 2.68 0 1.36 0 0 Z " fill="#FEF9F4" transform="translate(221,73)"/>
<path d="M0 0 C0.99 0 1.98 0 3 0 C3 4.62 3 9.24 3 14 C2.01 14 1.02 14 0 14 C0 9.38 0 4.76 0 0 Z " fill="#FCE0C8" transform="translate(196,77)"/>
<path d="M0 0 C1.98 0.66 3.96 1.32 6 2 C5.67 2.99 5.34 3.98 5 5 C3.35 5 1.7 5 0 5 C-0.33 4.01 -0.66 3.02 -1 2 C-0.67 1.34 -0.34 0.68 0 0 Z " fill="#F8A24C" transform="translate(173,84)"/>
<path d="M0 0 C0.99 0.33 1.98 0.66 3 1 C3 1.66 3 2.32 3 3 C4.65 3.33 6.3 3.66 8 4 C8 4.33 8 4.66 8 5 C5.125 5.125 5.125 5.125 2 5 C1.34 4.34 0.68 3.68 0 3 C0 2.01 0 1.02 0 0 Z " fill="#FDEEE0" transform="translate(170,86)"/>
</svg>
