<?xml version="1.0" encoding="UTF-8"?>
<svg version="1.1" xmlns="http://www.w3.org/2000/svg" width="225" height="225">
<path d="M0 0 C74.25 0 148.5 0 225 0 C225 74.25 225 148.5 225 225 C150.75 225 76.5 225 0 225 C0 150.75 0 76.5 0 0 Z " fill="#F6F8F9" transform="translate(0,0)"/>
<path d="M0 0 C33.99 0 67.98 0 103 0 C103 0.33 103 0.66 103 1 C101.34677734 1.22042969 101.34677734 1.22042969 99.66015625 1.4453125 C76.35572894 4.79006132 56.81090029 13.61461617 39 29 C38.25234375 29.64453125 37.5046875 30.2890625 36.734375 30.953125 C21.89595639 44.82644322 11.69185166 64.38173944 7 84 C6.82702393 84.68900391 6.65404785 85.37800781 6.47583008 86.08789062 C0.24337093 113.30231214 6.26218482 141.58865285 20 165.4375 C23.02287077 170.21507149 26.38624666 174.65604495 30 179 C30.65613281 179.80308594 31.31226562 180.60617188 31.98828125 181.43359375 C48.73517717 201.05838403 74.43993699 213.67795158 99.9375 216.6875 C129.87923951 219.00183735 158.65758926 211.28286105 182 192 C182.94875 191.21625 183.8975 190.4325 184.875 189.625 C204.1137382 172.95142689 215.7073692 148.86571173 220 124 C222.01075652 89.33178406 214.00383802 60.09713053 190.8515625 33.53515625 C172.88879985 14.53736452 146.81433146 3.20830564 121 1 C121 0.67 121 0.34 121 0 C155.32 0 189.64 0 225 0 C225 74.25 225 148.5 225 225 C150.75 225 76.5 225 0 225 C0 150.75 0 76.5 0 0 Z " fill="#FEFEFE" transform="translate(0,0)"/>
<path d="M0 0 C1.0828125 0.4228125 2.165625 0.845625 3.28125 1.28125 C8.15376412 3.40222674 11.17618864 5.34103867 13.19921875 10.35546875 C19.51206422 31.20325599 22.03234954 52.90295139 15 74 C8.60771252 73.44553439 2.81169483 72.32763804 -3.3125 70.4375 C-4.18583984 70.16921387 -5.05917969 69.90092773 -5.95898438 69.62451172 C-18.55354598 65.66098236 -30.59908108 60.54577895 -42.6328125 55.140625 C-43.40784119 54.79321259 -44.18286987 54.44580017 -44.98138428 54.08786011 C-48.87158977 52.34255463 -52.75650695 50.58700429 -56.6328125 48.81103516 C-85.68623023 35.60736491 -114.81558157 29.38118593 -145.70703125 40.6953125 C-156.00660597 44.61818489 -166.03427308 49.19127332 -176.01831055 53.85009766 C-176.90172119 54.26050293 -177.78513184 54.6709082 -178.6953125 55.09375 C-179.8711792 55.64579102 -179.8711792 55.64579102 -181.07080078 56.20898438 C-183 57 -183 57 -185 57 C-186.21104474 53.36686578 -186.14569592 50.03045524 -186.125 46.25 C-186.12886719 45.5590625 -186.13273438 44.868125 -186.13671875 44.15625 C-186.12829245 39.67346035 -185.72949422 35.4232824 -185 31 C-184.13725464 30.85135498 -184.13725464 30.85135498 -183.25708008 30.69970703 C-156.53297447 25.95236861 -132.2081055 16.51427455 -107.70849609 5.15332031 C-70.06189256 -12.24525094 -38.84400272 -15.64138278 0 0 Z " fill="#7DB0BC" transform="translate(196,63)"/>
<path d="M0 0 C18.40726737 8.32694025 36.84549226 15.54376383 56.68017578 19.64749146 C53.54793024 32.59410638 46.25398613 49.93161789 34.68017578 57.64749146 C34.68017578 56.32749146 34.68017578 55.00749146 34.68017578 53.64749146 C27.09017578 53.64749146 19.50017578 53.64749146 11.68017578 53.64749146 C11.68017578 51.99749146 11.68017578 50.34749146 11.68017578 48.64749146 C3.76017578 48.64749146 -4.15982422 48.64749146 -12.31982422 48.64749146 C-12.31982422 44.68749146 -12.31982422 40.72749146 -12.31982422 36.64749146 C-20.23982422 36.64749146 -28.15982422 36.64749146 -36.31982422 36.64749146 C-36.31982422 30.37749146 -36.31982422 24.10749146 -36.31982422 17.64749146 C-43.90982422 17.64749146 -51.49982422 17.64749146 -59.31982422 17.64749146 C-59.31982422 13.35749146 -59.31982422 9.06749146 -59.31982422 4.64749146 C-67.89982422 4.64749146 -76.47982422 4.64749146 -85.31982422 4.64749146 C-85.31982422 5.63749146 -85.31982422 6.62749146 -85.31982422 7.64749146 C-92.90982422 7.64749146 -100.49982422 7.64749146 -108.31982422 7.64749146 C-108.31982422 13.25749146 -108.31982422 18.86749146 -108.31982422 24.64749146 C-116.23982422 24.64749146 -124.15982422 24.64749146 -132.31982422 24.64749146 C-132.31982422 27.61749146 -132.31982422 30.58749146 -132.31982422 33.64749146 C-135.66401599 29.91281022 -136.91598505 25.63485895 -138.44482422 20.95999146 C-138.70908203 20.19493286 -138.97333984 19.42987427 -139.24560547 18.64163208 C-141.02149141 13.29143763 -141.86046453 8.26624474 -142.31982422 2.64749146 C-107.36626977 -13.4991889 -107.36626977 -13.4991889 -94.31982422 -17.35250854 C-93.23701172 -17.68637573 -92.15419922 -18.02024292 -91.03857422 -18.36422729 C-58.4799778 -26.93023897 -29.00182855 -13.13498834 0 0 Z " fill="#5C7DA2" transform="translate(153.31982421875,119.35250854492188)"/>
<path d="M0 0 C18.9273876 15.76066408 32.1603566 36.09723658 37.92504883 60.20141602 C38.09875 60.88751953 38.27245117 61.57362305 38.45141602 62.28051758 C40.17837984 69.77634095 40.31015424 77.15785474 40.30004883 84.82641602 C40.29983734 85.49060547 40.29962585 86.15479492 40.29940796 86.83911133 C40.26638708 97.23051503 39.39419593 106.37216588 35.92504883 116.20141602 C35.5512207 117.3912207 35.17739258 118.58102539 34.79223633 119.80688477 C26.09444535 146.21706465 7.51060496 168.00538589 -16.64916992 181.54125977 C-43.66565799 194.63362855 -74.03529909 198.71528278 -102.82495117 188.80688477 C-115.73658189 184.07444384 -127.59887692 178.18090823 -138.07495117 169.20141602 C-139.07913086 168.35836914 -140.08331055 167.51532227 -141.11791992 166.64672852 C-157.46128198 152.55691037 -168.54759437 134.040949 -174.07495117 113.20141602 C-174.46227417 111.80197754 -174.46227417 111.80197754 -174.85742188 110.37426758 C-177.00953884 101.99563124 -177.58227159 94.08310348 -177.51245117 85.45141602 C-177.50487793 84.13391357 -177.49730469 82.81641113 -177.48950195 81.45898438 C-177.00525931 52.75965476 -164.32206147 27.14016583 -144.76245117 6.45141602 C-105.39483853 -31.17117833 -42.3786921 -34.23052412 0 0 Z M-146.80541992 13.65063477 C-166.59222996 35.88951076 -175.54730533 63.1722557 -174.23901367 92.66333008 C-172.80656183 114.82370118 -163.73655666 136.55321894 -149.07495117 153.20141602 C-148.39948242 154.0199707 -147.72401367 154.83852539 -147.02807617 155.68188477 C-131.12094139 174.40469852 -107.3543614 186.81588453 -83.07495117 190.20141602 C-78.88306645 190.48990246 -74.71327138 190.53565618 -70.51245117 190.51391602 C-69.36856934 190.50827637 -68.2246875 190.50263672 -67.04614258 190.49682617 C-37.66145378 190.07887749 -12.37969437 178.47624931 8.49487305 157.68432617 C28.11530093 137.34044107 37.5236016 109.86616142 37.27612305 81.93896484 C36.57849308 55.32901626 25.83858526 31.58986937 7.92504883 12.20141602 C7.27020508 11.46536133 6.61536133 10.72930664 5.94067383 9.97094727 C-9.3980981 -6.44940473 -34.55846645 -19.00652397 -57.10083008 -19.92138672 C-92.31050065 -20.73544024 -121.83832998 -12.28448451 -146.80541992 13.65063477 Z " fill="#454978" transform="translate(181.074951171875,23.798583984375)"/>
<path d="M0 0 C7.26 0 14.52 0 22 0 C22 27.39 22 54.78 22 83 C12 81 12 81 0 76 C0 50.92 0 25.84 0 0 Z " fill="#424675" transform="translate(70,126)"/>
<path d="M0 0 C7.26 0 14.52 0 22 0 C22 23.76 22 47.52 22 72 C9 72 9 72 0 71 C0 47.57 0 24.14 0 0 Z " fill="#464A78" transform="translate(94,139)"/>
<path d="M0 0 C6.93 0 13.86 0 21 0 C21 23.76 21 47.52 21 72 C3.97401799 63.487009 3.97401799 63.487009 0 59 C-1.45582258 54.39617695 -1.29191445 50.10269361 -1.07421875 45.3125 C-1.05865433 44.01425293 -1.0430899 42.71600586 -1.02705383 41.37841797 C-0.9853314 37.95002085 -0.87757577 34.52686866 -0.75531006 31.1005249 C-0.64214584 27.59508232 -0.59241206 24.0887794 -0.53710938 20.58203125 C-0.41963712 13.71900028 -0.22641753 6.86029293 0 0 Z " fill="#424675" transform="translate(47,129)"/>
<path d="M0 0 C7.26 0 14.52 0 22 0 C22 16.83 22 33.66 22 51 C8 54 8 54 0 54 C0 36.18 0 18.36 0 0 Z " fill="#444876" transform="translate(117,157)"/>
<path d="M0 0 C7.26 0 14.52 0 22 0 C22 9.24 22 18.48 22 28 C10 34 10 34 0 37 C0 24.79 0 12.58 0 0 Z " fill="#434876" transform="translate(141,170)"/>
<path d="M0 0 C7.26 0 14.52 0 22 0 C22 13.2 22 26.4 22 40 C15.43376186 35.62250791 11.69433877 31.20497374 7 25 C5.94425781 23.67742187 5.94425781 23.67742187 4.8671875 22.328125 C-0.61200683 14.83028012 -0.63630917 9.18103229 0 0 Z " fill="#464A77" transform="translate(23,145)"/>
<path d="M0 0 C0.99435059 0.32218506 0.99435059 0.32218506 2.00878906 0.65087891 C13.85137053 4.50538221 25.10059874 9.69360817 36.40756226 14.86758423 C51.55046298 21.79068505 66.759765 28.26578974 82.93896484 32.36743164 C84.921875 32.89453125 84.921875 32.89453125 88 34 C88.33 34.99 88.66 35.98 89 37 C67.22585727 32.77365242 46.92087642 22.9770579 26.88015747 13.77114868 C16.77208526 9.1377808 6.71301551 5.03005841 -4 2 C-5.03125 1.66613281 -6.0625 1.33226563 -7.125 0.98828125 C-23.22127322 -3.64358904 -41.2560683 -2.12870502 -57 3 C-58.10859375 3.31582031 -59.2171875 3.63164063 -60.359375 3.95703125 C-73.70447707 7.98773516 -86.33949819 14.22365467 -99 20 C-99.66 19.34 -100.32 18.68 -101 18 C-70.34797422 3.75262506 -70.34797422 3.75262506 -59.6875 0.25 C-59.03410645 0.03520996 -58.38071289 -0.17958008 -57.70751953 -0.40087891 C-39.21713638 -6.12968572 -18.32340509 -6.3398421 0 0 Z " fill="#ECF0F3" transform="translate(114,101)"/>
<path d="M0 0 C7.26 0 14.52 0 22 0 C22 6 22 6 19.40234375 8.81640625 C18.26275638 9.75082459 17.10682653 10.66557611 15.9375 11.5625 C15.34348389 12.03921143 14.74946777 12.51592285 14.13745117 13.00708008 C12.44015164 14.35911896 10.7251324 15.68375665 9 17 C8.22398437 17.60070312 7.44796875 18.20140625 6.6484375 18.8203125 C2.37857143 22 2.37857143 22 0 22 C0 14.74 0 7.48 0 0 Z " fill="#424675" transform="translate(164,175)"/>
<path d="M0 0 C8.58 0 17.16 0 26 0 C26 4.29 26 8.58 26 13 C33.59 13 41.18 13 49 13 C49 13.33 49 13.66 49 14 C41.08 14 33.16 14 25 14 C24.505 8.06 24.505 8.06 24 2 C16.74 2 9.48 2 2 2 C1.67 26.75 1.34 51.5 1 77 C0.67 77 0.34 77 0 77 C0 53.24 0 29.48 0 5 C-7.26 5 -14.52 5 -22 5 C-22 23.48 -22 41.96 -22 61 C-22.33 61 -22.66 61 -23 61 C-23 47.8 -23 34.6 -23 21 C-30.26 21 -37.52 21 -45 21 C-45 23.97 -45 26.94 -45 30 C-45.33 30 -45.66 30 -46 30 C-46 26.7 -46 23.4 -46 20 C-38.41 20 -30.82 20 -23 20 C-23 14.39 -23 8.78 -23 3 C-15.41 3 -7.82 3 0 3 C0 2.01 0 1.02 0 0 Z " fill="#DEE1E7" transform="translate(68,124)"/>
<path d="M0 0 C1.67542976 0.28604898 3.34385343 0.61781233 5 1 C4.979375 2.051875 4.95875 3.10375 4.9375 4.1875 C4.87001107 7.85975123 4.87001107 7.85975123 5.625 10.8125 C5.74875 11.534375 5.8725 12.25625 6 13 C5.34 13.66 4.68 14.32 4 15 C2.88625 14.835 1.7725 14.67 0.625 14.5 C-2.81566528 13.78886086 -2.81566528 13.78886086 -5.375 14.625 C-7.60797683 16.51444193 -7.70101879 18.15967854 -8 21 C-9.875 21.625 -9.875 21.625 -12 22 C-12.66 21.34 -13.32 20.68 -14 20 C-13.625 17.375 -13.625 17.375 -13 15 C-11.68 14.67 -10.36 14.34 -9 14 C-9 13.236875 -9 12.47375 -9 11.6875 C-9 8.24115626 -8.91697335 5.32402838 -8 2 C-5.50935112 1.31292445 -3.62113708 1 -1 1 C-0.67 0.67 -0.34 0.34 0 0 Z " fill="#B1DAD3" transform="translate(127,9)"/>
<path d="M0 0 C7.26 0 14.52 0 22 0 C22 16.5 22 33 22 50 C21.67 50 21.34 50 21 50 C21 34.16 21 18.32 21 2 C14.73 2 8.46 2 2 2 C2 19.16 2 36.32 2 54 C1.34 54 0.68 54 0 54 C0 36.18 0 18.36 0 0 Z " fill="#51557F" transform="translate(117,157)"/>
<path d="M0 0 C2.5 0.125 2.5 0.125 3.5 1.125 C3.54063832 2.79117115 3.542721 4.45888095 3.5 6.125 C-1.25 7.25 -1.25 7.25 -3.5 6.125 C-4.64209817 7.90728936 -4.64209817 7.90728936 -5.5 10.125 C-5.314375 10.805625 -5.12875 11.48625 -4.9375 12.1875 C-4.793125 12.826875 -4.64875 13.46625 -4.5 14.125 C-5.6875 15.9375 -5.6875 15.9375 -7.5 17.125 C-9.6875 16.8125 -9.6875 16.8125 -11.5 16.125 C-12.1875 13.8125 -12.1875 13.8125 -12.5 11.125 C-11.5206121 10.10480427 -10.52104551 9.10350195 -9.5 8.125 C-9.90929986 6.07103274 -9.90929986 6.07103274 -10.5 4.125 C-8.12596029 1.75096029 -6.72523111 1.70388764 -3.5 1.125 C-2.5 0.125 -2.5 0.125 0 0 Z " fill="#B0DAD2" transform="translate(71.5,35.875)"/>
<path d="M0 0 C0.495 1.485 0.495 1.485 1 3 C1.66 3.33 2.32 3.66 3 4 C-10.44745813 5.95599391 -23.4498409 6.74840763 -37 5 C-33.33070294 2.7210868 -29.59456087 2.47997761 -25.390625 2.1484375 C-24.66381531 2.08467926 -23.93700562 2.02092102 -23.18817139 1.95523071 C-20.87603035 1.75416551 -18.56312008 1.56443449 -16.25 1.375 C-14.67832118 1.24033092 -13.10670552 1.10492257 -11.53515625 0.96875 C-7.69078325 0.63726356 -3.84568092 0.31593592 0 0 Z " fill="#51547F" transform="translate(132,212)"/>
<path d="M0 0 C1.14662109 -0.00580078 1.14662109 -0.00580078 2.31640625 -0.01171875 C7.33314931 -0.00320136 12.17857885 0.25080029 17.125 1.125 C17.62 2.115 17.62 2.115 18.125 3.125 C17.795 3.785 17.465 4.445 17.125 5.125 C6.895 4.795 -3.335 4.465 -13.875 4.125 C-14.205 3.135 -14.535 2.145 -14.875 1.125 C-9.86540271 0.1166785 -5.08367458 -0.02546081 0 0 Z " fill="#464A78" transform="translate(111.875,-0.125)"/>
<path d="M0 0 C1.65 0.33 3.3 0.66 5 1 C5.625 3.375 5.625 3.375 6 6 C5.34 6.66 4.68 7.32 4 8 C2.68 8 1.36 8 0 8 C-0.99 9.485 -0.99 9.485 -2 11 C-4.5625 11.25 -4.5625 11.25 -7 11 C-8 10 -8 10 -8.0625 7.4375 C-8.041875 6.633125 -8.02125 5.82875 -8 5 C-6.8553125 4.87625 -6.8553125 4.87625 -5.6875 4.75 C-2.47626739 3.85384206 -1.70625501 2.78388975 0 0 Z " fill="#B1DAD3" transform="translate(38,68)"/>
<path d="M0 0 C2 0.1875 2 0.1875 4 1 C4.66 1.99 5.32 2.98 6 4 C8.56282742 4.72965366 8.56282742 4.72965366 11 5 C11.625 7.375 11.625 7.375 12 10 C10 12 10 12 7.375 12.125 C6.59125 12.08375 5.8075 12.0425 5 12 C4.67 10.35 4.34 8.7 4 7 C2.35 6.67 0.7 6.34 -1 6 C-1.625 4.125 -1.625 4.125 -2 2 C-1.34 1.34 -0.68 0.68 0 0 Z " fill="#B2DBD3" transform="translate(150,19)"/>
<path d="M0 0 C3.73584906 1.47169811 3.73584906 1.47169811 5 4 C5.78375 3.79375 6.5675 3.5875 7.375 3.375 C8.674375 3.189375 8.674375 3.189375 10 3 C10.66 3.66 11.32 4.32 12 5 C11.625 7.625 11.625 7.625 11 10 C9.35 10.33 7.7 10.66 6 11 C5.608125 10.360625 5.21625 9.72125 4.8125 9.0625 C2.61527704 6.56221181 1.24208567 6.35049575 -2 6 C-2 4.35 -2 2.7 -2 1 C-1.34 0.67 -0.68 0.34 0 0 Z " fill="#B2DBD3" transform="translate(44,53)"/>
<path d="M0 0 C1.65 0 3.3 0 5 0 C5.94427775 4.31669828 6.56054925 8.60549251 7 13 C6 14 6 14 3.5 14.125 C1 14 1 14 0 13 C0 10.66666667 0 8.33333333 0 6 C-0.32483418 4.66457061 -0.6550855 3.33038449 -1 2 C-0.67 1.34 -0.34 0.68 0 0 Z " fill="#B0DAD2" transform="translate(138,31)"/>
<path d="M0 0 C0.625 2.375 0.625 2.375 1 5 C0.34 5.66 -0.32 6.32 -1 7 C-1.804375 6.814375 -2.60875 6.62875 -3.4375 6.4375 C-4.283125 6.293125 -5.12875 6.14875 -6 6 C-7.02019573 6.9793879 -8.02149805 7.97895449 -9 9 C-11.1875 8.6875 -11.1875 8.6875 -13 8 C-13.33 6.35 -13.66 4.7 -14 3 C-12.88625 2.814375 -12.88625 2.814375 -11.75 2.625 C-9.04701797 2.13686179 -9.04701797 2.13686179 -7 0.9375 C-4.55010213 -0.21088963 -2.67361665 -0.14853426 0 0 Z " fill="#B0DAD2" transform="translate(175,41)"/>
<path d="M0 0 C2.00349261 0.31165441 4.00326516 0.64763503 6 1 C6.9075 0.814375 7.815 0.62875 8.75 0.4375 C9.4925 0.293125 10.235 0.14875 11 0 C13 2 13 2 13 6 C3.58997722 7.33257403 3.58997722 7.33257403 -1 6 C-1.625 4.125 -1.625 4.125 -2 2 C-1.34 1.34 -0.68 0.68 0 0 Z " fill="#B1DBD3" transform="translate(126,44)"/>
<path d="M0 0 C1.65 0.33 3.3 0.66 5 1 C5.625 2.875 5.625 2.875 6 5 C5.34 5.66 4.68 6.32 4 7 C2.68 7 1.36 7 0 7 C-0.66 8.32 -1.32 9.64 -2 11 C-3.65 10.67 -5.3 10.34 -7 10 C-7.625 8.125 -7.625 8.125 -8 6 C-7.34 5.34 -6.68 4.68 -6 4 C-3.375 4.375 -3.375 4.375 -1 5 C-0.67 3.35 -0.34 1.7 0 0 Z " fill="#AFDAD2" transform="translate(100,38)"/>
<path d="M0 0 C2 0.33333333 4 0.66666667 6 1 C6.33 0.67 6.66 0.34 7 0 C8.66617115 -0.04063832 10.33388095 -0.042721 12 0 C12.625 2.375 12.625 2.375 13 5 C12.34 5.66 11.68 6.32 11 7 C8.3984375 6.9765625 8.3984375 6.9765625 5.375 6.625 C4.37210938 6.51414062 3.36921875 6.40328125 2.3359375 6.2890625 C1.56507812 6.19367188 0.79421875 6.09828125 0 6 C-0.38218767 4.34385343 -0.71395102 2.67542976 -1 1 C-0.67 0.67 -0.34 0.34 0 0 Z " fill="#B0DAD2" transform="translate(35,61)"/>
<path d="M0 0 C-0.33 0.99 -0.66 1.98 -1 3 C-3.765625 4.16796875 -3.765625 4.16796875 -7.25 5.1875 C-8.38953125 5.53167969 -9.5290625 5.87585938 -10.703125 6.23046875 C-13.62909513 6.91342623 -16.0176081 7.16257399 -19 7 C-19 6.01 -19 5.02 -19 4 C-16.21079611 3.1369594 -13.41913928 2.28427693 -10.625 1.4375 C-9.8309375 1.19064453 -9.036875 0.94378906 -8.21875 0.68945312 C-7.45820313 0.46064453 -6.69765625 0.23183594 -5.9140625 -0.00390625 C-5.2123291 -0.21861572 -4.5105957 -0.4333252 -3.78759766 -0.65454102 C-2 -1 -2 -1 0 0 Z " fill="#3E4373" transform="translate(152,208)"/>
<path d="M0 0 C0.99 0.33 1.98 0.66 3 1 C2.34 11.56 1.68 22.12 1 33 C0.67 33 0.34 33 0 33 C-0.16806963 28.94346228 -0.32857949 24.88670199 -0.48217773 20.82958984 C-0.53545245 19.45027681 -0.59076982 18.07104107 -0.64819336 16.69189453 C-0.7305101 14.70627168 -0.80480377 12.72032137 -0.87890625 10.734375 C-0.9260376 9.54038086 -0.97316895 8.34638672 -1.02172852 7.11621094 C-1.00340898 4.48890064 -0.7972382 2.48029663 0 0 Z " fill="#3A3E70" transform="translate(6,86)"/>
<path d="M0 0 C2.00720923 0.28674418 4.0085944 0.61866701 6 1 C6.33 2.98 6.66 4.96 7 7 C6.01 7.66 5.02 8.32 4 9 C2.02 7.68 0.04 6.36 -2 5 C-1.125 1.125 -1.125 1.125 0 0 Z " fill="#C8E5E0" transform="translate(120,10)"/>
<path d="M0 0 C2.5625 0.1875 2.5625 0.1875 4.5625 2.1875 C4.1875 4.8125 4.1875 4.8125 3.5625 7.1875 C1.1875 7.8125 1.1875 7.8125 -1.4375 8.1875 C-3.4375 6.1875 -3.4375 6.1875 -3.625 3.625 C-3.37291261 0.34786389 -3.27713611 0.25208739 0 0 Z " fill="#B1DBD3" transform="translate(96.4375,49.8125)"/>
<path d="M0 0 C2.625 0.375 2.625 0.375 5 1 C5.33 2.65 5.66 4.3 6 6 C3 8 3 8 0.8125 7.625 C0.214375 7.41875 -0.38375 7.2125 -1 7 C-1.625 4.625 -1.625 4.625 -2 2 C-1.34 1.34 -0.68 0.68 0 0 Z " fill="#B0DAD3" transform="translate(87,55)"/>
<path d="M0 0 C2.5 0.125 2.5 0.125 3.5 1.125 C3.625 3.625 3.625 3.625 3.5 6.125 C2.5 7.125 2.5 7.125 0.0625 7.3125 C-2.5 7.125 -2.5 7.125 -4.5 5.125 C-3.7519084 0.18759542 -3.7519084 0.18759542 0 0 Z " fill="#B0DAD2" transform="translate(179.5,35.875)"/>
<path d="M0 0 C2.5625 0.1875 2.5625 0.1875 4.5625 2.1875 C4.02678571 5.72321429 4.02678571 5.72321429 2.5625 7.1875 C0.0625 7.3125 0.0625 7.3125 -2.4375 7.1875 C-3.4375 6.1875 -3.4375 6.1875 -3.5625 3.6875 C-3.39599509 0.35740177 -3.31519894 0.2550153 0 0 Z " fill="#AFD9D2" transform="translate(79.4375,31.8125)"/>
<path d="M0 0 C0.598125 0.226875 1.19625 0.45375 1.8125 0.6875 C2.4375 3.0625 2.4375 3.0625 2.8125 5.6875 C2.1525 6.3475 1.4925 7.0075 0.8125 7.6875 C-1.8125 7.3125 -1.8125 7.3125 -4.1875 6.6875 C-4.875 4.875 -4.875 4.875 -5.1875 2.6875 C-3.58493056 0.24147296 -2.95482043 -0.4221172 0 0 Z " fill="#B2DBD3" transform="translate(81.1875,61.3125)"/>
<path d="M0 0 C0.99 0.495 0.99 0.495 2 1 C2 6.94 2 12.88 2 19 C2.66 19.33 3.32 19.66 4 20 C2.02 20.99 2.02 20.99 0 22 C0 14.74 0 7.48 0 0 Z " fill="#6A6D90" transform="translate(164,175)"/>
<path d="M0 0 C2.625 0.375 2.625 0.375 5 1 C5.625 2.875 5.625 2.875 6 5 C5.34 5.66 4.68 6.32 4 7 C1.375 6.625 1.375 6.625 -1 6 C-1.625 4.125 -1.625 4.125 -2 2 C-1.34 1.34 -0.68 0.68 0 0 Z " fill="#AED9D1" transform="translate(148,28)"/>
<path d="M0 0 C2.375 -0.125 2.375 -0.125 5 0 C5.66 0.66 6.32 1.32 7 2 C6.625 4.125 6.625 4.125 6 6 C4.1875 6.625 4.1875 6.625 2 7 C1.01 6.34 0.02 5.68 -1 5 C-0.67 3.35 -0.34 1.7 0 0 Z " fill="#B2DBD4" transform="translate(78,24)"/>
<path d="M0 0 C1.67542976 0.28604898 3.34385343 0.61781233 5 1 C5.38218767 2.65614657 5.71395102 4.32457024 6 6 C5 7 5 7 2.5 7.125 C0 7 0 7 -1 6 C-1.125 3.5 -1.125 3.5 -1 1 C-0.67 0.67 -0.34 0.34 0 0 Z " fill="#AED9D1" transform="translate(88,15)"/>
<path d="M0 0 C1.67542976 0.28604898 3.34385343 0.61781233 5 1 C5 2.65 5 4.3 5 6 C2.625 6.625 2.625 6.625 0 7 C-0.66 6.34 -1.32 5.68 -2 5 C-1.46428571 1.46428571 -1.46428571 1.46428571 0 0 Z " fill="#B0DAD2" transform="translate(70,66)"/>
<path d="M0 0 C2.125 0.375 2.125 0.375 4 1 C5.125 4.75 5.125 4.75 4 7 C2.35 7 0.7 7 -1 7 C-1.625 4.625 -1.625 4.625 -2 2 C-1.34 1.34 -0.68 0.68 0 0 Z " fill="#B0DAD2" transform="translate(105,31)"/>
<path d="M0 0 C2.0625 0.4375 2.0625 0.4375 4 1 C4.33 2.65 4.66 4.3 5 6 C3.1875 6.625 3.1875 6.625 1 7 C0.01 6.34 -0.98 5.68 -2 5 C-1.125 1.125 -1.125 1.125 0 0 Z " fill="#AFDAD2" transform="translate(190,53)"/>
<path d="M0 0 C0.84433594 0.00322266 1.68867187 0.00644531 2.55859375 0.00976562 C3.86763672 0.02233398 3.86763672 0.02233398 5.203125 0.03515625 C6.09128906 0.03966797 6.97945312 0.04417969 7.89453125 0.04882812 C10.08079829 0.06058225 12.26692679 0.07701376 14.453125 0.09765625 C14.453125 0.42765625 14.453125 0.75765625 14.453125 1.09765625 C11.59946146 1.43586822 8.74531904 1.76835405 5.890625 2.09765625 C4.69083008 2.24074219 4.69083008 2.24074219 3.46679688 2.38671875 C-1.24139667 2.92479801 -5.80834765 3.19942328 -10.546875 3.09765625 C-7.40675306 -0.04246569 -4.29980075 -0.02905271 0 0 Z " fill="#F6F8F9" transform="translate(76.546875,96.90234375)"/>
<path d="M0 0 C1.65 0.33 3.3 0.66 5 1 C5.33 1.99 5.66 2.98 6 4 C5.01 4.99 4.02 5.98 3 7 C1.68 6.34 0.36 5.68 -1 5 C-0.67 3.35 -0.34 1.7 0 0 Z " fill="#B1DAD3" transform="translate(15,83)"/>
<path d="M0 0 C-0.33 0.99 -0.66 1.98 -1 3 C-8.92 2.67 -16.84 2.34 -25 2 C-25 1.67 -25 1.34 -25 1 C-23.91460937 0.93941406 -22.82921875 0.87882813 -21.7109375 0.81640625 C-20.26561514 0.73193936 -18.82030318 0.64729449 -17.375 0.5625 C-16.66214844 0.52318359 -15.94929688 0.48386719 -15.21484375 0.44335938 C-11.96645399 0.24964806 -8.87422214 -0.02253397 -5.6640625 -0.59765625 C-3 -1 -3 -1 0 0 Z " fill="#61648A" transform="translate(130,2)"/>
<path d="M0 0 C2.0625 0.4375 2.0625 0.4375 4 1 C4.625 2.875 4.625 2.875 5 5 C4.34 5.66 3.68 6.32 3 7 C0.875 6.625 0.875 6.625 -1 6 C-1.042721 4.33388095 -1.04063832 2.66617115 -1 1 C-0.67 0.67 -0.34 0.34 0 0 Z " fill="#B3DBD4" transform="translate(81,49)"/>
<path d="M0 0 C1.2065625 0.0309375 1.2065625 0.0309375 2.4375 0.0625 C3.0625 1.9375 3.0625 1.9375 3.4375 4.0625 C2.7775 4.7225 2.1175 5.3825 1.4375 6.0625 C-0.6875 5.6875 -0.6875 5.6875 -2.5625 5.0625 C-3.125 3.125 -3.125 3.125 -3.5625 1.0625 C-2.5625 0.0625 -2.5625 0.0625 0 0 Z " fill="#B1DBD3" transform="translate(52.5625,45.9375)"/>
<path d="M0 0 C2.0625 0.4375 2.0625 0.4375 4 1 C4 2.65 4 4.3 4 6 C2.125 6.625 2.125 6.625 0 7 C-0.66 6.34 -1.32 5.68 -2 5 C-1.46428571 1.46428571 -1.46428571 1.46428571 0 0 Z " fill="#B4DCD4" transform="translate(87,42)"/>
<path d="M0 0 C1.65 0.33 3.3 0.66 5 1 C4.67 2.65 4.34 4.3 4 6 C2.35 5.67 0.7 5.34 -1 5 C-0.67 3.35 -0.34 1.7 0 0 Z " fill="#B1DAD3" transform="translate(22,72)"/>
<path d="M0 0 C1.65 0.33 3.3 0.66 5 1 C4.67 2.65 4.34 4.3 4 6 C2.35 5.67 0.7 5.34 -1 5 C-0.67 3.35 -0.34 1.7 0 0 Z " fill="#ADD9D1" transform="translate(62,69)"/>
<path d="M0 0 C1.65 0.33 3.3 0.66 5 1 C4.67 2.65 4.34 4.3 4 6 C2.35 5.67 0.7 5.34 -1 5 C-0.67 3.35 -0.34 1.7 0 0 Z " fill="#B0DAD2" transform="translate(164,36)"/>
<path d="M0 0 C1.65 0.33 3.3 0.66 5 1 C4.67 2.65 4.34 4.3 4 6 C2.35 5.67 0.7 5.34 -1 5 C-0.67 3.35 -0.34 1.7 0 0 Z " fill="#ADD9D1" transform="translate(70,27)"/>
<path d="M0 0 C0.33 0.66 0.66 1.32 1 2 C1.99 2 2.98 2 4 2 C3.67 4.64 3.34 7.28 3 10 C1.68 9.67 0.36 9.34 -1 9 C-0.67 6.03 -0.34 3.06 0 0 Z " fill="#585B84" transform="translate(216,124)"/>
<path d="M0 0 C2.125 0.375 2.125 0.375 4 1 C4 2.65 4 4.3 4 6 C2.35 6 0.7 6 -1 6 C-1.625 4.125 -1.625 4.125 -2 2 C-1.34 1.34 -0.68 0.68 0 0 Z " fill="#B1DAD3" transform="translate(57,73)"/>
<path d="M0 0 C2.0625 0.4375 2.0625 0.4375 4 1 C4.5625 2.9375 4.5625 2.9375 5 5 C4 6 4 6 1.4375 6.0625 C0.2309375 6.0315625 0.2309375 6.0315625 -1 6 C-1.042721 4.33388095 -1.04063832 2.66617115 -1 1 C-0.67 0.67 -0.34 0.34 0 0 Z " fill="#B2DBD4" transform="translate(129,35)"/>
<path d="M0 0 C1.65 0 3.3 0 5 0 C5 1.65 5 3.3 5 5 C3.125 5.625 3.125 5.625 1 6 C0.34 5.34 -0.32 4.68 -1 4 C-0.625 1.875 -0.625 1.875 0 0 Z " fill="#B4DCD5" transform="translate(96,32)"/>
<path d="M0 0 C2.0625 0.4375 2.0625 0.4375 4 1 C3.67 2.65 3.34 4.3 3 6 C1.35 5.67 -0.3 5.34 -2 5 C-1.125 1.125 -1.125 1.125 0 0 Z " fill="#B3DBD4" transform="translate(119,44)"/>
<path d="M0 0 C1.67542976 0.28604898 3.34385343 0.61781233 5 1 C4.67 2.32 4.34 3.64 4 5 C2.68 5.33 1.36 5.66 0 6 C-0.38218767 4.34385343 -0.71395102 2.67542976 -1 1 C-0.67 0.67 -0.34 0.34 0 0 Z " fill="#B3DCD4" transform="translate(141,22)"/>
<path d="M0 0 C0.99 0 1.98 0 3 0 C3.33 1.65 3.66 3.3 4 5 C2.35 5.33 0.7 5.66 -1 6 C-1.625 4.125 -1.625 4.125 -2 2 C-1.34 1.34 -0.68 0.68 0 0 Z " fill="#AFDAD2" transform="translate(184,50)"/>
<path d="M0 0 C2.0625 0.4375 2.0625 0.4375 4 1 C4.33 2.32 4.66 3.64 5 5 C3.35 5.33 1.7 5.66 0 6 C-0.38218767 4.34385343 -0.71395102 2.67542976 -1 1 C-0.67 0.67 -0.34 0.34 0 0 Z " fill="#B4DCD5" transform="translate(90,35)"/>
<path d="M0 0 C2.125 0.9375 2.125 0.9375 4 2 C3.67 3.32 3.34 4.64 3 6 C1.35 5.67 -0.3 5.34 -2 5 C-2 3.68 -2 2.36 -2 1 C-1.34 0.67 -0.68 0.34 0 0 Z " fill="#B1DAD3" transform="translate(169,29)"/>
<path d="M0 0 C1.9375 0.3125 1.9375 0.3125 4 1 C4.33 1.99 4.66 2.98 5 4 C4.67 4.66 4.34 5.32 4 6 C2.35 5.67 0.7 5.34 -1 5 C-0.67 3.35 -0.34 1.7 0 0 Z " fill="#AFDAD2" transform="translate(78,14)"/>
<path d="M0 0 C2.31 0.66 4.62 1.32 7 2 C7 3.32 7 4.64 7 6 C4.36 5.34 1.72 4.68 -1 4 C-0.67 2.68 -0.34 1.36 0 0 Z " fill="#4B4F7C" transform="translate(77,208)"/>
<path d="M0 0 C1.67542976 0.28604898 3.34385343 0.61781233 5 1 C4.67 2.32 4.34 3.64 4 5 C2.68 5 1.36 5 0 5 C-0.5625 3.0625 -0.5625 3.0625 -1 1 C-0.67 0.67 -0.34 0.34 0 0 Z " fill="#B1DBD3" transform="translate(105,21)"/>
<path d="M0 0 C0.99 0 1.98 0 3 0 C4.65 3.96 6.3 7.92 8 12 C7.34 12 6.68 12 6 12 C4.02 8.535 4.02 8.535 2 5 C1.34 5 0.68 5 0 5 C-0.5625 3.0625 -0.5625 3.0625 -1 1 C-0.67 0.67 -0.34 0.34 0 0 Z " fill="#4F537E" transform="translate(12,147)"/>
<path d="M0 0 C-2.88628401 1.57554035 -5.53342384 2.46276373 -8.75 3.125 C-9.54921875 3.29257813 -10.3484375 3.46015625 -11.171875 3.6328125 C-11.77515625 3.75398438 -12.3784375 3.87515625 -13 4 C-13 3.01 -13 2.02 -13 1 C-8.20862412 -0.6290678 -4.94367454 -1.20577428 0 0 Z " fill="#E1E8ED" transform="translate(68,100)"/>
<path d="M0 0 C1.65 0 3.3 0 5 0 C5.33 1.32 5.66 2.64 6 4 C4.35 4.33 2.7 4.66 1 5 C0.67 3.35 0.34 1.7 0 0 Z " fill="#B1DBD3" transform="translate(58,33)"/>
<path d="M0 0 C1.98 0.495 1.98 0.495 4 1 C3.67 2.65 3.34 4.3 3 6 C1.68 5.67 0.36 5.34 -1 5 C-0.67 3.35 -0.34 1.7 0 0 Z " fill="#B3DCD4" transform="translate(24,64)"/>
<path d="M0 0 C1.65 0.33 3.3 0.66 5 1 C4.67 2.32 4.34 3.64 4 5 C2.35 4.67 0.7 4.34 -1 4 C-0.67 2.68 -0.34 1.36 0 0 Z " fill="#AFDAD2" transform="translate(72,55)"/>
<path d="M0 0 C1.98 0.495 1.98 0.495 4 1 C3.67 2.65 3.34 4.3 3 6 C1.68 5.67 0.36 5.34 -1 5 C-0.67 3.35 -0.34 1.7 0 0 Z " fill="#B1DBD3" transform="translate(63,26)"/>
<path d="M0 0 C2.64 0.33 5.28 0.66 8 1 C8 1.99 8 2.98 8 4 C5.36 3.67 2.72 3.34 0 3 C0 2.01 0 1.02 0 0 Z " fill="#3C4172" transform="translate(84,211)"/>
<path d="M0 0 C2.0625 0.4375 2.0625 0.4375 4 1 C3.67 2.65 3.34 4.3 3 6 C2.01 6 1.02 6 0 6 C-0.38218767 4.34385343 -0.71395102 2.67542976 -1 1 C-0.67 0.67 -0.34 0.34 0 0 Z " fill="#B3DCD4" transform="translate(107,52)"/>
<path d="M0 0 C1.65 0.33 3.3 0.66 5 1 C4.67 2.32 4.34 3.64 4 5 C2.35 4.67 0.7 4.34 -1 4 C-0.67 2.68 -0.34 1.36 0 0 Z " fill="#B3DCD4" transform="translate(52,36)"/>
<path d="M0 0 C1.32 0.66 2.64 1.32 4 2 C3.34 3.32 2.68 4.64 2 6 C1.01 6 0.02 6 -1 6 C-1.625 4.125 -1.625 4.125 -2 2 C-1.34 1.34 -0.68 0.68 0 0 Z " fill="#B4DCD4" transform="translate(113,11)"/>
<path d="M0 0 C1.875 0.125 1.875 0.125 4 1 C5.25 4.0625 5.25 4.0625 6 7 C5.01 7.33 4.02 7.66 3 8 C0 2.25 0 2.25 0 0 Z " fill="#3C4071" transform="translate(205,57)"/>
<path d="M0 0 C1.98 0.495 1.98 0.495 4 1 C3.67 2.65 3.34 4.3 3 6 C1.68 5.34 0.36 4.68 -1 4 C-0.67 2.68 -0.34 1.36 0 0 Z " fill="#B1DBD3" transform="translate(134,25)"/>
<path d="M0 0 C0.66 0.33 1.32 0.66 2 1 C0.90931332 4.77545388 0.0916909 7.47043472 -3 10 C-3.66 9.34 -4.32 8.68 -5 8 C-4.34 8 -3.68 8 -3 8 C-2.690625 7.05125 -2.38125 6.1025 -2.0625 5.125 C-1 2 -1 2 0 0 Z " fill="#414574" transform="translate(210,151)"/>
<path d="M0 0 C1.32 0 2.64 0 4 0 C4 1.65 4 3.3 4 5 C2.35 4.67 0.7 4.34 -1 4 C-0.67 2.68 -0.34 1.36 0 0 Z " fill="#AFDAD2" transform="translate(71,17)"/>
<path d="M0 0 C1.65 0 3.3 0 5 0 C4.67 1.65 4.34 3.3 4 5 C2.68 4.67 1.36 4.34 0 4 C0 2.68 0 1.36 0 0 Z " fill="#B1DBD3" transform="translate(143,15)"/>
<path d="M0 0 C0.99 0.33 1.98 0.66 3 1 C1.515 3.475 1.515 3.475 0 6 C-1.32 5.67 -2.64 5.34 -4 5 C-2.68 3.35 -1.36 1.7 0 0 Z " fill="#3F4374" transform="translate(201,166)"/>
<path d="M0 0 C1.65 0.33 3.3 0.66 5 1 C4.34 2.32 3.68 3.64 3 5 C1.68 4.34 0.36 3.68 -1 3 C-0.67 2.01 -0.34 1.02 0 0 Z " fill="#B4DCD4" transform="translate(152,40)"/>
<path d="M0 0 C1.98 0.495 1.98 0.495 4 1 C3.67 2.32 3.34 3.64 3 5 C1.68 4.67 0.36 4.34 -1 4 C-0.67 2.68 -0.34 1.36 0 0 Z " fill="#ACD8D0" transform="translate(64,59)"/>
<path d="M0 0 C1.98 0.495 1.98 0.495 4 1 C3.67 2.32 3.34 3.64 3 5 C1.68 4.67 0.36 4.34 -1 4 C-0.67 2.68 -0.34 1.36 0 0 Z " fill="#B0DAD2" transform="translate(185,43)"/>
<path d="M0 0 C2.475 0.495 2.475 0.495 5 1 C4.67 2.32 4.34 3.64 4 5 C2.68 4.67 1.36 4.34 0 4 C0 2.68 0 1.36 0 0 Z " fill="#B3DBD4" transform="translate(79,42)"/>
<path d="M0 0 C2.475 0.495 2.475 0.495 5 1 C4.34 2.32 3.68 3.64 3 5 C2.01 4.67 1.02 4.34 0 4 C0 2.68 0 1.36 0 0 Z " fill="#B0DAD2" transform="translate(37,49)"/>
<path d="M0 0 C0.99 0.33 1.98 0.66 3 1 C3 2.32 3 3.64 3 5 C1.35 4.67 -0.3 4.34 -2 4 C-1.34 2.68 -0.68 1.36 0 0 Z " fill="#B3DBD4" transform="translate(111,45)"/>
<path d="M0 0 C1.98 0.495 1.98 0.495 4 1 C3.67 2.32 3.34 3.64 3 5 C1.68 4.67 0.36 4.34 -1 4 C-0.67 2.68 -0.34 1.36 0 0 Z " fill="#B6DDD6" transform="translate(45,38)"/>
<path d="M0 0 C2.475 0.99 2.475 0.99 5 2 C5 2.99 5 3.98 5 5 C2.03 4.505 2.03 4.505 -1 4 C-0.67 2.68 -0.34 1.36 0 0 Z " fill="#434776" transform="translate(72,206)"/>
<path d="M0 0 C1.98 0.495 1.98 0.495 4 1 C3.67 2.32 3.34 3.64 3 5 C1.68 4.34 0.36 3.68 -1 3 C-0.67 2.01 -0.34 1.02 0 0 Z " fill="#B4DCD5" transform="translate(157,33)"/>
<path d="M0 0 C1.65 0 3.3 0 5 0 C4.67 1.32 4.34 2.64 4 4 C2.68 3.67 1.36 3.34 0 3 C0 2.01 0 1.02 0 0 Z " fill="#BCDFD9" transform="translate(37,80)"/>
<path d="M0 0 C0.99 0.33 1.98 0.66 3 1 C3 2.32 3 3.64 3 5 C1.68 5 0.36 5 -1 5 C-0.67 3.35 -0.34 1.7 0 0 Z " fill="#AED9D1" transform="translate(46,75)"/>
<path d="M0 0 C2.475 0.495 2.475 0.495 5 1 C4.67 1.99 4.34 2.98 4 4 C2.68 4 1.36 4 0 4 C0 2.68 0 1.36 0 0 Z " fill="#AFDAD2" transform="translate(56,64)"/>
<path d="M0 0 C0.99 0.33 1.98 0.66 3 1 C2.34 2.98 1.68 4.96 1 7 C0.01 6.67 -0.98 6.34 -2 6 C-1.34 4.02 -0.68 2.04 0 0 Z " fill="#3B4071" transform="translate(16,58)"/>
<path d="M0 0 C1.98 0.495 1.98 0.495 4 1 C4 1.99 4 2.98 4 4 C2.35 4 0.7 4 -1 4 C-0.67 2.68 -0.34 1.36 0 0 Z " fill="#AFDAD2" transform="translate(28,57)"/>
<path d="M0 0 C1.32 0 2.64 0 4 0 C4 1.32 4 2.64 4 4 C2.35 3.67 0.7 3.34 -1 3 C-0.67 2.01 -0.34 1.02 0 0 Z " fill="#AFDAD2" transform="translate(73,48)"/>
<path d="M0 0 C1.32 0 2.64 0 4 0 C4 1.32 4 2.64 4 4 C2.35 3.67 0.7 3.34 -1 3 C-0.67 2.01 -0.34 1.02 0 0 Z " fill="#B0DAD2" transform="translate(120,36)"/>
<path d="M0 0 C0.66 0.33 1.32 0.66 2 1 C2 1.99 2 2.98 2 4 C0.35 4.33 -1.3 4.66 -3 5 C-2.625 3.0625 -2.625 3.0625 -2 1 C-1.34 0.67 -0.68 0.34 0 0 Z " fill="#4A4E7B" transform="translate(154,205)"/>
<path d="M0 0 C3.125 0.375 3.125 0.375 6 1 C6.33 1.99 6.66 2.98 7 4 C2.545 3.01 2.545 3.01 -2 2 C-1.34 1.34 -0.68 0.68 0 0 Z " fill="#E1E6EC" transform="translate(196,134)"/>
<path d="M0 0 C1.32 0.33 2.64 0.66 4 1 C3.34 2.32 2.68 3.64 2 5 C0.68 4.34 -0.64 3.68 -2 3 C-1.34 2.01 -0.68 1.02 0 0 Z " fill="#4C507C" transform="translate(21,49)"/>
</svg>
