<?xml version="1.0" standalone="no"?>
<!DOCTYPE svg PUBLIC "-//W3C//DTD SVG 20010904//EN"
 "http://www.w3.org/TR/2001/REC-SVG-20010904/DTD/svg10.dtd">
<svg version="1.0" xmlns="http://www.w3.org/2000/svg"
 width="225.000000pt" height="225.000000pt" viewBox="0 0 225.000000 225.000000"
 preserveAspectRatio="xMidYMid meet">

<g transform="translate(0.000000,225.000000) scale(0.100000,-0.100000)"
fill="#000000" stroke="none">
<path d="M758 2240 c-296 -47 -556 -245 -679 -515 -54 -119 -73 -215 -73 -365
0 -150 18 -240 73 -363 107 -239 337 -433 589 -497 l52 -14 0 -117 c0 -94 3
-119 16 -130 11 -9 20 -10 32 -2 14 8 17 31 20 128 2 101 5 116 18 111 9 -3
22 -6 30 -6 12 0 14 -31 14 -179 0 -99 3 -186 6 -195 8 -21 50 -21 58 0 3 9 6
96 6 194 l0 178 30 4 29 4 3 -114 c3 -98 6 -116 21 -126 35 -21 47 16 47 140
l0 112 37 7 c74 14 206 69 279 116 41 27 78 49 82 49 4 0 32 -24 61 -54 48
-48 52 -56 41 -76 -6 -12 -9 -32 -6 -43 3 -12 110 -127 239 -255 174 -173 239
-232 257 -232 32 0 210 176 210 208 0 12 -13 36 -28 53 -23 26 -33 31 -55 25
-31 -7 -35 -31 -11 -57 16 -17 13 -23 -46 -89 l-63 -72 -121 122 -121 121 70
64 70 64 63 -62 c52 -52 65 -60 80 -51 40 25 25 46 -146 217 -92 92 -176 167
-186 167 -9 0 -27 -5 -38 -11 -18 -10 -27 -4 -74 42 -30 29 -54 57 -54 60 0 4
23 44 51 88 30 46 66 122 85 178 l34 98 107 2 c138 4 153 7 153 37 0 32 -14
36 -141 36 -97 0 -109 2 -109 18 1 39 10 41 204 44 163 3 190 5 199 20 8 12 7
21 -2 32 -11 14 -42 16 -202 16 l-189 0 0 30 0 29 118 3 c115 3 117 3 120 27
2 13 -2 28 -10 32 -7 5 -64 9 -125 9 l-113 0 -6 28 c-42 187 -151 392 -208
392 -31 0 -67 40 -60 67 13 49 -220 191 -381 233 -92 24 -270 34 -357 20z
m350 -223 c114 -41 180 -83 272 -176 144 -145 207 -308 197 -510 -9 -194 -81
-349 -225 -482 -229 -212 -583 -239 -848 -63 -39 26 -58 33 -67 26 -17 -15
-67 30 -61 54 3 12 -11 40 -37 74 -176 231 -186 556 -25 798 94 141 240 248
401 293 104 28 292 22 393 -14z m670 -1410 l22 -23 -68 -67 -68 -68 -24 26
-24 25 64 65 c36 36 67 65 70 65 4 0 16 -10 28 -23z m97 -97 c19 -21 18 -22
-48 -88 l-67 -67 -22 23 -22 22 64 65 c35 36 67 65 71 65 3 0 14 -9 24 -20z"/>
<path d="M758 1939 c-15 -8 -18 -24 -18 -84 l0 -75 -119 0 c-159 0 -151 11
-151 -222 0 -169 -1 -178 -19 -178 -34 0 -51 -12 -51 -35 0 -13 7 -26 16 -29
9 -3 231 -6 494 -6 463 0 480 1 490 19 13 25 -11 51 -46 51 -24 0 -24 1 -24
96 0 137 3 134 -140 134 l-119 0 -3 156 c-3 140 -5 157 -22 170 -24 17 -260
20 -288 3z m232 -309 l0 -250 -95 0 -95 0 0 250 0 250 95 0 95 0 0 -250z
m-260 -85 l0 -165 -95 0 -95 0 0 165 0 165 95 0 95 0 0 -165z m530 -80 l0 -85
-95 0 -95 0 0 85 0 85 95 0 95 0 0 -85z"/>
<path d="M981 1208 c-50 -141 -85 -234 -91 -241 -4 -4 -22 36 -41 90 -31 88
-37 98 -59 98 -20 0 -32 -13 -60 -62 l-35 -62 -90 -3 c-89 -3 -90 -3 -90 -28
0 -25 0 -25 107 -28 l107 -3 23 36 c13 19 26 35 30 35 3 0 21 -43 38 -95 38
-114 62 -145 87 -112 5 6 29 64 52 126 23 63 46 121 50 129 6 10 16 -5 33 -49
l26 -64 113 0 114 0 0 25 c0 25 -1 25 -90 28 l-90 3 -34 87 c-19 48 -38 93
-44 100 -15 20 -47 14 -56 -10z"/>
</g>
</svg>
