<svg xmlns="http://www.w3.org/2000/svg" xmlns:xlink="http://www.w3.org/1999/xlink" width="417" zoomAndPan="magnify" viewBox="0 0 312.75 187.499995" height="250" preserveAspectRatio="xMidYMid meet" version="1.0"><defs><g/></defs><g fill="#cb6ce6" fill-opacity="1"><g transform="translate(35.681227, 143.917484)"><g><path d="M 13.59375 0 L 13.59375 -104.65625 L 34.28125 -104.65625 L 34.28125 -61.921875 L 36.578125 -61.921875 L 71.5 -104.65625 L 92.6875 -104.65625 L 92.6875 -102.859375 L 54.1875 -55.265625 L 96.703125 -1.796875 L 96.703125 0 L 73.296875 0 L 36.578125 -45.171875 L 34.28125 -45.171875 L 34.28125 0 Z M 13.59375 0 "/></g></g></g><g fill="#cb6ce6" fill-opacity="1"><g transform="translate(128.513822, 143.917484)"><g><path d="M 57.046875 1.5 C 47.453125 1.5 38.992188 -0.453125 31.671875 -4.359375 C 24.347656 -8.273438 18.609375 -14.253906 14.453125 -22.296875 C 10.304688 -30.335938 8.234375 -40.347656 8.234375 -52.328125 C 8.234375 -64.304688 10.304688 -74.3125 14.453125 -82.34375 C 18.609375 -90.382812 24.347656 -96.363281 31.671875 -100.28125 C 38.992188 -104.195312 47.453125 -106.15625 57.046875 -106.15625 C 66.640625 -106.15625 75.085938 -104.207031 82.390625 -100.3125 C 89.691406 -96.425781 95.40625 -90.453125 99.53125 -82.390625 C 103.65625 -74.328125 105.71875 -64.304688 105.71875 -52.328125 C 105.71875 -40.347656 103.65625 -30.328125 99.53125 -22.265625 C 95.40625 -14.203125 89.691406 -8.222656 82.390625 -4.328125 C 75.085938 -0.441406 66.640625 1.5 57.046875 1.5 Z M 57.046875 -16.46875 C 65.921875 -16.46875 72.695312 -19.316406 77.375 -25.015625 C 82.050781 -30.722656 84.390625 -39.828125 84.390625 -52.328125 C 84.390625 -64.828125 82.050781 -73.9375 77.375 -79.65625 C 72.695312 -85.382812 65.921875 -88.25 57.046875 -88.25 C 48.117188 -88.25 41.304688 -85.382812 36.609375 -79.65625 C 31.910156 -73.9375 29.5625 -64.828125 29.5625 -52.328125 C 29.5625 -39.828125 31.910156 -30.722656 36.609375 -25.015625 C 41.304688 -19.316406 48.117188 -16.46875 57.046875 -16.46875 Z M 57.046875 -16.46875 "/></g></g></g><g fill="#cb6ce6" fill-opacity="1"><g transform="translate(236.377035, 143.917484)"><g><path d="M 20.1875 0.640625 C 17.65625 0.640625 15.421875 0.128906 13.484375 -0.890625 C 11.554688 -1.921875 10.078125 -3.34375 9.046875 -5.15625 C 8.023438 -6.96875 7.515625 -9.019531 7.515625 -11.3125 C 7.515625 -13.601562 8.023438 -15.65625 9.046875 -17.46875 C 10.078125 -19.28125 11.554688 -20.707031 13.484375 -21.75 C 15.421875 -22.800781 17.65625 -23.328125 20.1875 -23.328125 C 22.757812 -23.328125 25.007812 -22.8125 26.9375 -21.78125 C 28.875 -20.757812 30.351562 -19.34375 31.375 -17.53125 C 32.40625 -15.71875 32.921875 -13.664062 32.921875 -11.375 C 32.921875 -7.894531 31.765625 -5.019531 29.453125 -2.75 C 27.140625 -0.488281 24.050781 0.640625 20.1875 0.640625 Z M 20.1875 0.640625 "/></g></g></g></svg>